<mxfile host="Electron" agent="Mozilla/5.0 (Macintosh; Intel Mac OS X 10_15_7) AppleWebKit/537.36 (KHTML, like Gecko) draw.io/26.2.2 Chrome/134.0.6998.178 Electron/35.1.2 Safari/537.36" version="26.2.2" pages="7">
  <diagram id="ynBrBc032JeSYuBWYomf" name="master">
    <mxGraphModel dx="3400" dy="1286" grid="1" gridSize="10" guides="1" tooltips="1" connect="1" arrows="1" fold="1" page="0" pageScale="1" pageWidth="850" pageHeight="1100" math="0" shadow="0">
      <root>
        <mxCell id="0" />
        <mxCell id="1" parent="0" />
        <mxCell id="9aB0R8qvESyYUEG60j1E-158" value="" style="rounded=0;whiteSpace=wrap;html=1;labelBackgroundColor=none;fillColor=#CCE5FF;strokeColor=#000000;strokeWidth=2;" parent="1" vertex="1">
          <mxGeometry x="1350" y="600" width="700" height="620" as="geometry" />
        </mxCell>
        <mxCell id="9aB0R8qvESyYUEG60j1E-159" value="" style="rounded=0;whiteSpace=wrap;html=1;labelBackgroundColor=none;fillColor=#CCE5FF;strokeColor=#000000;strokeWidth=2;" parent="1" vertex="1">
          <mxGeometry x="2550" y="600" width="310" height="620" as="geometry" />
        </mxCell>
        <mxCell id="9aB0R8qvESyYUEG60j1E-161" value="" style="rounded=0;whiteSpace=wrap;html=1;labelBackgroundColor=none;fillColor=#E6FFCC;strokeColor=#000000;strokeWidth=2;" parent="1" vertex="1">
          <mxGeometry x="2050" y="600" width="500" height="620" as="geometry" />
        </mxCell>
        <mxCell id="9aB0R8qvESyYUEG60j1E-162" value="" style="rounded=0;whiteSpace=wrap;html=1;labelBackgroundColor=none;fillColor=#E6FFCC;strokeColor=#000000;strokeWidth=2;" parent="1" vertex="1">
          <mxGeometry x="2860" y="600" width="180" height="620" as="geometry" />
        </mxCell>
        <mxCell id="9aB0R8qvESyYUEG60j1E-157" value="" style="rounded=0;whiteSpace=wrap;html=1;labelBackgroundColor=none;fillColor=#E6FFCC;strokeColor=#000000;strokeWidth=2;" parent="1" vertex="1">
          <mxGeometry x="570" y="600" width="780" height="620" as="geometry" />
        </mxCell>
        <mxCell id="9aB0R8qvESyYUEG60j1E-164" value="" style="rounded=0;whiteSpace=wrap;html=1;labelBackgroundColor=none;fillColor=#CCE5FF;strokeColor=#000000;strokeWidth=2;" parent="1" vertex="1">
          <mxGeometry x="-580" y="600" width="1150" height="620" as="geometry" />
        </mxCell>
        <mxCell id="9aB0R8qvESyYUEG60j1E-62" style="edgeStyle=orthogonalEdgeStyle;rounded=0;orthogonalLoop=1;jettySize=auto;html=1;entryX=0;entryY=0.5;entryDx=0;entryDy=0;entryPerimeter=0;endArrow=classicThin;endFill=1;strokeColor=#0000FF;strokeWidth=3;" parent="1" source="9aB0R8qvESyYUEG60j1E-1" target="9aB0R8qvESyYUEG60j1E-2" edge="1">
          <mxGeometry relative="1" as="geometry" />
        </mxCell>
        <mxCell id="9aB0R8qvESyYUEG60j1E-1" value="organizational&lt;br&gt;cybersecurity&lt;br&gt;policy" style="shape=note;whiteSpace=wrap;html=1;backgroundOutline=1;darkOpacity=0.05;fillColor=#fff2cc;strokeColor=#000000;" parent="1" vertex="1">
          <mxGeometry x="-560" y="771" width="80" height="100" as="geometry" />
        </mxCell>
        <mxCell id="9aB0R8qvESyYUEG60j1E-51" style="edgeStyle=orthogonalEdgeStyle;rounded=0;orthogonalLoop=1;jettySize=auto;html=1;entryX=0;entryY=0.5;entryDx=0;entryDy=0;entryPerimeter=0;endArrow=classicThin;endFill=1;strokeColor=#0000FF;strokeWidth=3;" parent="1" source="9aB0R8qvESyYUEG60j1E-2" target="9aB0R8qvESyYUEG60j1E-3" edge="1">
          <mxGeometry relative="1" as="geometry" />
        </mxCell>
        <mxCell id="9aB0R8qvESyYUEG60j1E-2" value="global&lt;br&gt;cybersecurity&lt;br&gt;goals" style="shape=note;whiteSpace=wrap;html=1;backgroundOutline=1;darkOpacity=0.05;fillColor=#fff2cc;strokeColor=#000000;" parent="1" vertex="1">
          <mxGeometry x="-420" y="771" width="80" height="100" as="geometry" />
        </mxCell>
        <mxCell id="9aB0R8qvESyYUEG60j1E-49" style="edgeStyle=orthogonalEdgeStyle;rounded=0;orthogonalLoop=1;jettySize=auto;html=1;entryX=0;entryY=0.25;entryDx=0;entryDy=0;endArrow=classicThin;endFill=1;strokeColor=#0000FF;strokeWidth=3;" parent="1" source="9aB0R8qvESyYUEG60j1E-3" target="9aB0R8qvESyYUEG60j1E-84" edge="1">
          <mxGeometry relative="1" as="geometry">
            <Array as="points">
              <mxPoint x="-170" y="821" />
              <mxPoint x="-170" y="895" />
            </Array>
          </mxGeometry>
        </mxCell>
        <mxCell id="9aB0R8qvESyYUEG60j1E-3" value="element-level&lt;br&gt;cybersecurity&lt;br&gt;goals" style="shape=note;whiteSpace=wrap;html=1;backgroundOutline=1;darkOpacity=0.05;fillColor=#fff2cc;strokeColor=#000000;" parent="1" vertex="1">
          <mxGeometry x="-280" y="771" width="80" height="100" as="geometry" />
        </mxCell>
        <mxCell id="9aB0R8qvESyYUEG60j1E-4" value="global&lt;br&gt;cybersecurity&lt;br&gt;requirements" style="shape=note;whiteSpace=wrap;html=1;backgroundOutline=1;darkOpacity=0.05;fillColor=#fff2cc;strokeColor=#000000;" parent="1" vertex="1">
          <mxGeometry x="-280" y="941" width="80" height="100" as="geometry" />
        </mxCell>
        <mxCell id="9aB0R8qvESyYUEG60j1E-48" style="edgeStyle=orthogonalEdgeStyle;rounded=0;orthogonalLoop=1;jettySize=auto;html=1;entryX=0;entryY=0.75;entryDx=0;entryDy=0;endArrow=classicThin;endFill=1;strokeColor=#0000FF;strokeWidth=3;" parent="1" source="9aB0R8qvESyYUEG60j1E-5" target="9aB0R8qvESyYUEG60j1E-7" edge="1">
          <mxGeometry relative="1" as="geometry" />
        </mxCell>
        <mxCell id="9aB0R8qvESyYUEG60j1E-5" value="element-level&lt;br&gt;cybersecurity&lt;br&gt;requirements" style="shape=note;whiteSpace=wrap;html=1;backgroundOutline=1;darkOpacity=0.05;fillColor=#fff2cc;strokeColor=#000000;" parent="1" vertex="1">
          <mxGeometry x="30" y="861" width="80" height="100" as="geometry" />
        </mxCell>
        <mxCell id="9aB0R8qvESyYUEG60j1E-39" style="edgeStyle=orthogonalEdgeStyle;rounded=0;orthogonalLoop=1;jettySize=auto;html=1;endArrow=classicThin;endFill=1;strokeColor=#FF8000;strokeWidth=3;entryX=0;entryY=0.25;entryDx=0;entryDy=0;" parent="1" source="9aB0R8qvESyYUEG60j1E-6" target="9aB0R8qvESyYUEG60j1E-7" edge="1">
          <mxGeometry relative="1" as="geometry" />
        </mxCell>
        <mxCell id="9aB0R8qvESyYUEG60j1E-6" value="element&lt;br&gt;functional&lt;br&gt;requirements" style="shape=note;whiteSpace=wrap;html=1;backgroundOutline=1;darkOpacity=0.05;fillColor=#d5e8d4;strokeColor=#000000;" parent="1" vertex="1">
          <mxGeometry x="30" y="701" width="80" height="100" as="geometry" />
        </mxCell>
        <mxCell id="9aB0R8qvESyYUEG60j1E-65" style="edgeStyle=orthogonalEdgeStyle;rounded=0;orthogonalLoop=1;jettySize=auto;html=1;entryX=0;entryY=0.5;entryDx=0;entryDy=0;entryPerimeter=0;endArrow=classicThin;endFill=1;strokeColor=#0000FF;strokeWidth=3;" parent="1" source="9aB0R8qvESyYUEG60j1E-7" target="9aB0R8qvESyYUEG60j1E-64" edge="1">
          <mxGeometry relative="1" as="geometry" />
        </mxCell>
        <mxCell id="9aB0R8qvESyYUEG60j1E-83" style="edgeStyle=orthogonalEdgeStyle;rounded=0;orthogonalLoop=1;jettySize=auto;html=1;exitX=0.25;exitY=1;exitDx=0;exitDy=0;endArrow=classicThin;endFill=1;strokeColor=#CC0000;strokeWidth=3;entryX=0.5;entryY=1;entryDx=0;entryDy=0;dashed=1;" parent="1" source="9aB0R8qvESyYUEG60j1E-7" target="9aB0R8qvESyYUEG60j1E-84" edge="1">
          <mxGeometry relative="1" as="geometry">
            <mxPoint x="190" y="1221" as="targetPoint" />
            <Array as="points">
              <mxPoint x="190" y="1061" />
              <mxPoint x="-80" y="1061" />
            </Array>
          </mxGeometry>
        </mxCell>
        <mxCell id="9aB0R8qvESyYUEG60j1E-7" value="element&lt;br&gt;requirements&lt;br&gt;review" style="shape=process;whiteSpace=wrap;html=1;backgroundOutline=1;" parent="1" vertex="1">
          <mxGeometry x="160" y="801" width="120" height="60" as="geometry" />
        </mxCell>
        <mxCell id="9aB0R8qvESyYUEG60j1E-90" style="edgeStyle=orthogonalEdgeStyle;rounded=0;orthogonalLoop=1;jettySize=auto;html=1;endArrow=classicThin;endFill=1;strokeColor=#0000FF;strokeWidth=3;" parent="1" source="9aB0R8qvESyYUEG60j1E-9" target="9aB0R8qvESyYUEG60j1E-77" edge="1">
          <mxGeometry relative="1" as="geometry" />
        </mxCell>
        <mxCell id="9aB0R8qvESyYUEG60j1E-117" style="edgeStyle=orthogonalEdgeStyle;rounded=0;orthogonalLoop=1;jettySize=auto;html=1;exitX=0.25;exitY=1;exitDx=0;exitDy=0;entryX=0.5;entryY=0;entryDx=0;entryDy=0;endArrow=classicThin;endFill=1;strokeColor=#CC0000;strokeWidth=3;dashed=1;" parent="1" source="9aB0R8qvESyYUEG60j1E-9" target="9aB0R8qvESyYUEG60j1E-112" edge="1">
          <mxGeometry relative="1" as="geometry">
            <Array as="points">
              <mxPoint x="1070" y="920" />
              <mxPoint x="1010" y="920" />
            </Array>
          </mxGeometry>
        </mxCell>
        <mxCell id="9aB0R8qvESyYUEG60j1E-9" value="threat&lt;br&gt;modeling" style="shape=process;whiteSpace=wrap;html=1;backgroundOutline=1;" parent="1" vertex="1">
          <mxGeometry x="1040" y="836" width="120" height="60" as="geometry" />
        </mxCell>
        <mxCell id="9aB0R8qvESyYUEG60j1E-30" style="edgeStyle=orthogonalEdgeStyle;rounded=0;orthogonalLoop=1;jettySize=auto;html=1;entryX=0;entryY=0.5;entryDx=0;entryDy=0;entryPerimeter=0;endArrow=classicThin;endFill=1;strokeColor=#0000FF;strokeWidth=3;" parent="1" source="9aB0R8qvESyYUEG60j1E-10" target="9aB0R8qvESyYUEG60j1E-19" edge="1">
          <mxGeometry relative="1" as="geometry" />
        </mxCell>
        <mxCell id="9aB0R8qvESyYUEG60j1E-10" value="threat prioritization" style="shape=process;whiteSpace=wrap;html=1;backgroundOutline=1;" parent="1" vertex="1">
          <mxGeometry x="1370" y="1290" width="120" height="60" as="geometry" />
        </mxCell>
        <mxCell id="9aB0R8qvESyYUEG60j1E-68" style="edgeStyle=orthogonalEdgeStyle;rounded=0;orthogonalLoop=1;jettySize=auto;html=1;entryX=0;entryY=0.25;entryDx=0;entryDy=0;endArrow=classicThin;endFill=1;strokeColor=#FF8000;strokeWidth=3;" parent="1" source="9aB0R8qvESyYUEG60j1E-11" target="9aB0R8qvESyYUEG60j1E-63" edge="1">
          <mxGeometry relative="1" as="geometry">
            <Array as="points">
              <mxPoint x="690" y="736" />
              <mxPoint x="690" y="801" />
            </Array>
          </mxGeometry>
        </mxCell>
        <mxCell id="9aB0R8qvESyYUEG60j1E-11" value="element&lt;br&gt;design" style="shape=note;whiteSpace=wrap;html=1;backgroundOutline=1;darkOpacity=0.05;fillColor=#d5e8d4;strokeColor=#000000;" parent="1" vertex="1">
          <mxGeometry x="590" y="686" width="80" height="100" as="geometry" />
        </mxCell>
        <mxCell id="9aB0R8qvESyYUEG60j1E-103" style="edgeStyle=orthogonalEdgeStyle;rounded=0;orthogonalLoop=1;jettySize=auto;html=1;endArrow=classicThin;endFill=1;strokeColor=#0000FF;strokeWidth=3;" parent="1" source="9aB0R8qvESyYUEG60j1E-13" target="9aB0R8qvESyYUEG60j1E-78" edge="1">
          <mxGeometry relative="1" as="geometry">
            <Array as="points">
              <mxPoint x="1880" y="770" />
              <mxPoint x="1880" y="820" />
            </Array>
          </mxGeometry>
        </mxCell>
        <mxCell id="9aB0R8qvESyYUEG60j1E-123" style="edgeStyle=orthogonalEdgeStyle;rounded=0;orthogonalLoop=1;jettySize=auto;html=1;exitX=0.25;exitY=1;exitDx=0;exitDy=0;entryX=0.5;entryY=0;entryDx=0;entryDy=0;dashed=1;endArrow=classicThin;endFill=1;strokeColor=#CC0000;strokeWidth=3;" parent="1" source="9aB0R8qvESyYUEG60j1E-13" target="9aB0R8qvESyYUEG60j1E-120" edge="1">
          <mxGeometry relative="1" as="geometry">
            <Array as="points">
              <mxPoint x="1760" y="820" />
              <mxPoint x="1700" y="820" />
            </Array>
          </mxGeometry>
        </mxCell>
        <mxCell id="9aB0R8qvESyYUEG60j1E-13" value="static&lt;br&gt;analysis" style="shape=process;whiteSpace=wrap;html=1;backgroundOutline=1;" parent="1" vertex="1">
          <mxGeometry x="1730" y="740" width="120" height="60" as="geometry" />
        </mxCell>
        <mxCell id="9aB0R8qvESyYUEG60j1E-104" style="edgeStyle=orthogonalEdgeStyle;rounded=0;orthogonalLoop=1;jettySize=auto;html=1;endArrow=classicThin;endFill=1;strokeColor=#0000FF;strokeWidth=3;" parent="1" source="9aB0R8qvESyYUEG60j1E-14" target="9aB0R8qvESyYUEG60j1E-78" edge="1">
          <mxGeometry relative="1" as="geometry">
            <Array as="points">
              <mxPoint x="1880" y="870" />
              <mxPoint x="1880" y="820" />
            </Array>
          </mxGeometry>
        </mxCell>
        <mxCell id="9aB0R8qvESyYUEG60j1E-122" style="edgeStyle=orthogonalEdgeStyle;rounded=0;orthogonalLoop=1;jettySize=auto;html=1;exitX=0.25;exitY=1;exitDx=0;exitDy=0;entryX=0.5;entryY=0;entryDx=0;entryDy=0;dashed=1;endArrow=classicThin;endFill=1;strokeColor=#CC0000;strokeWidth=3;" parent="1" source="9aB0R8qvESyYUEG60j1E-14" target="9aB0R8qvESyYUEG60j1E-120" edge="1">
          <mxGeometry relative="1" as="geometry">
            <Array as="points">
              <mxPoint x="1760" y="920" />
              <mxPoint x="1700" y="920" />
            </Array>
          </mxGeometry>
        </mxCell>
        <mxCell id="9aB0R8qvESyYUEG60j1E-14" value="dynamic&lt;br&gt;analysis" style="shape=process;whiteSpace=wrap;html=1;backgroundOutline=1;" parent="1" vertex="1">
          <mxGeometry x="1730" y="840" width="120" height="60" as="geometry" />
        </mxCell>
        <mxCell id="9aB0R8qvESyYUEG60j1E-102" style="edgeStyle=orthogonalEdgeStyle;rounded=0;orthogonalLoop=1;jettySize=auto;html=1;entryX=0;entryY=0.5;entryDx=0;entryDy=0;endArrow=classicThin;endFill=1;strokeColor=#0000FF;strokeWidth=3;" parent="1" source="9aB0R8qvESyYUEG60j1E-15" target="9aB0R8qvESyYUEG60j1E-78" edge="1">
          <mxGeometry relative="1" as="geometry">
            <Array as="points">
              <mxPoint x="1880" y="670" />
              <mxPoint x="1880" y="820" />
            </Array>
          </mxGeometry>
        </mxCell>
        <mxCell id="9aB0R8qvESyYUEG60j1E-125" style="edgeStyle=orthogonalEdgeStyle;rounded=0;orthogonalLoop=1;jettySize=auto;html=1;exitX=0.25;exitY=1;exitDx=0;exitDy=0;dashed=1;endArrow=classicThin;endFill=1;strokeColor=#CC0000;strokeWidth=3;entryX=0.5;entryY=0;entryDx=0;entryDy=0;" parent="1" source="9aB0R8qvESyYUEG60j1E-15" target="9aB0R8qvESyYUEG60j1E-120" edge="1">
          <mxGeometry relative="1" as="geometry">
            <mxPoint x="1575" y="1060.2298850574712" as="targetPoint" />
            <Array as="points">
              <mxPoint x="1760" y="720" />
              <mxPoint x="1700" y="720" />
            </Array>
          </mxGeometry>
        </mxCell>
        <mxCell id="9aB0R8qvESyYUEG60j1E-15" value="fuzz&lt;br&gt;testing" style="shape=process;whiteSpace=wrap;html=1;backgroundOutline=1;" parent="1" vertex="1">
          <mxGeometry x="1730" y="640" width="120" height="60" as="geometry" />
        </mxCell>
        <mxCell id="9aB0R8qvESyYUEG60j1E-105" style="edgeStyle=orthogonalEdgeStyle;rounded=0;orthogonalLoop=1;jettySize=auto;html=1;endArrow=classicThin;endFill=1;strokeColor=#0000FF;strokeWidth=3;" parent="1" source="9aB0R8qvESyYUEG60j1E-16" target="9aB0R8qvESyYUEG60j1E-78" edge="1">
          <mxGeometry relative="1" as="geometry">
            <Array as="points">
              <mxPoint x="1880" y="970" />
              <mxPoint x="1880" y="820" />
            </Array>
          </mxGeometry>
        </mxCell>
        <mxCell id="9aB0R8qvESyYUEG60j1E-121" style="edgeStyle=orthogonalEdgeStyle;rounded=0;orthogonalLoop=1;jettySize=auto;html=1;exitX=0.25;exitY=1;exitDx=0;exitDy=0;entryX=0.5;entryY=0;entryDx=0;entryDy=0;dashed=1;endArrow=classicThin;endFill=1;strokeColor=#CC0000;strokeWidth=3;" parent="1" source="9aB0R8qvESyYUEG60j1E-16" target="9aB0R8qvESyYUEG60j1E-120" edge="1">
          <mxGeometry relative="1" as="geometry">
            <Array as="points">
              <mxPoint x="1760" y="1030" />
              <mxPoint x="1700" y="1030" />
            </Array>
          </mxGeometry>
        </mxCell>
        <mxCell id="9aB0R8qvESyYUEG60j1E-16" value="security&lt;br&gt;code review" style="shape=process;whiteSpace=wrap;html=1;backgroundOutline=1;" parent="1" vertex="1">
          <mxGeometry x="1730" y="940" width="120" height="60" as="geometry" />
        </mxCell>
        <mxCell id="9aB0R8qvESyYUEG60j1E-106" style="edgeStyle=orthogonalEdgeStyle;rounded=0;orthogonalLoop=1;jettySize=auto;html=1;entryX=0;entryY=0.5;entryDx=0;entryDy=0;endArrow=classicThin;endFill=1;strokeColor=#0000FF;strokeWidth=3;" parent="1" source="9aB0R8qvESyYUEG60j1E-18" target="9aB0R8qvESyYUEG60j1E-10" edge="1">
          <mxGeometry relative="1" as="geometry" />
        </mxCell>
        <mxCell id="9aB0R8qvESyYUEG60j1E-18" value="threat&lt;br&gt;candidates" style="shape=note;whiteSpace=wrap;html=1;backgroundOutline=1;darkOpacity=0.05;fillColor=#fff2cc;strokeColor=#d6b656;" parent="1" vertex="1">
          <mxGeometry x="1235" y="1270" width="80" height="100" as="geometry" />
        </mxCell>
        <mxCell id="9aB0R8qvESyYUEG60j1E-107" style="edgeStyle=orthogonalEdgeStyle;rounded=0;orthogonalLoop=1;jettySize=auto;html=1;endArrow=classicThin;endFill=1;strokeColor=#0000FF;strokeWidth=3;entryX=0;entryY=0.5;entryDx=0;entryDy=0;" parent="1" source="9aB0R8qvESyYUEG60j1E-19" target="9aB0R8qvESyYUEG60j1E-57" edge="1">
          <mxGeometry relative="1" as="geometry">
            <mxPoint x="1684.999999999999" y="1320" as="targetPoint" />
          </mxGeometry>
        </mxCell>
        <mxCell id="9aB0R8qvESyYUEG60j1E-19" value="uncontrolled&lt;br&gt;threats" style="shape=note;whiteSpace=wrap;html=1;backgroundOutline=1;darkOpacity=0.05;fillColor=#fff2cc;strokeColor=#d6b656;" parent="1" vertex="1">
          <mxGeometry x="1550" y="1270" width="80" height="100" as="geometry" />
        </mxCell>
        <mxCell id="9aB0R8qvESyYUEG60j1E-129" style="edgeStyle=orthogonalEdgeStyle;rounded=0;orthogonalLoop=1;jettySize=auto;html=1;exitX=0.25;exitY=1;exitDx=0;exitDy=0;entryX=0.5;entryY=0;entryDx=0;entryDy=0;endArrow=classicThin;endFill=1;strokeColor=#CC0000;strokeWidth=3;dashed=1;" parent="1" source="9aB0R8qvESyYUEG60j1E-21" target="9aB0R8qvESyYUEG60j1E-115" edge="1">
          <mxGeometry relative="1" as="geometry">
            <Array as="points">
              <mxPoint x="2280" y="755" />
              <mxPoint x="2220" y="755" />
            </Array>
          </mxGeometry>
        </mxCell>
        <mxCell id="9aB0R8qvESyYUEG60j1E-130" style="edgeStyle=orthogonalEdgeStyle;rounded=0;orthogonalLoop=1;jettySize=auto;html=1;entryX=0;entryY=0.5;entryDx=0;entryDy=0;endArrow=classicThin;endFill=1;strokeColor=#0000FF;strokeWidth=3;" parent="1" source="9aB0R8qvESyYUEG60j1E-21" target="9aB0R8qvESyYUEG60j1E-79" edge="1">
          <mxGeometry relative="1" as="geometry">
            <mxPoint x="2405" y="811" as="targetPoint" />
          </mxGeometry>
        </mxCell>
        <mxCell id="9aB0R8qvESyYUEG60j1E-21" value="penetration&lt;br&gt;testing" style="shape=process;whiteSpace=wrap;html=1;backgroundOutline=1;" parent="1" vertex="1">
          <mxGeometry x="2250" y="669.5" width="120" height="60" as="geometry" />
        </mxCell>
        <mxCell id="9aB0R8qvESyYUEG60j1E-156" style="edgeStyle=orthogonalEdgeStyle;rounded=0;orthogonalLoop=1;jettySize=auto;html=1;exitX=0.25;exitY=1;exitDx=0;exitDy=0;entryX=0.5;entryY=0;entryDx=0;entryDy=0;endArrow=classicThin;endFill=1;strokeColor=#CC0000;strokeWidth=3;dashed=1;" parent="1" source="9aB0R8qvESyYUEG60j1E-22" target="9aB0R8qvESyYUEG60j1E-155" edge="1">
          <mxGeometry relative="1" as="geometry" />
        </mxCell>
        <mxCell id="9aB0R8qvESyYUEG60j1E-22" value="cybersecurity&lt;br&gt;monitoring" style="shape=process;whiteSpace=wrap;html=1;backgroundOutline=1;" parent="1" vertex="1">
          <mxGeometry x="2890" y="774.5" width="120" height="60" as="geometry" />
        </mxCell>
        <mxCell id="9aB0R8qvESyYUEG60j1E-89" style="edgeStyle=orthogonalEdgeStyle;rounded=0;orthogonalLoop=1;jettySize=auto;html=1;entryX=0;entryY=0.5;entryDx=0;entryDy=0;endArrow=classicThin;endFill=1;strokeColor=#0000FF;strokeWidth=3;" parent="1" source="9aB0R8qvESyYUEG60j1E-42" target="9aB0R8qvESyYUEG60j1E-77" edge="1">
          <mxGeometry relative="1" as="geometry" />
        </mxCell>
        <mxCell id="9aB0R8qvESyYUEG60j1E-42" value="attack&lt;br&gt;surface&lt;br&gt;analysis" style="shape=process;whiteSpace=wrap;html=1;backgroundOutline=1;" parent="1" vertex="1">
          <mxGeometry x="1040" y="736" width="120" height="60" as="geometry" />
        </mxCell>
        <mxCell id="9aB0R8qvESyYUEG60j1E-54" style="edgeStyle=orthogonalEdgeStyle;rounded=0;orthogonalLoop=1;jettySize=auto;html=1;entryX=0;entryY=0.5;entryDx=0;entryDy=0;entryPerimeter=0;endArrow=classicThin;endFill=1;strokeColor=#0000FF;strokeWidth=3;startArrow=none;" parent="1" source="9aB0R8qvESyYUEG60j1E-86" target="9aB0R8qvESyYUEG60j1E-4" edge="1">
          <mxGeometry relative="1" as="geometry" />
        </mxCell>
        <mxCell id="9aB0R8qvESyYUEG60j1E-53" value="cybersecurity&lt;br&gt;requirements&lt;br&gt;taxonomy" style="shape=note;whiteSpace=wrap;html=1;backgroundOutline=1;darkOpacity=0.05;fillColor=#fff2cc;strokeColor=#000000;" parent="1" vertex="1">
          <mxGeometry x="-560" y="941" width="80" height="100" as="geometry" />
        </mxCell>
        <mxCell id="9aB0R8qvESyYUEG60j1E-58" value="" style="group" parent="1" vertex="1" connectable="0">
          <mxGeometry x="1685" y="1275" width="140" height="90" as="geometry" />
        </mxCell>
        <mxCell id="9aB0R8qvESyYUEG60j1E-57" value="" style="rounded=0;whiteSpace=wrap;html=1;fillColor=none;strokeColor=none;" parent="9aB0R8qvESyYUEG60j1E-58" vertex="1">
          <mxGeometry x="5" y="5" width="130" height="80" as="geometry" />
        </mxCell>
        <mxCell id="9aB0R8qvESyYUEG60j1E-20" value="&lt;span style=&quot;color: rgb(0, 0, 0); font-family: Helvetica; font-size: 12px; font-style: normal; font-variant-ligatures: normal; font-variant-caps: normal; font-weight: 400; letter-spacing: normal; orphans: 2; text-align: center; text-indent: 0px; text-transform: none; widows: 2; word-spacing: 0px; -webkit-text-stroke-width: 0px; text-decoration-thickness: initial; text-decoration-style: initial; text-decoration-color: initial; float: none; display: inline !important;&quot;&gt;task / issue&lt;/span&gt;&lt;br style=&quot;color: rgb(0, 0, 0); font-family: Helvetica; font-size: 12px; font-style: normal; font-variant-ligatures: normal; font-variant-caps: normal; font-weight: 400; letter-spacing: normal; orphans: 2; text-align: center; text-indent: 0px; text-transform: none; widows: 2; word-spacing: 0px; -webkit-text-stroke-width: 0px; text-decoration-thickness: initial; text-decoration-style: initial; text-decoration-color: initial;&quot;&gt;&lt;span style=&quot;color: rgb(0, 0, 0); font-family: Helvetica; font-size: 12px; font-style: normal; font-variant-ligatures: normal; font-variant-caps: normal; font-weight: 400; letter-spacing: normal; orphans: 2; text-align: center; text-indent: 0px; text-transform: none; widows: 2; word-spacing: 0px; -webkit-text-stroke-width: 0px; text-decoration-thickness: initial; text-decoration-style: initial; text-decoration-color: initial; float: none; display: inline !important;&quot;&gt;tracking&lt;/span&gt;&lt;br style=&quot;color: rgb(0, 0, 0); font-family: Helvetica; font-size: 12px; font-style: normal; font-variant-ligatures: normal; font-variant-caps: normal; font-weight: 400; letter-spacing: normal; orphans: 2; text-align: center; text-indent: 0px; text-transform: none; widows: 2; word-spacing: 0px; -webkit-text-stroke-width: 0px; text-decoration-thickness: initial; text-decoration-style: initial; text-decoration-color: initial;&quot;&gt;&lt;span style=&quot;color: rgb(0, 0, 0); font-family: Helvetica; font-size: 12px; font-style: normal; font-variant-ligatures: normal; font-variant-caps: normal; font-weight: 400; letter-spacing: normal; orphans: 2; text-align: center; text-indent: 0px; text-transform: none; widows: 2; word-spacing: 0px; -webkit-text-stroke-width: 0px; text-decoration-thickness: initial; text-decoration-style: initial; text-decoration-color: initial; float: none; display: inline !important;&quot;&gt;system&lt;/span&gt;" style="ellipse;shape=cloud;whiteSpace=wrap;html=1;fillColor=#D5E8D4;" parent="9aB0R8qvESyYUEG60j1E-58" vertex="1">
          <mxGeometry width="140" height="90" as="geometry" />
        </mxCell>
        <mxCell id="9aB0R8qvESyYUEG60j1E-70" style="edgeStyle=orthogonalEdgeStyle;rounded=0;orthogonalLoop=1;jettySize=auto;html=1;entryX=0.5;entryY=0;entryDx=0;entryDy=0;endArrow=classicThin;endFill=1;strokeColor=#CC0000;strokeWidth=3;dashed=1;exitX=0.25;exitY=1;exitDx=0;exitDy=0;" parent="1" source="9aB0R8qvESyYUEG60j1E-63" target="9aB0R8qvESyYUEG60j1E-57" edge="1">
          <mxGeometry relative="1" as="geometry">
            <Array as="points">
              <mxPoint x="750" y="1200" />
              <mxPoint x="1755" y="1200" />
            </Array>
          </mxGeometry>
        </mxCell>
        <mxCell id="9aB0R8qvESyYUEG60j1E-73" style="edgeStyle=orthogonalEdgeStyle;rounded=0;orthogonalLoop=1;jettySize=auto;html=1;entryX=0;entryY=0.5;entryDx=0;entryDy=0;entryPerimeter=0;endArrow=classicThin;endFill=1;strokeColor=#0000FF;strokeWidth=3;" parent="1" source="9aB0R8qvESyYUEG60j1E-63" target="9aB0R8qvESyYUEG60j1E-71" edge="1">
          <mxGeometry relative="1" as="geometry" />
        </mxCell>
        <mxCell id="9aB0R8qvESyYUEG60j1E-63" value="element&lt;br&gt;design&lt;br&gt;review" style="shape=process;whiteSpace=wrap;html=1;backgroundOutline=1;" parent="1" vertex="1">
          <mxGeometry x="720" y="786" width="120" height="60" as="geometry" />
        </mxCell>
        <mxCell id="9aB0R8qvESyYUEG60j1E-67" style="edgeStyle=orthogonalEdgeStyle;rounded=0;orthogonalLoop=1;jettySize=auto;html=1;entryX=0;entryY=0.75;entryDx=0;entryDy=0;endArrow=classicThin;endFill=1;strokeColor=#0000FF;strokeWidth=3;startArrow=none;" parent="1" source="9aB0R8qvESyYUEG60j1E-76" target="9aB0R8qvESyYUEG60j1E-63" edge="1">
          <mxGeometry relative="1" as="geometry" />
        </mxCell>
        <mxCell id="9aB0R8qvESyYUEG60j1E-64" value="element&lt;br&gt;functional&lt;br&gt;requirements&lt;br&gt;&lt;br&gt;&lt;br&gt;" style="shape=note;whiteSpace=wrap;html=1;backgroundOutline=1;darkOpacity=0.05;fillColor=#d5e8d4;strokeColor=#000000;" parent="1" vertex="1">
          <mxGeometry x="320" y="781" width="80" height="100" as="geometry" />
        </mxCell>
        <mxCell id="9aB0R8qvESyYUEG60j1E-66" value="cybersecurity&lt;br&gt;dependencies" style="rounded=0;whiteSpace=wrap;html=1;fillColor=#fff2cc;strokeColor=#000000;" parent="1" vertex="1">
          <mxGeometry x="320" y="841" width="80" height="40" as="geometry" />
        </mxCell>
        <mxCell id="9aB0R8qvESyYUEG60j1E-74" style="edgeStyle=orthogonalEdgeStyle;rounded=0;orthogonalLoop=1;jettySize=auto;html=1;entryX=0;entryY=0.5;entryDx=0;entryDy=0;endArrow=classicThin;endFill=1;strokeColor=#FF8000;strokeWidth=3;" parent="1" source="9aB0R8qvESyYUEG60j1E-71" target="9aB0R8qvESyYUEG60j1E-42" edge="1">
          <mxGeometry relative="1" as="geometry">
            <Array as="points">
              <mxPoint x="990" y="816" />
              <mxPoint x="990" y="766" />
            </Array>
          </mxGeometry>
        </mxCell>
        <mxCell id="9aB0R8qvESyYUEG60j1E-75" style="edgeStyle=orthogonalEdgeStyle;rounded=0;orthogonalLoop=1;jettySize=auto;html=1;entryX=0;entryY=0.5;entryDx=0;entryDy=0;endArrow=classicThin;endFill=1;strokeColor=#FF8000;strokeWidth=3;" parent="1" source="9aB0R8qvESyYUEG60j1E-71" target="9aB0R8qvESyYUEG60j1E-9" edge="1">
          <mxGeometry relative="1" as="geometry">
            <Array as="points">
              <mxPoint x="990" y="816" />
              <mxPoint x="990" y="866" />
            </Array>
          </mxGeometry>
        </mxCell>
        <mxCell id="9aB0R8qvESyYUEG60j1E-71" value="reviewed&lt;br&gt;element&lt;br&gt;design" style="shape=note;whiteSpace=wrap;html=1;backgroundOutline=1;darkOpacity=0.05;fillColor=#d5e8d4;strokeColor=#000000;" parent="1" vertex="1">
          <mxGeometry x="875" y="766" width="80" height="100" as="geometry" />
        </mxCell>
        <mxCell id="9aB0R8qvESyYUEG60j1E-91" style="edgeStyle=orthogonalEdgeStyle;rounded=0;orthogonalLoop=1;jettySize=auto;html=1;entryX=0.5;entryY=0;entryDx=0;entryDy=0;endArrow=classicThin;endFill=1;strokeColor=#CC0000;strokeWidth=3;dashed=1;exitX=0.5;exitY=1;exitDx=0;exitDy=0;" parent="1" source="9aB0R8qvESyYUEG60j1E-77" target="9aB0R8qvESyYUEG60j1E-57" edge="1">
          <mxGeometry relative="1" as="geometry">
            <Array as="points">
              <mxPoint x="1280" y="1200" />
              <mxPoint x="1755" y="1200" />
            </Array>
          </mxGeometry>
        </mxCell>
        <mxCell id="9aB0R8qvESyYUEG60j1E-93" style="edgeStyle=orthogonalEdgeStyle;rounded=0;orthogonalLoop=1;jettySize=auto;html=1;entryX=0;entryY=0.75;entryDx=0;entryDy=0;endArrow=classicThin;endFill=1;strokeColor=#0000FF;strokeWidth=3;" parent="1" source="9aB0R8qvESyYUEG60j1E-77" target="9aB0R8qvESyYUEG60j1E-14" edge="1">
          <mxGeometry relative="1" as="geometry">
            <Array as="points">
              <mxPoint x="1680" y="816" />
              <mxPoint x="1680" y="885" />
            </Array>
          </mxGeometry>
        </mxCell>
        <mxCell id="9aB0R8qvESyYUEG60j1E-94" style="edgeStyle=orthogonalEdgeStyle;rounded=0;orthogonalLoop=1;jettySize=auto;html=1;entryX=0;entryY=0.75;entryDx=0;entryDy=0;endArrow=classicThin;endFill=1;strokeColor=#0000FF;strokeWidth=3;" parent="1" source="9aB0R8qvESyYUEG60j1E-77" target="9aB0R8qvESyYUEG60j1E-16" edge="1">
          <mxGeometry relative="1" as="geometry">
            <Array as="points">
              <mxPoint x="1680" y="816" />
              <mxPoint x="1680" y="985" />
            </Array>
          </mxGeometry>
        </mxCell>
        <mxCell id="9aB0R8qvESyYUEG60j1E-95" style="edgeStyle=orthogonalEdgeStyle;rounded=0;orthogonalLoop=1;jettySize=auto;html=1;entryX=0;entryY=0.75;entryDx=0;entryDy=0;endArrow=classicThin;endFill=1;strokeColor=#0000FF;strokeWidth=3;" parent="1" source="9aB0R8qvESyYUEG60j1E-77" target="9aB0R8qvESyYUEG60j1E-13" edge="1">
          <mxGeometry relative="1" as="geometry">
            <Array as="points">
              <mxPoint x="1680" y="816" />
              <mxPoint x="1680" y="785" />
            </Array>
          </mxGeometry>
        </mxCell>
        <mxCell id="9aB0R8qvESyYUEG60j1E-96" style="edgeStyle=orthogonalEdgeStyle;rounded=0;orthogonalLoop=1;jettySize=auto;html=1;entryX=0;entryY=0.75;entryDx=0;entryDy=0;endArrow=classicThin;endFill=1;strokeColor=#0000FF;strokeWidth=3;" parent="1" source="9aB0R8qvESyYUEG60j1E-77" target="9aB0R8qvESyYUEG60j1E-15" edge="1">
          <mxGeometry relative="1" as="geometry">
            <Array as="points">
              <mxPoint x="1680" y="816" />
              <mxPoint x="1680" y="685" />
            </Array>
          </mxGeometry>
        </mxCell>
        <mxCell id="9aB0R8qvESyYUEG60j1E-136" style="edgeStyle=orthogonalEdgeStyle;rounded=0;orthogonalLoop=1;jettySize=auto;html=1;exitX=1;exitY=0.5;exitDx=0;exitDy=0;entryX=0;entryY=0.5;entryDx=0;entryDy=0;endArrow=classicThin;endFill=1;strokeColor=#FF8000;strokeWidth=3;" parent="1" source="9aB0R8qvESyYUEG60j1E-77" target="9aB0R8qvESyYUEG60j1E-134" edge="1">
          <mxGeometry relative="1" as="geometry" />
        </mxCell>
        <mxCell id="9aB0R8qvESyYUEG60j1E-77" value="design&lt;br&gt;gate" style="rhombus;whiteSpace=wrap;html=1;fillColor=default;" parent="1" vertex="1">
          <mxGeometry x="1225" y="776" width="110" height="80" as="geometry" />
        </mxCell>
        <mxCell id="9aB0R8qvESyYUEG60j1E-127" style="edgeStyle=orthogonalEdgeStyle;rounded=0;orthogonalLoop=1;jettySize=auto;html=1;endArrow=classicThin;endFill=1;strokeColor=#0000FF;strokeWidth=3;entryX=0;entryY=0.75;entryDx=0;entryDy=0;" parent="1" source="9aB0R8qvESyYUEG60j1E-78" target="9aB0R8qvESyYUEG60j1E-21" edge="1">
          <mxGeometry relative="1" as="geometry">
            <Array as="points">
              <mxPoint x="2200" y="820" />
              <mxPoint x="2200" y="714" />
            </Array>
          </mxGeometry>
        </mxCell>
        <mxCell id="9aB0R8qvESyYUEG60j1E-137" style="edgeStyle=orthogonalEdgeStyle;rounded=0;orthogonalLoop=1;jettySize=auto;html=1;endArrow=classicThin;endFill=1;strokeColor=#CC0000;strokeWidth=3;entryX=0.5;entryY=0;entryDx=0;entryDy=0;dashed=1;" parent="1" source="9aB0R8qvESyYUEG60j1E-78" target="9aB0R8qvESyYUEG60j1E-57" edge="1">
          <mxGeometry relative="1" as="geometry">
            <mxPoint x="1985" y="1180" as="targetPoint" />
            <Array as="points">
              <mxPoint x="1975" y="1200" />
              <mxPoint x="1755" y="1200" />
            </Array>
          </mxGeometry>
        </mxCell>
        <mxCell id="9aB0R8qvESyYUEG60j1E-144" style="edgeStyle=orthogonalEdgeStyle;rounded=0;orthogonalLoop=1;jettySize=auto;html=1;entryX=0;entryY=0.75;entryDx=0;entryDy=0;endArrow=classicThin;endFill=1;strokeColor=#0000FF;strokeWidth=3;" parent="1" source="9aB0R8qvESyYUEG60j1E-78" target="9aB0R8qvESyYUEG60j1E-140" edge="1">
          <mxGeometry relative="1" as="geometry" />
        </mxCell>
        <mxCell id="9aB0R8qvESyYUEG60j1E-145" style="edgeStyle=orthogonalEdgeStyle;rounded=0;orthogonalLoop=1;jettySize=auto;html=1;entryX=0;entryY=0.75;entryDx=0;entryDy=0;endArrow=classicThin;endFill=1;strokeColor=#0000FF;strokeWidth=3;" parent="1" source="9aB0R8qvESyYUEG60j1E-78" target="9aB0R8qvESyYUEG60j1E-141" edge="1">
          <mxGeometry relative="1" as="geometry">
            <Array as="points">
              <mxPoint x="2200" y="820" />
              <mxPoint x="2200" y="920" />
            </Array>
          </mxGeometry>
        </mxCell>
        <mxCell id="9aB0R8qvESyYUEG60j1E-78" value="implementation&lt;br&gt;gate" style="rhombus;whiteSpace=wrap;html=1;fillColor=default;" parent="1" vertex="1">
          <mxGeometry x="1920" y="780" width="110" height="80" as="geometry" />
        </mxCell>
        <mxCell id="9aB0R8qvESyYUEG60j1E-132" style="edgeStyle=orthogonalEdgeStyle;rounded=0;orthogonalLoop=1;jettySize=auto;html=1;exitX=1;exitY=0.5;exitDx=0;exitDy=0;entryX=0;entryY=0.5;entryDx=0;entryDy=0;endArrow=classicThin;endFill=1;strokeColor=#0000FF;strokeWidth=3;" parent="1" source="9aB0R8qvESyYUEG60j1E-79" target="9aB0R8qvESyYUEG60j1E-131" edge="1">
          <mxGeometry relative="1" as="geometry" />
        </mxCell>
        <mxCell id="9aB0R8qvESyYUEG60j1E-150" style="edgeStyle=orthogonalEdgeStyle;rounded=0;orthogonalLoop=1;jettySize=auto;html=1;entryX=0.5;entryY=0;entryDx=0;entryDy=0;endArrow=classicThin;endFill=1;strokeColor=#CC0000;strokeWidth=3;dashed=1;" parent="1" source="9aB0R8qvESyYUEG60j1E-79" target="9aB0R8qvESyYUEG60j1E-57" edge="1">
          <mxGeometry relative="1" as="geometry">
            <Array as="points">
              <mxPoint x="2485" y="1200" />
              <mxPoint x="1755" y="1200" />
            </Array>
          </mxGeometry>
        </mxCell>
        <mxCell id="9aB0R8qvESyYUEG60j1E-79" value="verification&lt;br&gt;gate" style="rhombus;whiteSpace=wrap;html=1;fillColor=default;" parent="1" vertex="1">
          <mxGeometry x="2430" y="764.5" width="110" height="80" as="geometry" />
        </mxCell>
        <mxCell id="9aB0R8qvESyYUEG60j1E-151" style="edgeStyle=orthogonalEdgeStyle;rounded=0;orthogonalLoop=1;jettySize=auto;html=1;entryX=0.5;entryY=0;entryDx=0;entryDy=0;dashed=1;endArrow=classicThin;endFill=1;strokeColor=#CC0000;strokeWidth=3;" parent="1" source="9aB0R8qvESyYUEG60j1E-80" target="9aB0R8qvESyYUEG60j1E-57" edge="1">
          <mxGeometry relative="1" as="geometry">
            <Array as="points">
              <mxPoint x="2795" y="1200" />
              <mxPoint x="1755" y="1200" />
            </Array>
          </mxGeometry>
        </mxCell>
        <mxCell id="9aB0R8qvESyYUEG60j1E-153" style="edgeStyle=orthogonalEdgeStyle;rounded=0;orthogonalLoop=1;jettySize=auto;html=1;exitX=1;exitY=0.5;exitDx=0;exitDy=0;entryX=0;entryY=0.5;entryDx=0;entryDy=0;endArrow=classicThin;endFill=1;strokeColor=#0000FF;strokeWidth=3;" parent="1" source="9aB0R8qvESyYUEG60j1E-80" target="9aB0R8qvESyYUEG60j1E-22" edge="1">
          <mxGeometry relative="1" as="geometry" />
        </mxCell>
        <mxCell id="9aB0R8qvESyYUEG60j1E-80" value="release&lt;br&gt;gate" style="rhombus;whiteSpace=wrap;html=1;fillColor=default;" parent="1" vertex="1">
          <mxGeometry x="2740" y="764.5" width="110" height="80" as="geometry" />
        </mxCell>
        <mxCell id="9aB0R8qvESyYUEG60j1E-76" value="requirements&lt;br&gt;gate" style="rhombus;whiteSpace=wrap;html=1;fillColor=default;" parent="1" vertex="1">
          <mxGeometry x="450" y="791" width="110" height="80" as="geometry" />
        </mxCell>
        <mxCell id="9aB0R8qvESyYUEG60j1E-81" value="" style="edgeStyle=orthogonalEdgeStyle;rounded=0;orthogonalLoop=1;jettySize=auto;html=1;entryX=0;entryY=0.5;entryDx=0;entryDy=0;entryPerimeter=0;endArrow=classicThin;endFill=1;strokeColor=#FF8000;strokeWidth=3;" parent="1" source="9aB0R8qvESyYUEG60j1E-64" target="9aB0R8qvESyYUEG60j1E-76" edge="1">
          <mxGeometry relative="1" as="geometry">
            <mxPoint x="400" y="831" as="sourcePoint" />
            <mxPoint x="620" y="831" as="targetPoint" />
          </mxGeometry>
        </mxCell>
        <mxCell id="9aB0R8qvESyYUEG60j1E-82" style="edgeStyle=orthogonalEdgeStyle;rounded=0;orthogonalLoop=1;jettySize=auto;html=1;entryX=0.5;entryY=0;entryDx=0;entryDy=0;endArrow=classicThin;endFill=1;strokeColor=#CC0000;strokeWidth=3;dashed=1;exitX=0.5;exitY=1;exitDx=0;exitDy=0;" parent="1" source="9aB0R8qvESyYUEG60j1E-76" target="9aB0R8qvESyYUEG60j1E-57" edge="1">
          <mxGeometry relative="1" as="geometry">
            <mxPoint x="750" y="871" as="sourcePoint" />
            <mxPoint x="230" y="871" as="targetPoint" />
            <Array as="points">
              <mxPoint x="505" y="1200" />
              <mxPoint x="1755" y="1200" />
            </Array>
          </mxGeometry>
        </mxCell>
        <mxCell id="9aB0R8qvESyYUEG60j1E-88" style="edgeStyle=orthogonalEdgeStyle;rounded=0;orthogonalLoop=1;jettySize=auto;html=1;exitX=0.25;exitY=1;exitDx=0;exitDy=0;entryX=0.5;entryY=1;entryDx=0;entryDy=0;dashed=1;endArrow=classicThin;endFill=1;strokeColor=#CC0000;strokeWidth=3;" parent="1" source="9aB0R8qvESyYUEG60j1E-84" target="9aB0R8qvESyYUEG60j1E-86" edge="1">
          <mxGeometry relative="1" as="geometry">
            <Array as="points">
              <mxPoint x="-110" y="1061" />
              <mxPoint x="-380" y="1061" />
            </Array>
          </mxGeometry>
        </mxCell>
        <mxCell id="wjJPjudO2dNIYp9lCnby-3" style="edgeStyle=orthogonalEdgeStyle;rounded=0;orthogonalLoop=1;jettySize=auto;html=1;entryX=-0.031;entryY=0.497;entryDx=0;entryDy=0;entryPerimeter=0;endArrow=classicThin;endFill=1;strokeColor=#0000FF;strokeWidth=3;" parent="1" source="9aB0R8qvESyYUEG60j1E-84" target="9aB0R8qvESyYUEG60j1E-5" edge="1">
          <mxGeometry relative="1" as="geometry">
            <Array as="points">
              <mxPoint x="-5" y="910" />
            </Array>
          </mxGeometry>
        </mxCell>
        <mxCell id="9aB0R8qvESyYUEG60j1E-84" value="derive&lt;br&gt;element-level&lt;br&gt;cybersecurity&lt;br&gt;requirements" style="shape=process;whiteSpace=wrap;html=1;backgroundOutline=1;" parent="1" vertex="1">
          <mxGeometry x="-140" y="880" width="120" height="60" as="geometry" />
        </mxCell>
        <mxCell id="9aB0R8qvESyYUEG60j1E-85" value="" style="edgeStyle=orthogonalEdgeStyle;rounded=0;orthogonalLoop=1;jettySize=auto;html=1;endArrow=classicThin;endFill=1;strokeColor=#0000FF;strokeWidth=3;entryX=0;entryY=0.75;entryDx=0;entryDy=0;" parent="1" source="9aB0R8qvESyYUEG60j1E-4" target="9aB0R8qvESyYUEG60j1E-84" edge="1">
          <mxGeometry relative="1" as="geometry">
            <mxPoint x="-200" y="991" as="sourcePoint" />
            <mxPoint x="-160" y="991" as="targetPoint" />
            <Array as="points">
              <mxPoint x="-170" y="991" />
              <mxPoint x="-170" y="925" />
            </Array>
          </mxGeometry>
        </mxCell>
        <mxCell id="9aB0R8qvESyYUEG60j1E-86" value="derive&lt;br&gt;global&lt;br&gt;cybersecurity&lt;br&gt;requirements" style="shape=process;whiteSpace=wrap;html=1;backgroundOutline=1;" parent="1" vertex="1">
          <mxGeometry x="-440" y="961" width="120" height="60" as="geometry" />
        </mxCell>
        <mxCell id="9aB0R8qvESyYUEG60j1E-87" value="" style="edgeStyle=orthogonalEdgeStyle;rounded=0;orthogonalLoop=1;jettySize=auto;html=1;entryX=0;entryY=0.5;entryDx=0;entryDy=0;entryPerimeter=0;endArrow=classicThin;endFill=1;strokeColor=#0000FF;strokeWidth=3;" parent="1" source="9aB0R8qvESyYUEG60j1E-53" target="9aB0R8qvESyYUEG60j1E-86" edge="1">
          <mxGeometry relative="1" as="geometry">
            <mxPoint x="-480" y="991" as="sourcePoint" />
            <mxPoint x="-280" y="991" as="targetPoint" />
          </mxGeometry>
        </mxCell>
        <mxCell id="9aB0R8qvESyYUEG60j1E-98" style="edgeStyle=orthogonalEdgeStyle;rounded=0;orthogonalLoop=1;jettySize=auto;html=1;entryX=0;entryY=0.25;entryDx=0;entryDy=0;endArrow=classicThin;endFill=1;strokeColor=#FF8000;strokeWidth=3;" parent="1" source="9aB0R8qvESyYUEG60j1E-92" target="9aB0R8qvESyYUEG60j1E-15" edge="1">
          <mxGeometry relative="1" as="geometry">
            <Array as="points">
              <mxPoint x="1660" y="686" />
              <mxPoint x="1660" y="655" />
            </Array>
          </mxGeometry>
        </mxCell>
        <mxCell id="9aB0R8qvESyYUEG60j1E-99" style="edgeStyle=orthogonalEdgeStyle;rounded=0;orthogonalLoop=1;jettySize=auto;html=1;entryX=0;entryY=0.25;entryDx=0;entryDy=0;endArrow=classicThin;endFill=1;strokeColor=#FF8000;strokeWidth=3;" parent="1" source="9aB0R8qvESyYUEG60j1E-92" target="9aB0R8qvESyYUEG60j1E-13" edge="1">
          <mxGeometry relative="1" as="geometry">
            <Array as="points">
              <mxPoint x="1660" y="686" />
              <mxPoint x="1660" y="755" />
            </Array>
          </mxGeometry>
        </mxCell>
        <mxCell id="9aB0R8qvESyYUEG60j1E-100" style="edgeStyle=orthogonalEdgeStyle;rounded=0;orthogonalLoop=1;jettySize=auto;html=1;entryX=0;entryY=0.25;entryDx=0;entryDy=0;endArrow=classicThin;endFill=1;strokeColor=#FF8000;strokeWidth=3;" parent="1" source="9aB0R8qvESyYUEG60j1E-92" target="9aB0R8qvESyYUEG60j1E-14" edge="1">
          <mxGeometry relative="1" as="geometry">
            <Array as="points">
              <mxPoint x="1660" y="686" />
              <mxPoint x="1660" y="855" />
            </Array>
          </mxGeometry>
        </mxCell>
        <mxCell id="9aB0R8qvESyYUEG60j1E-101" style="edgeStyle=orthogonalEdgeStyle;rounded=0;orthogonalLoop=1;jettySize=auto;html=1;entryX=0;entryY=0.25;entryDx=0;entryDy=0;endArrow=classicThin;endFill=1;strokeColor=#FF8000;strokeWidth=3;" parent="1" source="9aB0R8qvESyYUEG60j1E-92" target="9aB0R8qvESyYUEG60j1E-16" edge="1">
          <mxGeometry relative="1" as="geometry">
            <Array as="points">
              <mxPoint x="1660" y="686" />
              <mxPoint x="1660" y="955" />
            </Array>
          </mxGeometry>
        </mxCell>
        <mxCell id="9aB0R8qvESyYUEG60j1E-92" value="implemented&lt;br&gt;element" style="shape=note;whiteSpace=wrap;html=1;backgroundOutline=1;darkOpacity=0.05;fillColor=#d5e8d4;strokeColor=#000000;" parent="1" vertex="1">
          <mxGeometry x="1550" y="636" width="80" height="100" as="geometry" />
        </mxCell>
        <mxCell id="9aB0R8qvESyYUEG60j1E-109" style="edgeStyle=orthogonalEdgeStyle;rounded=0;orthogonalLoop=1;jettySize=auto;html=1;entryX=0.5;entryY=1;entryDx=0;entryDy=0;endArrow=classicThin;endFill=1;strokeColor=#CC0000;strokeWidth=3;dashed=1;" parent="1" source="9aB0R8qvESyYUEG60j1E-108" target="9aB0R8qvESyYUEG60j1E-7" edge="1">
          <mxGeometry relative="1" as="geometry" />
        </mxCell>
        <mxCell id="9aB0R8qvESyYUEG60j1E-108" value="&lt;b&gt;from&lt;br&gt;issue&lt;br&gt;tracking&lt;/b&gt;" style="ellipse;whiteSpace=wrap;html=1;aspect=fixed;fillColor=#bac8d3;strokeColor=#23445d;" parent="1" vertex="1">
          <mxGeometry x="220" y="961" width="60" height="60" as="geometry" />
        </mxCell>
        <mxCell id="9aB0R8qvESyYUEG60j1E-111" style="edgeStyle=orthogonalEdgeStyle;rounded=0;orthogonalLoop=1;jettySize=auto;html=1;entryX=0.5;entryY=1;entryDx=0;entryDy=0;dashed=1;endArrow=classicThin;endFill=1;strokeColor=#CC0000;strokeWidth=3;" parent="1" source="9aB0R8qvESyYUEG60j1E-110" target="9aB0R8qvESyYUEG60j1E-63" edge="1">
          <mxGeometry relative="1" as="geometry" />
        </mxCell>
        <mxCell id="9aB0R8qvESyYUEG60j1E-110" value="&lt;b&gt;from&lt;br&gt;issue&lt;br&gt;tracking&lt;/b&gt;" style="ellipse;whiteSpace=wrap;html=1;aspect=fixed;fillColor=#bac8d3;strokeColor=#23445d;" parent="1" vertex="1">
          <mxGeometry x="780" y="961" width="60" height="60" as="geometry" />
        </mxCell>
        <mxCell id="9aB0R8qvESyYUEG60j1E-112" value="&lt;b&gt;to&lt;br&gt;TPP&lt;br&gt;&lt;/b&gt;" style="ellipse;whiteSpace=wrap;html=1;aspect=fixed;fillColor=#bac8d3;strokeColor=#23445d;" parent="1" vertex="1">
          <mxGeometry x="980" y="970" width="60" height="60" as="geometry" />
        </mxCell>
        <mxCell id="9aB0R8qvESyYUEG60j1E-114" style="edgeStyle=orthogonalEdgeStyle;rounded=0;orthogonalLoop=1;jettySize=auto;html=1;entryX=0;entryY=0.5;entryDx=0;entryDy=0;entryPerimeter=0;endArrow=classicThin;endFill=1;strokeColor=#0000FF;strokeWidth=3;" parent="1" source="9aB0R8qvESyYUEG60j1E-113" target="9aB0R8qvESyYUEG60j1E-18" edge="1">
          <mxGeometry relative="1" as="geometry" />
        </mxCell>
        <mxCell id="9aB0R8qvESyYUEG60j1E-113" value="&lt;b&gt;TPP&lt;br&gt;&lt;/b&gt;" style="ellipse;whiteSpace=wrap;html=1;aspect=fixed;fillColor=#bac8d3;strokeColor=#23445d;" parent="1" vertex="1">
          <mxGeometry x="1120" y="1290" width="60" height="60" as="geometry" />
        </mxCell>
        <mxCell id="9aB0R8qvESyYUEG60j1E-115" value="&lt;b&gt;to&lt;br&gt;TPP&lt;br&gt;&lt;/b&gt;" style="ellipse;whiteSpace=wrap;html=1;aspect=fixed;fillColor=#bac8d3;strokeColor=#23445d;" parent="1" vertex="1">
          <mxGeometry x="2190" y="1004.5" width="60" height="60" as="geometry" />
        </mxCell>
        <mxCell id="9aB0R8qvESyYUEG60j1E-119" style="edgeStyle=orthogonalEdgeStyle;rounded=0;orthogonalLoop=1;jettySize=auto;html=1;exitX=0.25;exitY=1;exitDx=0;exitDy=0;entryX=0.5;entryY=0;entryDx=0;entryDy=0;endArrow=classicThin;endFill=1;strokeColor=#CC0000;strokeWidth=3;dashed=1;" parent="1" source="9aB0R8qvESyYUEG60j1E-42" target="9aB0R8qvESyYUEG60j1E-112" edge="1">
          <mxGeometry relative="1" as="geometry">
            <mxPoint x="1070" y="796" as="sourcePoint" />
            <mxPoint x="945.0000000000164" y="979.9999999999999" as="targetPoint" />
            <Array as="points">
              <mxPoint x="1070" y="820" />
              <mxPoint x="1010" y="820" />
            </Array>
          </mxGeometry>
        </mxCell>
        <mxCell id="9aB0R8qvESyYUEG60j1E-120" value="&lt;b&gt;to&lt;br&gt;TPP&lt;br&gt;&lt;/b&gt;" style="ellipse;whiteSpace=wrap;html=1;aspect=fixed;fillColor=#bac8d3;strokeColor=#23445d;" parent="1" vertex="1">
          <mxGeometry x="1670" y="1070" width="60" height="60" as="geometry" />
        </mxCell>
        <mxCell id="9aB0R8qvESyYUEG60j1E-128" style="edgeStyle=orthogonalEdgeStyle;rounded=0;orthogonalLoop=1;jettySize=auto;html=1;entryX=0;entryY=0.25;entryDx=0;entryDy=0;endArrow=classicThin;endFill=1;strokeColor=#FF8000;strokeWidth=3;" parent="1" source="9aB0R8qvESyYUEG60j1E-126" target="9aB0R8qvESyYUEG60j1E-21" edge="1">
          <mxGeometry relative="1" as="geometry">
            <Array as="points">
              <mxPoint x="2180" y="706" />
              <mxPoint x="2180" y="685" />
            </Array>
          </mxGeometry>
        </mxCell>
        <mxCell id="9aB0R8qvESyYUEG60j1E-146" style="edgeStyle=orthogonalEdgeStyle;rounded=0;orthogonalLoop=1;jettySize=auto;html=1;entryX=0;entryY=0.25;entryDx=0;entryDy=0;endArrow=classicThin;endFill=1;strokeColor=#FF8000;strokeWidth=3;" parent="1" source="9aB0R8qvESyYUEG60j1E-126" target="9aB0R8qvESyYUEG60j1E-140" edge="1">
          <mxGeometry relative="1" as="geometry">
            <Array as="points">
              <mxPoint x="2180" y="706" />
              <mxPoint x="2180" y="790" />
            </Array>
          </mxGeometry>
        </mxCell>
        <mxCell id="9aB0R8qvESyYUEG60j1E-147" style="edgeStyle=orthogonalEdgeStyle;rounded=0;orthogonalLoop=1;jettySize=auto;html=1;entryX=0;entryY=0.25;entryDx=0;entryDy=0;endArrow=classicThin;endFill=1;strokeColor=#FF8000;strokeWidth=3;" parent="1" source="9aB0R8qvESyYUEG60j1E-126" target="9aB0R8qvESyYUEG60j1E-141" edge="1">
          <mxGeometry relative="1" as="geometry">
            <Array as="points">
              <mxPoint x="2180" y="706" />
              <mxPoint x="2180" y="891" />
            </Array>
          </mxGeometry>
        </mxCell>
        <mxCell id="9aB0R8qvESyYUEG60j1E-126" value="implemented&lt;br&gt;system" style="shape=note;whiteSpace=wrap;html=1;backgroundOutline=1;darkOpacity=0.05;fillColor=#d5e8d4;strokeColor=#000000;" parent="1" vertex="1">
          <mxGeometry x="2070" y="656" width="80" height="100" as="geometry" />
        </mxCell>
        <mxCell id="9aB0R8qvESyYUEG60j1E-133" style="edgeStyle=orthogonalEdgeStyle;rounded=0;orthogonalLoop=1;jettySize=auto;html=1;exitX=1;exitY=0.5;exitDx=0;exitDy=0;entryX=0;entryY=0.5;entryDx=0;entryDy=0;endArrow=classicThin;endFill=1;strokeColor=#0000FF;strokeWidth=3;" parent="1" source="9aB0R8qvESyYUEG60j1E-131" target="9aB0R8qvESyYUEG60j1E-80" edge="1">
          <mxGeometry relative="1" as="geometry" />
        </mxCell>
        <mxCell id="9aB0R8qvESyYUEG60j1E-152" style="edgeStyle=orthogonalEdgeStyle;rounded=0;orthogonalLoop=1;jettySize=auto;html=1;exitX=0.25;exitY=1;exitDx=0;exitDy=0;entryX=0.5;entryY=0;entryDx=0;entryDy=0;dashed=1;endArrow=classicThin;endFill=1;strokeColor=#CC0000;strokeWidth=3;" parent="1" source="9aB0R8qvESyYUEG60j1E-131" target="9aB0R8qvESyYUEG60j1E-57" edge="1">
          <mxGeometry relative="1" as="geometry">
            <Array as="points">
              <mxPoint x="2610" y="1200" />
              <mxPoint x="1755" y="1200" />
            </Array>
          </mxGeometry>
        </mxCell>
        <mxCell id="9aB0R8qvESyYUEG60j1E-131" value="final&lt;br&gt;security&lt;br&gt;review" style="shape=process;whiteSpace=wrap;html=1;backgroundOutline=1;" parent="1" vertex="1">
          <mxGeometry x="2580" y="774.5" width="120" height="60" as="geometry" />
        </mxCell>
        <mxCell id="9aB0R8qvESyYUEG60j1E-135" style="edgeStyle=orthogonalEdgeStyle;rounded=0;orthogonalLoop=1;jettySize=auto;html=1;entryX=0;entryY=0.5;entryDx=0;entryDy=0;entryPerimeter=0;endArrow=classicThin;endFill=1;strokeColor=#FF8000;strokeWidth=3;" parent="1" source="9aB0R8qvESyYUEG60j1E-134" target="9aB0R8qvESyYUEG60j1E-92" edge="1">
          <mxGeometry relative="1" as="geometry" />
        </mxCell>
        <mxCell id="9aB0R8qvESyYUEG60j1E-134" value="element&lt;br&gt;implementation" style="shape=process;whiteSpace=wrap;html=1;backgroundOutline=1;" parent="1" vertex="1">
          <mxGeometry x="1390" y="656" width="120" height="60" as="geometry" />
        </mxCell>
        <mxCell id="9aB0R8qvESyYUEG60j1E-139" style="edgeStyle=orthogonalEdgeStyle;rounded=0;orthogonalLoop=1;jettySize=auto;html=1;entryX=0.5;entryY=1;entryDx=0;entryDy=0;dashed=1;endArrow=classicThin;endFill=1;strokeColor=#CC0000;strokeWidth=3;" parent="1" source="9aB0R8qvESyYUEG60j1E-138" target="9aB0R8qvESyYUEG60j1E-134" edge="1">
          <mxGeometry relative="1" as="geometry" />
        </mxCell>
        <mxCell id="9aB0R8qvESyYUEG60j1E-138" value="&lt;b&gt;from&lt;br&gt;issue&lt;br&gt;tracking&lt;/b&gt;" style="ellipse;whiteSpace=wrap;html=1;aspect=fixed;fillColor=#bac8d3;strokeColor=#23445d;" parent="1" vertex="1">
          <mxGeometry x="1420" y="881" width="60" height="60" as="geometry" />
        </mxCell>
        <mxCell id="9aB0R8qvESyYUEG60j1E-142" style="edgeStyle=orthogonalEdgeStyle;rounded=0;orthogonalLoop=1;jettySize=auto;html=1;exitX=0.25;exitY=1;exitDx=0;exitDy=0;dashed=1;endArrow=classicThin;endFill=1;strokeColor=#CC0000;strokeWidth=3;" parent="1" source="9aB0R8qvESyYUEG60j1E-140" target="9aB0R8qvESyYUEG60j1E-115" edge="1">
          <mxGeometry relative="1" as="geometry">
            <Array as="points">
              <mxPoint x="2280" y="855" />
              <mxPoint x="2220" y="855" />
            </Array>
          </mxGeometry>
        </mxCell>
        <mxCell id="9aB0R8qvESyYUEG60j1E-148" style="edgeStyle=orthogonalEdgeStyle;rounded=0;orthogonalLoop=1;jettySize=auto;html=1;entryX=0;entryY=0.5;entryDx=0;entryDy=0;endArrow=classicThin;endFill=1;strokeColor=#0000FF;strokeWidth=3;" parent="1" source="9aB0R8qvESyYUEG60j1E-140" target="9aB0R8qvESyYUEG60j1E-79" edge="1">
          <mxGeometry relative="1" as="geometry" />
        </mxCell>
        <mxCell id="9aB0R8qvESyYUEG60j1E-140" value="attack&lt;br&gt;surface&lt;br&gt;analysis&lt;br&gt;review" style="shape=process;whiteSpace=wrap;html=1;backgroundOutline=1;" parent="1" vertex="1">
          <mxGeometry x="2250" y="774.5" width="120" height="60" as="geometry" />
        </mxCell>
        <mxCell id="9aB0R8qvESyYUEG60j1E-143" style="edgeStyle=orthogonalEdgeStyle;rounded=0;orthogonalLoop=1;jettySize=auto;html=1;exitX=0.25;exitY=1;exitDx=0;exitDy=0;dashed=1;endArrow=classicThin;endFill=1;strokeColor=#CC0000;strokeWidth=3;entryX=0.5;entryY=0;entryDx=0;entryDy=0;" parent="1" source="9aB0R8qvESyYUEG60j1E-141" target="9aB0R8qvESyYUEG60j1E-115" edge="1">
          <mxGeometry relative="1" as="geometry">
            <mxPoint x="2280" y="1004.5" as="targetPoint" />
            <Array as="points">
              <mxPoint x="2280" y="960" />
              <mxPoint x="2220" y="960" />
            </Array>
          </mxGeometry>
        </mxCell>
        <mxCell id="9aB0R8qvESyYUEG60j1E-149" style="edgeStyle=orthogonalEdgeStyle;rounded=0;orthogonalLoop=1;jettySize=auto;html=1;entryX=0;entryY=0.5;entryDx=0;entryDy=0;endArrow=classicThin;endFill=1;strokeColor=#0000FF;strokeWidth=3;" parent="1" source="9aB0R8qvESyYUEG60j1E-141" target="9aB0R8qvESyYUEG60j1E-79" edge="1">
          <mxGeometry relative="1" as="geometry" />
        </mxCell>
        <mxCell id="9aB0R8qvESyYUEG60j1E-141" value="threat&lt;br&gt;modeling&lt;br&gt;review" style="shape=process;whiteSpace=wrap;html=1;backgroundOutline=1;" parent="1" vertex="1">
          <mxGeometry x="2250" y="875.5" width="120" height="60" as="geometry" />
        </mxCell>
        <mxCell id="9aB0R8qvESyYUEG60j1E-155" value="&lt;b&gt;to&lt;br&gt;TPP&lt;br&gt;&lt;/b&gt;" style="ellipse;whiteSpace=wrap;html=1;aspect=fixed;fillColor=#bac8d3;strokeColor=#23445d;" parent="1" vertex="1">
          <mxGeometry x="2890" y="901" width="60" height="60" as="geometry" />
        </mxCell>
        <mxCell id="CXqIgiOAqXT4uIimk3Gj-1" value="&lt;b&gt;Foundation / Requirements&lt;/b&gt;" style="text;html=1;strokeColor=none;fillColor=none;align=left;verticalAlign=middle;whiteSpace=wrap;rounded=0;labelBackgroundColor=none;spacingLeft=5;" parent="1" vertex="1">
          <mxGeometry x="-580" y="600" width="170" height="30" as="geometry" />
        </mxCell>
        <mxCell id="CXqIgiOAqXT4uIimk3Gj-2" value="&lt;b&gt;Design&lt;/b&gt;" style="text;html=1;strokeColor=none;fillColor=none;align=left;verticalAlign=middle;whiteSpace=wrap;rounded=0;labelBackgroundColor=none;spacingLeft=5;" parent="1" vertex="1">
          <mxGeometry x="570" y="600" width="170" height="30" as="geometry" />
        </mxCell>
        <mxCell id="CXqIgiOAqXT4uIimk3Gj-3" value="&lt;b&gt;Implementation&lt;/b&gt;" style="text;html=1;strokeColor=none;fillColor=none;align=left;verticalAlign=middle;whiteSpace=wrap;rounded=0;labelBackgroundColor=none;spacingLeft=5;" parent="1" vertex="1">
          <mxGeometry x="1350" y="600" width="170" height="30" as="geometry" />
        </mxCell>
        <mxCell id="CXqIgiOAqXT4uIimk3Gj-4" value="&lt;b&gt;Verification&lt;/b&gt;" style="text;html=1;strokeColor=none;fillColor=none;align=left;verticalAlign=middle;whiteSpace=wrap;rounded=0;labelBackgroundColor=none;spacingLeft=5;" parent="1" vertex="1">
          <mxGeometry x="2050" y="600" width="170" height="30" as="geometry" />
        </mxCell>
        <mxCell id="CXqIgiOAqXT4uIimk3Gj-5" value="&lt;b&gt;Release&lt;/b&gt;" style="text;html=1;strokeColor=none;fillColor=none;align=left;verticalAlign=middle;whiteSpace=wrap;rounded=0;labelBackgroundColor=none;spacingLeft=5;" parent="1" vertex="1">
          <mxGeometry x="2550" y="600" width="170" height="30" as="geometry" />
        </mxCell>
        <mxCell id="CXqIgiOAqXT4uIimk3Gj-6" value="&lt;b&gt;Operation&lt;/b&gt;" style="text;html=1;strokeColor=none;fillColor=none;align=left;verticalAlign=middle;whiteSpace=wrap;rounded=0;labelBackgroundColor=none;spacingLeft=5;" parent="1" vertex="1">
          <mxGeometry x="2860" y="600" width="170" height="30" as="geometry" />
        </mxCell>
      </root>
    </mxGraphModel>
  </diagram>
  <diagram name="foundation - requirements" id="Vt1JNJVVeyVEod88A2z-">
    <mxGraphModel dx="3400" dy="1286" grid="1" gridSize="10" guides="1" tooltips="1" connect="1" arrows="1" fold="1" page="0" pageScale="1" pageWidth="850" pageHeight="1100" math="0" shadow="0">
      <root>
        <mxCell id="CF6AhSzEZPevdR6mjJSh-0" />
        <mxCell id="CF6AhSzEZPevdR6mjJSh-1" parent="CF6AhSzEZPevdR6mjJSh-0" />
        <mxCell id="QknwqENfdDLIOd7SM4lb-30" value="" style="rounded=0;whiteSpace=wrap;html=1;labelBackgroundColor=none;fillColor=#CCE5FF;strokeColor=#000000;strokeWidth=2;" parent="CF6AhSzEZPevdR6mjJSh-1" vertex="1">
          <mxGeometry x="-590" y="602" width="1150" height="620" as="geometry" />
        </mxCell>
        <mxCell id="QknwqENfdDLIOd7SM4lb-31" style="edgeStyle=orthogonalEdgeStyle;rounded=0;orthogonalLoop=1;jettySize=auto;html=1;entryX=0;entryY=0.5;entryDx=0;entryDy=0;entryPerimeter=0;endArrow=classicThin;endFill=1;strokeColor=#0000FF;strokeWidth=3;" parent="CF6AhSzEZPevdR6mjJSh-1" source="QknwqENfdDLIOd7SM4lb-32" target="QknwqENfdDLIOd7SM4lb-34" edge="1">
          <mxGeometry relative="1" as="geometry" />
        </mxCell>
        <mxCell id="QknwqENfdDLIOd7SM4lb-32" value="organizational&lt;br&gt;cybersecurity&lt;br&gt;policy" style="shape=note;whiteSpace=wrap;html=1;backgroundOutline=1;darkOpacity=0.05;fillColor=#fff2cc;strokeColor=#000000;" parent="CF6AhSzEZPevdR6mjJSh-1" vertex="1">
          <mxGeometry x="-570" y="773" width="80" height="100" as="geometry" />
        </mxCell>
        <mxCell id="QknwqENfdDLIOd7SM4lb-33" style="edgeStyle=orthogonalEdgeStyle;rounded=0;orthogonalLoop=1;jettySize=auto;html=1;entryX=0;entryY=0.5;entryDx=0;entryDy=0;entryPerimeter=0;endArrow=classicThin;endFill=1;strokeColor=#0000FF;strokeWidth=3;" parent="CF6AhSzEZPevdR6mjJSh-1" source="QknwqENfdDLIOd7SM4lb-34" target="QknwqENfdDLIOd7SM4lb-36" edge="1">
          <mxGeometry relative="1" as="geometry" />
        </mxCell>
        <mxCell id="QknwqENfdDLIOd7SM4lb-34" value="global&lt;br&gt;cybersecurity&lt;br&gt;goals" style="shape=note;whiteSpace=wrap;html=1;backgroundOutline=1;darkOpacity=0.05;fillColor=#fff2cc;strokeColor=#000000;" parent="CF6AhSzEZPevdR6mjJSh-1" vertex="1">
          <mxGeometry x="-430" y="773" width="80" height="100" as="geometry" />
        </mxCell>
        <mxCell id="QknwqENfdDLIOd7SM4lb-35" style="edgeStyle=orthogonalEdgeStyle;rounded=0;orthogonalLoop=1;jettySize=auto;html=1;entryX=0;entryY=0.25;entryDx=0;entryDy=0;endArrow=classicThin;endFill=1;strokeColor=#0000FF;strokeWidth=3;" parent="CF6AhSzEZPevdR6mjJSh-1" source="QknwqENfdDLIOd7SM4lb-36" target="QknwqENfdDLIOd7SM4lb-53" edge="1">
          <mxGeometry relative="1" as="geometry">
            <Array as="points">
              <mxPoint x="-180" y="823" />
              <mxPoint x="-180" y="897" />
            </Array>
          </mxGeometry>
        </mxCell>
        <mxCell id="QknwqENfdDLIOd7SM4lb-36" value="element-level&lt;br&gt;cybersecurity&lt;br&gt;goals" style="shape=note;whiteSpace=wrap;html=1;backgroundOutline=1;darkOpacity=0.05;fillColor=#fff2cc;strokeColor=#000000;" parent="CF6AhSzEZPevdR6mjJSh-1" vertex="1">
          <mxGeometry x="-290" y="773" width="80" height="100" as="geometry" />
        </mxCell>
        <mxCell id="QknwqENfdDLIOd7SM4lb-37" value="global&lt;br&gt;cybersecurity&lt;br&gt;requirements" style="shape=note;whiteSpace=wrap;html=1;backgroundOutline=1;darkOpacity=0.05;fillColor=#fff2cc;strokeColor=#000000;" parent="CF6AhSzEZPevdR6mjJSh-1" vertex="1">
          <mxGeometry x="-290" y="943" width="80" height="100" as="geometry" />
        </mxCell>
        <mxCell id="QknwqENfdDLIOd7SM4lb-38" style="edgeStyle=orthogonalEdgeStyle;rounded=0;orthogonalLoop=1;jettySize=auto;html=1;entryX=0;entryY=0.75;entryDx=0;entryDy=0;endArrow=classicThin;endFill=1;strokeColor=#0000FF;strokeWidth=3;" parent="CF6AhSzEZPevdR6mjJSh-1" source="QknwqENfdDLIOd7SM4lb-39" target="QknwqENfdDLIOd7SM4lb-44" edge="1">
          <mxGeometry relative="1" as="geometry" />
        </mxCell>
        <mxCell id="QknwqENfdDLIOd7SM4lb-39" value="element-level&lt;br&gt;cybersecurity&lt;br&gt;requirements" style="shape=note;whiteSpace=wrap;html=1;backgroundOutline=1;darkOpacity=0.05;fillColor=#fff2cc;strokeColor=#000000;" parent="CF6AhSzEZPevdR6mjJSh-1" vertex="1">
          <mxGeometry x="20" y="863" width="80" height="100" as="geometry" />
        </mxCell>
        <mxCell id="QknwqENfdDLIOd7SM4lb-40" style="edgeStyle=orthogonalEdgeStyle;rounded=0;orthogonalLoop=1;jettySize=auto;html=1;endArrow=classicThin;endFill=1;strokeColor=#FF8000;strokeWidth=3;entryX=0;entryY=0.25;entryDx=0;entryDy=0;" parent="CF6AhSzEZPevdR6mjJSh-1" source="QknwqENfdDLIOd7SM4lb-41" target="QknwqENfdDLIOd7SM4lb-44" edge="1">
          <mxGeometry relative="1" as="geometry" />
        </mxCell>
        <mxCell id="QknwqENfdDLIOd7SM4lb-41" value="element&lt;br&gt;functional&lt;br&gt;requirements" style="shape=note;whiteSpace=wrap;html=1;backgroundOutline=1;darkOpacity=0.05;fillColor=#d5e8d4;strokeColor=#000000;" parent="CF6AhSzEZPevdR6mjJSh-1" vertex="1">
          <mxGeometry x="20" y="703" width="80" height="100" as="geometry" />
        </mxCell>
        <mxCell id="QknwqENfdDLIOd7SM4lb-42" style="edgeStyle=orthogonalEdgeStyle;rounded=0;orthogonalLoop=1;jettySize=auto;html=1;entryX=0;entryY=0.5;entryDx=0;entryDy=0;entryPerimeter=0;endArrow=classicThin;endFill=1;strokeColor=#0000FF;strokeWidth=3;" parent="CF6AhSzEZPevdR6mjJSh-1" source="QknwqENfdDLIOd7SM4lb-44" target="QknwqENfdDLIOd7SM4lb-47" edge="1">
          <mxGeometry relative="1" as="geometry" />
        </mxCell>
        <mxCell id="QknwqENfdDLIOd7SM4lb-43" style="edgeStyle=orthogonalEdgeStyle;rounded=0;orthogonalLoop=1;jettySize=auto;html=1;exitX=0.25;exitY=1;exitDx=0;exitDy=0;endArrow=classicThin;endFill=1;strokeColor=#CC0000;strokeWidth=3;entryX=0.5;entryY=1;entryDx=0;entryDy=0;dashed=1;" parent="CF6AhSzEZPevdR6mjJSh-1" source="QknwqENfdDLIOd7SM4lb-44" target="QknwqENfdDLIOd7SM4lb-53" edge="1">
          <mxGeometry relative="1" as="geometry">
            <mxPoint x="180" y="1223" as="targetPoint" />
            <Array as="points">
              <mxPoint x="180" y="1063" />
              <mxPoint x="-90" y="1063" />
            </Array>
          </mxGeometry>
        </mxCell>
        <mxCell id="QknwqENfdDLIOd7SM4lb-44" value="element&lt;br&gt;requirements&lt;br&gt;review" style="shape=process;whiteSpace=wrap;html=1;backgroundOutline=1;" parent="CF6AhSzEZPevdR6mjJSh-1" vertex="1">
          <mxGeometry x="150" y="803" width="120" height="60" as="geometry" />
        </mxCell>
        <mxCell id="QknwqENfdDLIOd7SM4lb-45" style="edgeStyle=orthogonalEdgeStyle;rounded=0;orthogonalLoop=1;jettySize=auto;html=1;entryX=0;entryY=0.5;entryDx=0;entryDy=0;entryPerimeter=0;endArrow=classicThin;endFill=1;strokeColor=#0000FF;strokeWidth=3;startArrow=none;" parent="CF6AhSzEZPevdR6mjJSh-1" source="QknwqENfdDLIOd7SM4lb-55" target="QknwqENfdDLIOd7SM4lb-37" edge="1">
          <mxGeometry relative="1" as="geometry" />
        </mxCell>
        <mxCell id="QknwqENfdDLIOd7SM4lb-46" value="cybersecurity&lt;br&gt;requirements&lt;br&gt;taxonomy" style="shape=note;whiteSpace=wrap;html=1;backgroundOutline=1;darkOpacity=0.05;fillColor=#fff2cc;strokeColor=#000000;" parent="CF6AhSzEZPevdR6mjJSh-1" vertex="1">
          <mxGeometry x="-570" y="943" width="80" height="100" as="geometry" />
        </mxCell>
        <mxCell id="QknwqENfdDLIOd7SM4lb-47" value="element&lt;br&gt;functional&lt;br&gt;requirements&lt;br&gt;&lt;br&gt;&lt;br&gt;" style="shape=note;whiteSpace=wrap;html=1;backgroundOutline=1;darkOpacity=0.05;fillColor=#d5e8d4;strokeColor=#000000;" parent="CF6AhSzEZPevdR6mjJSh-1" vertex="1">
          <mxGeometry x="310" y="783" width="80" height="100" as="geometry" />
        </mxCell>
        <mxCell id="QknwqENfdDLIOd7SM4lb-48" value="cybersecurity&lt;br&gt;dependencies" style="rounded=0;whiteSpace=wrap;html=1;fillColor=#fff2cc;strokeColor=#000000;" parent="CF6AhSzEZPevdR6mjJSh-1" vertex="1">
          <mxGeometry x="310" y="843" width="80" height="40" as="geometry" />
        </mxCell>
        <mxCell id="QknwqENfdDLIOd7SM4lb-49" value="requirements&lt;br&gt;gate" style="rhombus;whiteSpace=wrap;html=1;fillColor=default;" parent="CF6AhSzEZPevdR6mjJSh-1" vertex="1">
          <mxGeometry x="440" y="793" width="110" height="80" as="geometry" />
        </mxCell>
        <mxCell id="QknwqENfdDLIOd7SM4lb-50" value="" style="edgeStyle=orthogonalEdgeStyle;rounded=0;orthogonalLoop=1;jettySize=auto;html=1;entryX=0;entryY=0.5;entryDx=0;entryDy=0;entryPerimeter=0;endArrow=classicThin;endFill=1;strokeColor=#FF8000;strokeWidth=3;" parent="CF6AhSzEZPevdR6mjJSh-1" source="QknwqENfdDLIOd7SM4lb-47" target="QknwqENfdDLIOd7SM4lb-49" edge="1">
          <mxGeometry relative="1" as="geometry">
            <mxPoint x="390" y="833" as="sourcePoint" />
            <mxPoint x="610" y="833" as="targetPoint" />
          </mxGeometry>
        </mxCell>
        <mxCell id="QknwqENfdDLIOd7SM4lb-51" style="edgeStyle=orthogonalEdgeStyle;rounded=0;orthogonalLoop=1;jettySize=auto;html=1;exitX=0.25;exitY=1;exitDx=0;exitDy=0;entryX=0.5;entryY=1;entryDx=0;entryDy=0;dashed=1;endArrow=classicThin;endFill=1;strokeColor=#CC0000;strokeWidth=3;" parent="CF6AhSzEZPevdR6mjJSh-1" source="QknwqENfdDLIOd7SM4lb-53" target="QknwqENfdDLIOd7SM4lb-55" edge="1">
          <mxGeometry relative="1" as="geometry">
            <Array as="points">
              <mxPoint x="-120" y="1063" />
              <mxPoint x="-390" y="1063" />
            </Array>
          </mxGeometry>
        </mxCell>
        <mxCell id="QknwqENfdDLIOd7SM4lb-52" style="edgeStyle=orthogonalEdgeStyle;rounded=0;orthogonalLoop=1;jettySize=auto;html=1;entryX=-0.031;entryY=0.497;entryDx=0;entryDy=0;entryPerimeter=0;endArrow=classicThin;endFill=1;strokeColor=#0000FF;strokeWidth=3;" parent="CF6AhSzEZPevdR6mjJSh-1" source="QknwqENfdDLIOd7SM4lb-53" target="QknwqENfdDLIOd7SM4lb-39" edge="1">
          <mxGeometry relative="1" as="geometry">
            <Array as="points">
              <mxPoint x="-15" y="912" />
            </Array>
          </mxGeometry>
        </mxCell>
        <mxCell id="QknwqENfdDLIOd7SM4lb-53" value="derive&lt;br&gt;element-level&lt;br&gt;cybersecurity&lt;br&gt;requirements" style="shape=process;whiteSpace=wrap;html=1;backgroundOutline=1;" parent="CF6AhSzEZPevdR6mjJSh-1" vertex="1">
          <mxGeometry x="-150" y="882" width="120" height="60" as="geometry" />
        </mxCell>
        <mxCell id="QknwqENfdDLIOd7SM4lb-54" value="" style="edgeStyle=orthogonalEdgeStyle;rounded=0;orthogonalLoop=1;jettySize=auto;html=1;endArrow=classicThin;endFill=1;strokeColor=#0000FF;strokeWidth=3;entryX=0;entryY=0.75;entryDx=0;entryDy=0;" parent="CF6AhSzEZPevdR6mjJSh-1" source="QknwqENfdDLIOd7SM4lb-37" target="QknwqENfdDLIOd7SM4lb-53" edge="1">
          <mxGeometry relative="1" as="geometry">
            <mxPoint x="-210" y="993" as="sourcePoint" />
            <mxPoint x="-170" y="993" as="targetPoint" />
            <Array as="points">
              <mxPoint x="-180" y="993" />
              <mxPoint x="-180" y="927" />
            </Array>
          </mxGeometry>
        </mxCell>
        <mxCell id="QknwqENfdDLIOd7SM4lb-55" value="derive&lt;br&gt;global&lt;br&gt;cybersecurity&lt;br&gt;requirements" style="shape=process;whiteSpace=wrap;html=1;backgroundOutline=1;" parent="CF6AhSzEZPevdR6mjJSh-1" vertex="1">
          <mxGeometry x="-450" y="963" width="120" height="60" as="geometry" />
        </mxCell>
        <mxCell id="QknwqENfdDLIOd7SM4lb-56" value="" style="edgeStyle=orthogonalEdgeStyle;rounded=0;orthogonalLoop=1;jettySize=auto;html=1;entryX=0;entryY=0.5;entryDx=0;entryDy=0;entryPerimeter=0;endArrow=classicThin;endFill=1;strokeColor=#0000FF;strokeWidth=3;" parent="CF6AhSzEZPevdR6mjJSh-1" source="QknwqENfdDLIOd7SM4lb-46" target="QknwqENfdDLIOd7SM4lb-55" edge="1">
          <mxGeometry relative="1" as="geometry">
            <mxPoint x="-490" y="993" as="sourcePoint" />
            <mxPoint x="-290" y="993" as="targetPoint" />
          </mxGeometry>
        </mxCell>
        <mxCell id="QknwqENfdDLIOd7SM4lb-57" style="edgeStyle=orthogonalEdgeStyle;rounded=0;orthogonalLoop=1;jettySize=auto;html=1;entryX=0.5;entryY=1;entryDx=0;entryDy=0;endArrow=classicThin;endFill=1;strokeColor=#CC0000;strokeWidth=3;dashed=1;" parent="CF6AhSzEZPevdR6mjJSh-1" source="QknwqENfdDLIOd7SM4lb-58" target="QknwqENfdDLIOd7SM4lb-44" edge="1">
          <mxGeometry relative="1" as="geometry" />
        </mxCell>
        <mxCell id="QknwqENfdDLIOd7SM4lb-58" value="&lt;b&gt;from&lt;br&gt;issue&lt;br&gt;tracking&lt;/b&gt;" style="ellipse;whiteSpace=wrap;html=1;aspect=fixed;fillColor=#bac8d3;strokeColor=#23445d;" parent="CF6AhSzEZPevdR6mjJSh-1" vertex="1">
          <mxGeometry x="210" y="963" width="60" height="60" as="geometry" />
        </mxCell>
        <mxCell id="QknwqENfdDLIOd7SM4lb-59" value="&lt;b&gt;Foundation / Requirements&lt;/b&gt;" style="text;html=1;strokeColor=none;fillColor=none;align=left;verticalAlign=middle;whiteSpace=wrap;rounded=0;labelBackgroundColor=none;spacingLeft=5;" parent="CF6AhSzEZPevdR6mjJSh-1" vertex="1">
          <mxGeometry x="-590" y="602" width="170" height="30" as="geometry" />
        </mxCell>
        <mxCell id="CF6AhSzEZPevdR6mjJSh-55" value="" style="group" parent="CF6AhSzEZPevdR6mjJSh-1" vertex="1" connectable="0">
          <mxGeometry x="425" y="1250" width="140" height="90" as="geometry" />
        </mxCell>
        <mxCell id="CF6AhSzEZPevdR6mjJSh-56" value="" style="rounded=0;whiteSpace=wrap;html=1;fillColor=none;strokeColor=none;" parent="CF6AhSzEZPevdR6mjJSh-55" vertex="1">
          <mxGeometry x="5" y="5" width="130" height="80" as="geometry" />
        </mxCell>
        <mxCell id="CF6AhSzEZPevdR6mjJSh-57" value="&lt;span style=&quot;color: rgb(0, 0, 0); font-family: Helvetica; font-size: 12px; font-style: normal; font-variant-ligatures: normal; font-variant-caps: normal; font-weight: 400; letter-spacing: normal; orphans: 2; text-align: center; text-indent: 0px; text-transform: none; widows: 2; word-spacing: 0px; -webkit-text-stroke-width: 0px; text-decoration-thickness: initial; text-decoration-style: initial; text-decoration-color: initial; float: none; display: inline !important;&quot;&gt;task / issue&lt;/span&gt;&lt;br style=&quot;color: rgb(0, 0, 0); font-family: Helvetica; font-size: 12px; font-style: normal; font-variant-ligatures: normal; font-variant-caps: normal; font-weight: 400; letter-spacing: normal; orphans: 2; text-align: center; text-indent: 0px; text-transform: none; widows: 2; word-spacing: 0px; -webkit-text-stroke-width: 0px; text-decoration-thickness: initial; text-decoration-style: initial; text-decoration-color: initial;&quot;&gt;&lt;span style=&quot;color: rgb(0, 0, 0); font-family: Helvetica; font-size: 12px; font-style: normal; font-variant-ligatures: normal; font-variant-caps: normal; font-weight: 400; letter-spacing: normal; orphans: 2; text-align: center; text-indent: 0px; text-transform: none; widows: 2; word-spacing: 0px; -webkit-text-stroke-width: 0px; text-decoration-thickness: initial; text-decoration-style: initial; text-decoration-color: initial; float: none; display: inline !important;&quot;&gt;tracking&lt;/span&gt;&lt;br style=&quot;color: rgb(0, 0, 0); font-family: Helvetica; font-size: 12px; font-style: normal; font-variant-ligatures: normal; font-variant-caps: normal; font-weight: 400; letter-spacing: normal; orphans: 2; text-align: center; text-indent: 0px; text-transform: none; widows: 2; word-spacing: 0px; -webkit-text-stroke-width: 0px; text-decoration-thickness: initial; text-decoration-style: initial; text-decoration-color: initial;&quot;&gt;&lt;span style=&quot;color: rgb(0, 0, 0); font-family: Helvetica; font-size: 12px; font-style: normal; font-variant-ligatures: normal; font-variant-caps: normal; font-weight: 400; letter-spacing: normal; orphans: 2; text-align: center; text-indent: 0px; text-transform: none; widows: 2; word-spacing: 0px; -webkit-text-stroke-width: 0px; text-decoration-thickness: initial; text-decoration-style: initial; text-decoration-color: initial; float: none; display: inline !important;&quot;&gt;system&lt;/span&gt;" style="ellipse;shape=cloud;whiteSpace=wrap;html=1;fillColor=#D5E8D4;" parent="CF6AhSzEZPevdR6mjJSh-55" vertex="1">
          <mxGeometry width="140" height="90" as="geometry" />
        </mxCell>
        <mxCell id="CF6AhSzEZPevdR6mjJSh-87" style="edgeStyle=orthogonalEdgeStyle;rounded=0;orthogonalLoop=1;jettySize=auto;html=1;endArrow=classicThin;endFill=1;strokeColor=#CC0000;strokeWidth=3;dashed=1;entryX=0.5;entryY=0;entryDx=0;entryDy=0;exitX=0.5;exitY=1;exitDx=0;exitDy=0;" parent="CF6AhSzEZPevdR6mjJSh-1" source="QknwqENfdDLIOd7SM4lb-49" target="CF6AhSzEZPevdR6mjJSh-56" edge="1">
          <mxGeometry relative="1" as="geometry">
            <mxPoint x="770" y="980" as="sourcePoint" />
            <mxPoint x="410" y="1260" as="targetPoint" />
            <Array as="points">
              <mxPoint x="495" y="1060" />
              <mxPoint x="495" y="1060" />
            </Array>
          </mxGeometry>
        </mxCell>
      </root>
    </mxGraphModel>
  </diagram>
  <diagram name="design" id="F3YS5UW4txAYoXvbelSV">
    <mxGraphModel dx="2640" dy="795" grid="1" gridSize="10" guides="1" tooltips="1" connect="1" arrows="1" fold="1" page="0" pageScale="1" pageWidth="850" pageHeight="1100" math="0" shadow="0">
      <root>
        <mxCell id="LZnFgQrRC7rvuZ8w4eYE-0" />
        <mxCell id="LZnFgQrRC7rvuZ8w4eYE-1" parent="LZnFgQrRC7rvuZ8w4eYE-0" />
        <mxCell id="BMHtMF0gy9L06jLl3o9K-0" value="" style="rounded=0;whiteSpace=wrap;html=1;labelBackgroundColor=none;fillColor=#CCE5FF;strokeColor=#000000;strokeWidth=2;" vertex="1" parent="LZnFgQrRC7rvuZ8w4eYE-1">
          <mxGeometry x="260" y="600" width="310" height="620" as="geometry" />
        </mxCell>
        <mxCell id="BMHtMF0gy9L06jLl3o9K-1" value="element&lt;br&gt;requirements&lt;br&gt;review" style="shape=process;whiteSpace=wrap;html=1;backgroundOutline=1;" vertex="1" parent="LZnFgQrRC7rvuZ8w4eYE-1">
          <mxGeometry x="285" y="800" width="120" height="60" as="geometry" />
        </mxCell>
        <mxCell id="BMHtMF0gy9L06jLl3o9K-2" style="edgeStyle=orthogonalEdgeStyle;rounded=0;orthogonalLoop=1;jettySize=auto;html=1;entryX=0.5;entryY=1;entryDx=0;entryDy=0;endArrow=classicThin;endFill=1;strokeColor=#CC0000;strokeWidth=3;dashed=1;" edge="1" parent="LZnFgQrRC7rvuZ8w4eYE-1" source="BMHtMF0gy9L06jLl3o9K-3" target="BMHtMF0gy9L06jLl3o9K-1">
          <mxGeometry relative="1" as="geometry" />
        </mxCell>
        <mxCell id="BMHtMF0gy9L06jLl3o9K-3" value="&lt;b&gt;from&lt;br&gt;issue&lt;br&gt;tracking&lt;/b&gt;" style="ellipse;whiteSpace=wrap;html=1;aspect=fixed;fillColor=#bac8d3;strokeColor=#23445d;" vertex="1" parent="LZnFgQrRC7rvuZ8w4eYE-1">
          <mxGeometry x="315" y="960" width="60" height="60" as="geometry" />
        </mxCell>
        <mxCell id="BMHtMF0gy9L06jLl3o9K-4" value="&lt;b&gt;Foundation / Requirements&lt;/b&gt;" style="text;html=1;strokeColor=none;fillColor=none;align=left;verticalAlign=middle;whiteSpace=wrap;rounded=0;labelBackgroundColor=none;spacingLeft=5;" vertex="1" parent="LZnFgQrRC7rvuZ8w4eYE-1">
          <mxGeometry x="260" y="600" width="170" height="30" as="geometry" />
        </mxCell>
        <mxCell id="LZnFgQrRC7rvuZ8w4eYE-6" value="" style="rounded=0;whiteSpace=wrap;html=1;labelBackgroundColor=none;fillColor=#E6FFCC;strokeColor=#000000;strokeWidth=2;" vertex="1" parent="LZnFgQrRC7rvuZ8w4eYE-1">
          <mxGeometry x="570" y="600" width="780" height="620" as="geometry" />
        </mxCell>
        <mxCell id="LZnFgQrRC7rvuZ8w4eYE-23" style="edgeStyle=orthogonalEdgeStyle;rounded=0;orthogonalLoop=1;jettySize=auto;html=1;endArrow=classicThin;endFill=1;strokeColor=#0000FF;strokeWidth=3;" edge="1" parent="LZnFgQrRC7rvuZ8w4eYE-1" source="LZnFgQrRC7rvuZ8w4eYE-25" target="LZnFgQrRC7rvuZ8w4eYE-73">
          <mxGeometry relative="1" as="geometry" />
        </mxCell>
        <mxCell id="LZnFgQrRC7rvuZ8w4eYE-24" style="edgeStyle=orthogonalEdgeStyle;rounded=0;orthogonalLoop=1;jettySize=auto;html=1;exitX=0.25;exitY=1;exitDx=0;exitDy=0;entryX=0.5;entryY=0;entryDx=0;entryDy=0;endArrow=classicThin;endFill=1;strokeColor=#CC0000;strokeWidth=3;dashed=1;" edge="1" parent="LZnFgQrRC7rvuZ8w4eYE-1" source="LZnFgQrRC7rvuZ8w4eYE-25" target="LZnFgQrRC7rvuZ8w4eYE-102">
          <mxGeometry relative="1" as="geometry">
            <Array as="points">
              <mxPoint x="1070" y="920" />
              <mxPoint x="1010" y="920" />
            </Array>
          </mxGeometry>
        </mxCell>
        <mxCell id="LZnFgQrRC7rvuZ8w4eYE-25" value="threat&lt;br&gt;modeling" style="shape=process;whiteSpace=wrap;html=1;backgroundOutline=1;" vertex="1" parent="LZnFgQrRC7rvuZ8w4eYE-1">
          <mxGeometry x="1040" y="836" width="120" height="60" as="geometry" />
        </mxCell>
        <mxCell id="LZnFgQrRC7rvuZ8w4eYE-26" style="edgeStyle=orthogonalEdgeStyle;rounded=0;orthogonalLoop=1;jettySize=auto;html=1;entryX=0;entryY=0.5;entryDx=0;entryDy=0;entryPerimeter=0;endArrow=classicThin;endFill=1;strokeColor=#0000FF;strokeWidth=3;" edge="1" parent="LZnFgQrRC7rvuZ8w4eYE-1" source="LZnFgQrRC7rvuZ8w4eYE-27" target="LZnFgQrRC7rvuZ8w4eYE-45">
          <mxGeometry relative="1" as="geometry" />
        </mxCell>
        <mxCell id="LZnFgQrRC7rvuZ8w4eYE-27" value="threat prioritization" style="shape=process;whiteSpace=wrap;html=1;backgroundOutline=1;" vertex="1" parent="LZnFgQrRC7rvuZ8w4eYE-1">
          <mxGeometry x="890" y="1290" width="120" height="60" as="geometry" />
        </mxCell>
        <mxCell id="LZnFgQrRC7rvuZ8w4eYE-28" style="edgeStyle=orthogonalEdgeStyle;rounded=0;orthogonalLoop=1;jettySize=auto;html=1;entryX=0;entryY=0.25;entryDx=0;entryDy=0;endArrow=classicThin;endFill=1;strokeColor=#FF8000;strokeWidth=3;" edge="1" parent="LZnFgQrRC7rvuZ8w4eYE-1" source="LZnFgQrRC7rvuZ8w4eYE-29" target="LZnFgQrRC7rvuZ8w4eYE-60">
          <mxGeometry relative="1" as="geometry">
            <Array as="points">
              <mxPoint x="690" y="736" />
              <mxPoint x="690" y="801" />
            </Array>
          </mxGeometry>
        </mxCell>
        <mxCell id="LZnFgQrRC7rvuZ8w4eYE-29" value="element&lt;br&gt;design" style="shape=note;whiteSpace=wrap;html=1;backgroundOutline=1;darkOpacity=0.05;fillColor=#d5e8d4;strokeColor=#000000;" vertex="1" parent="LZnFgQrRC7rvuZ8w4eYE-1">
          <mxGeometry x="590" y="686" width="80" height="100" as="geometry" />
        </mxCell>
        <mxCell id="LZnFgQrRC7rvuZ8w4eYE-42" style="edgeStyle=orthogonalEdgeStyle;rounded=0;orthogonalLoop=1;jettySize=auto;html=1;entryX=0;entryY=0.5;entryDx=0;entryDy=0;endArrow=classicThin;endFill=1;strokeColor=#0000FF;strokeWidth=3;" edge="1" parent="LZnFgQrRC7rvuZ8w4eYE-1" source="LZnFgQrRC7rvuZ8w4eYE-43" target="LZnFgQrRC7rvuZ8w4eYE-27">
          <mxGeometry relative="1" as="geometry" />
        </mxCell>
        <mxCell id="LZnFgQrRC7rvuZ8w4eYE-43" value="threat&lt;br&gt;candidates" style="shape=note;whiteSpace=wrap;html=1;backgroundOutline=1;darkOpacity=0.05;fillColor=#fff2cc;strokeColor=#d6b656;" vertex="1" parent="LZnFgQrRC7rvuZ8w4eYE-1">
          <mxGeometry x="755" y="1270" width="80" height="100" as="geometry" />
        </mxCell>
        <mxCell id="LZnFgQrRC7rvuZ8w4eYE-44" style="edgeStyle=orthogonalEdgeStyle;rounded=0;orthogonalLoop=1;jettySize=auto;html=1;endArrow=classicThin;endFill=1;strokeColor=#0000FF;strokeWidth=3;entryX=0;entryY=0.5;entryDx=0;entryDy=0;" edge="1" parent="LZnFgQrRC7rvuZ8w4eYE-1" source="LZnFgQrRC7rvuZ8w4eYE-45" target="LZnFgQrRC7rvuZ8w4eYE-56">
          <mxGeometry relative="1" as="geometry">
            <mxPoint x="1204.999999999999" y="1320" as="targetPoint" />
          </mxGeometry>
        </mxCell>
        <mxCell id="LZnFgQrRC7rvuZ8w4eYE-45" value="uncontrolled&lt;br&gt;threats" style="shape=note;whiteSpace=wrap;html=1;backgroundOutline=1;darkOpacity=0.05;fillColor=#fff2cc;strokeColor=#d6b656;" vertex="1" parent="LZnFgQrRC7rvuZ8w4eYE-1">
          <mxGeometry x="1070" y="1270" width="80" height="100" as="geometry" />
        </mxCell>
        <mxCell id="LZnFgQrRC7rvuZ8w4eYE-51" style="edgeStyle=orthogonalEdgeStyle;rounded=0;orthogonalLoop=1;jettySize=auto;html=1;entryX=0;entryY=0.5;entryDx=0;entryDy=0;endArrow=classicThin;endFill=1;strokeColor=#0000FF;strokeWidth=3;" edge="1" parent="LZnFgQrRC7rvuZ8w4eYE-1" source="LZnFgQrRC7rvuZ8w4eYE-52" target="LZnFgQrRC7rvuZ8w4eYE-73">
          <mxGeometry relative="1" as="geometry" />
        </mxCell>
        <mxCell id="LZnFgQrRC7rvuZ8w4eYE-52" value="attack&lt;br&gt;surface&lt;br&gt;analysis" style="shape=process;whiteSpace=wrap;html=1;backgroundOutline=1;" vertex="1" parent="LZnFgQrRC7rvuZ8w4eYE-1">
          <mxGeometry x="1040" y="736" width="120" height="60" as="geometry" />
        </mxCell>
        <mxCell id="LZnFgQrRC7rvuZ8w4eYE-55" value="" style="group" vertex="1" connectable="0" parent="LZnFgQrRC7rvuZ8w4eYE-1">
          <mxGeometry x="1209" y="1275" width="140" height="90" as="geometry" />
        </mxCell>
        <mxCell id="LZnFgQrRC7rvuZ8w4eYE-56" value="" style="rounded=0;whiteSpace=wrap;html=1;fillColor=none;strokeColor=none;" vertex="1" parent="LZnFgQrRC7rvuZ8w4eYE-55">
          <mxGeometry x="5" y="5" width="130" height="80" as="geometry" />
        </mxCell>
        <mxCell id="LZnFgQrRC7rvuZ8w4eYE-57" value="&lt;span style=&quot;color: rgb(0, 0, 0); font-family: Helvetica; font-size: 12px; font-style: normal; font-variant-ligatures: normal; font-variant-caps: normal; font-weight: 400; letter-spacing: normal; orphans: 2; text-align: center; text-indent: 0px; text-transform: none; widows: 2; word-spacing: 0px; -webkit-text-stroke-width: 0px; text-decoration-thickness: initial; text-decoration-style: initial; text-decoration-color: initial; float: none; display: inline !important;&quot;&gt;task / issue&lt;/span&gt;&lt;br style=&quot;color: rgb(0, 0, 0); font-family: Helvetica; font-size: 12px; font-style: normal; font-variant-ligatures: normal; font-variant-caps: normal; font-weight: 400; letter-spacing: normal; orphans: 2; text-align: center; text-indent: 0px; text-transform: none; widows: 2; word-spacing: 0px; -webkit-text-stroke-width: 0px; text-decoration-thickness: initial; text-decoration-style: initial; text-decoration-color: initial;&quot;&gt;&lt;span style=&quot;color: rgb(0, 0, 0); font-family: Helvetica; font-size: 12px; font-style: normal; font-variant-ligatures: normal; font-variant-caps: normal; font-weight: 400; letter-spacing: normal; orphans: 2; text-align: center; text-indent: 0px; text-transform: none; widows: 2; word-spacing: 0px; -webkit-text-stroke-width: 0px; text-decoration-thickness: initial; text-decoration-style: initial; text-decoration-color: initial; float: none; display: inline !important;&quot;&gt;tracking&lt;/span&gt;&lt;br style=&quot;color: rgb(0, 0, 0); font-family: Helvetica; font-size: 12px; font-style: normal; font-variant-ligatures: normal; font-variant-caps: normal; font-weight: 400; letter-spacing: normal; orphans: 2; text-align: center; text-indent: 0px; text-transform: none; widows: 2; word-spacing: 0px; -webkit-text-stroke-width: 0px; text-decoration-thickness: initial; text-decoration-style: initial; text-decoration-color: initial;&quot;&gt;&lt;span style=&quot;color: rgb(0, 0, 0); font-family: Helvetica; font-size: 12px; font-style: normal; font-variant-ligatures: normal; font-variant-caps: normal; font-weight: 400; letter-spacing: normal; orphans: 2; text-align: center; text-indent: 0px; text-transform: none; widows: 2; word-spacing: 0px; -webkit-text-stroke-width: 0px; text-decoration-thickness: initial; text-decoration-style: initial; text-decoration-color: initial; float: none; display: inline !important;&quot;&gt;system&lt;/span&gt;" style="ellipse;shape=cloud;whiteSpace=wrap;html=1;fillColor=#D5E8D4;" vertex="1" parent="LZnFgQrRC7rvuZ8w4eYE-55">
          <mxGeometry width="140" height="90" as="geometry" />
        </mxCell>
        <mxCell id="LZnFgQrRC7rvuZ8w4eYE-58" style="edgeStyle=orthogonalEdgeStyle;rounded=0;orthogonalLoop=1;jettySize=auto;html=1;entryX=0.5;entryY=0;entryDx=0;entryDy=0;endArrow=classicThin;endFill=1;strokeColor=#CC0000;strokeWidth=3;dashed=1;exitX=0.25;exitY=1;exitDx=0;exitDy=0;" edge="1" parent="LZnFgQrRC7rvuZ8w4eYE-1" source="LZnFgQrRC7rvuZ8w4eYE-60" target="LZnFgQrRC7rvuZ8w4eYE-56">
          <mxGeometry relative="1" as="geometry">
            <Array as="points">
              <mxPoint x="750" y="1200" />
              <mxPoint x="1280" y="1200" />
              <mxPoint x="1280" y="1280" />
            </Array>
          </mxGeometry>
        </mxCell>
        <mxCell id="LZnFgQrRC7rvuZ8w4eYE-59" style="edgeStyle=orthogonalEdgeStyle;rounded=0;orthogonalLoop=1;jettySize=auto;html=1;entryX=0;entryY=0.5;entryDx=0;entryDy=0;entryPerimeter=0;endArrow=classicThin;endFill=1;strokeColor=#0000FF;strokeWidth=3;" edge="1" parent="LZnFgQrRC7rvuZ8w4eYE-1" source="LZnFgQrRC7rvuZ8w4eYE-60" target="LZnFgQrRC7rvuZ8w4eYE-66">
          <mxGeometry relative="1" as="geometry" />
        </mxCell>
        <mxCell id="LZnFgQrRC7rvuZ8w4eYE-60" value="element&lt;br&gt;design&lt;br&gt;review" style="shape=process;whiteSpace=wrap;html=1;backgroundOutline=1;" vertex="1" parent="LZnFgQrRC7rvuZ8w4eYE-1">
          <mxGeometry x="720" y="786" width="120" height="60" as="geometry" />
        </mxCell>
        <mxCell id="LZnFgQrRC7rvuZ8w4eYE-61" style="edgeStyle=orthogonalEdgeStyle;rounded=0;orthogonalLoop=1;jettySize=auto;html=1;entryX=0;entryY=0.75;entryDx=0;entryDy=0;endArrow=classicThin;endFill=1;strokeColor=#0000FF;strokeWidth=3;startArrow=none;" edge="1" parent="LZnFgQrRC7rvuZ8w4eYE-1" source="LZnFgQrRC7rvuZ8w4eYE-85" target="LZnFgQrRC7rvuZ8w4eYE-60">
          <mxGeometry relative="1" as="geometry" />
        </mxCell>
        <mxCell id="LZnFgQrRC7rvuZ8w4eYE-64" style="edgeStyle=orthogonalEdgeStyle;rounded=0;orthogonalLoop=1;jettySize=auto;html=1;entryX=0;entryY=0.5;entryDx=0;entryDy=0;endArrow=classicThin;endFill=1;strokeColor=#FF8000;strokeWidth=3;" edge="1" parent="LZnFgQrRC7rvuZ8w4eYE-1" source="LZnFgQrRC7rvuZ8w4eYE-66" target="LZnFgQrRC7rvuZ8w4eYE-52">
          <mxGeometry relative="1" as="geometry">
            <Array as="points">
              <mxPoint x="990" y="816" />
              <mxPoint x="990" y="766" />
            </Array>
          </mxGeometry>
        </mxCell>
        <mxCell id="LZnFgQrRC7rvuZ8w4eYE-65" style="edgeStyle=orthogonalEdgeStyle;rounded=0;orthogonalLoop=1;jettySize=auto;html=1;entryX=0;entryY=0.5;entryDx=0;entryDy=0;endArrow=classicThin;endFill=1;strokeColor=#FF8000;strokeWidth=3;" edge="1" parent="LZnFgQrRC7rvuZ8w4eYE-1" source="LZnFgQrRC7rvuZ8w4eYE-66" target="LZnFgQrRC7rvuZ8w4eYE-25">
          <mxGeometry relative="1" as="geometry">
            <Array as="points">
              <mxPoint x="990" y="816" />
              <mxPoint x="990" y="866" />
            </Array>
          </mxGeometry>
        </mxCell>
        <mxCell id="LZnFgQrRC7rvuZ8w4eYE-66" value="reviewed&lt;br&gt;element&lt;br&gt;design" style="shape=note;whiteSpace=wrap;html=1;backgroundOutline=1;darkOpacity=0.05;fillColor=#d5e8d4;strokeColor=#000000;" vertex="1" parent="LZnFgQrRC7rvuZ8w4eYE-1">
          <mxGeometry x="875" y="766" width="80" height="100" as="geometry" />
        </mxCell>
        <mxCell id="LZnFgQrRC7rvuZ8w4eYE-67" style="edgeStyle=orthogonalEdgeStyle;rounded=0;orthogonalLoop=1;jettySize=auto;html=1;entryX=0.5;entryY=0;entryDx=0;entryDy=0;endArrow=classicThin;endFill=1;strokeColor=#CC0000;strokeWidth=3;dashed=1;exitX=0.5;exitY=1;exitDx=0;exitDy=0;" edge="1" parent="LZnFgQrRC7rvuZ8w4eYE-1" source="LZnFgQrRC7rvuZ8w4eYE-73" target="LZnFgQrRC7rvuZ8w4eYE-56">
          <mxGeometry relative="1" as="geometry">
            <Array as="points">
              <mxPoint x="1280" y="1280" />
            </Array>
          </mxGeometry>
        </mxCell>
        <mxCell id="LZnFgQrRC7rvuZ8w4eYE-73" value="design&lt;br&gt;gate" style="rhombus;whiteSpace=wrap;html=1;fillColor=default;" vertex="1" parent="LZnFgQrRC7rvuZ8w4eYE-1">
          <mxGeometry x="1225" y="776" width="110" height="80" as="geometry" />
        </mxCell>
        <mxCell id="LZnFgQrRC7rvuZ8w4eYE-85" value="requirements&lt;br&gt;gate" style="rhombus;whiteSpace=wrap;html=1;fillColor=default;" vertex="1" parent="LZnFgQrRC7rvuZ8w4eYE-1">
          <mxGeometry x="450" y="791" width="110" height="80" as="geometry" />
        </mxCell>
        <mxCell id="LZnFgQrRC7rvuZ8w4eYE-100" style="edgeStyle=orthogonalEdgeStyle;rounded=0;orthogonalLoop=1;jettySize=auto;html=1;entryX=0.5;entryY=1;entryDx=0;entryDy=0;dashed=1;endArrow=classicThin;endFill=1;strokeColor=#CC0000;strokeWidth=3;" edge="1" parent="LZnFgQrRC7rvuZ8w4eYE-1" source="LZnFgQrRC7rvuZ8w4eYE-101" target="LZnFgQrRC7rvuZ8w4eYE-60">
          <mxGeometry relative="1" as="geometry" />
        </mxCell>
        <mxCell id="LZnFgQrRC7rvuZ8w4eYE-101" value="&lt;b&gt;from&lt;br&gt;issue&lt;br&gt;tracking&lt;/b&gt;" style="ellipse;whiteSpace=wrap;html=1;aspect=fixed;fillColor=#bac8d3;strokeColor=#23445d;" vertex="1" parent="LZnFgQrRC7rvuZ8w4eYE-1">
          <mxGeometry x="780" y="961" width="60" height="60" as="geometry" />
        </mxCell>
        <mxCell id="LZnFgQrRC7rvuZ8w4eYE-102" value="&lt;b&gt;to&lt;br&gt;TPP&lt;br&gt;&lt;/b&gt;" style="ellipse;whiteSpace=wrap;html=1;aspect=fixed;fillColor=#bac8d3;strokeColor=#23445d;" vertex="1" parent="LZnFgQrRC7rvuZ8w4eYE-1">
          <mxGeometry x="980" y="970" width="60" height="60" as="geometry" />
        </mxCell>
        <mxCell id="LZnFgQrRC7rvuZ8w4eYE-103" style="edgeStyle=orthogonalEdgeStyle;rounded=0;orthogonalLoop=1;jettySize=auto;html=1;entryX=0;entryY=0.5;entryDx=0;entryDy=0;entryPerimeter=0;endArrow=classicThin;endFill=1;strokeColor=#0000FF;strokeWidth=3;" edge="1" parent="LZnFgQrRC7rvuZ8w4eYE-1" source="LZnFgQrRC7rvuZ8w4eYE-104" target="LZnFgQrRC7rvuZ8w4eYE-43">
          <mxGeometry relative="1" as="geometry" />
        </mxCell>
        <mxCell id="LZnFgQrRC7rvuZ8w4eYE-104" value="&lt;b&gt;TPP&lt;br&gt;&lt;/b&gt;" style="ellipse;whiteSpace=wrap;html=1;aspect=fixed;fillColor=#bac8d3;strokeColor=#23445d;" vertex="1" parent="LZnFgQrRC7rvuZ8w4eYE-1">
          <mxGeometry x="640" y="1290" width="60" height="60" as="geometry" />
        </mxCell>
        <mxCell id="LZnFgQrRC7rvuZ8w4eYE-106" style="edgeStyle=orthogonalEdgeStyle;rounded=0;orthogonalLoop=1;jettySize=auto;html=1;exitX=0.25;exitY=1;exitDx=0;exitDy=0;entryX=0.5;entryY=0;entryDx=0;entryDy=0;endArrow=classicThin;endFill=1;strokeColor=#CC0000;strokeWidth=3;dashed=1;" edge="1" parent="LZnFgQrRC7rvuZ8w4eYE-1" source="LZnFgQrRC7rvuZ8w4eYE-52" target="LZnFgQrRC7rvuZ8w4eYE-102">
          <mxGeometry relative="1" as="geometry">
            <mxPoint x="1070" y="796" as="sourcePoint" />
            <mxPoint x="945.0000000000164" y="979.9999999999999" as="targetPoint" />
            <Array as="points">
              <mxPoint x="1070" y="820" />
              <mxPoint x="1010" y="820" />
            </Array>
          </mxGeometry>
        </mxCell>
        <mxCell id="LZnFgQrRC7rvuZ8w4eYE-127" value="&lt;b&gt;Design&lt;/b&gt;" style="text;html=1;strokeColor=none;fillColor=none;align=left;verticalAlign=middle;whiteSpace=wrap;rounded=0;labelBackgroundColor=none;spacingLeft=5;" vertex="1" parent="LZnFgQrRC7rvuZ8w4eYE-1">
          <mxGeometry x="570" y="600" width="170" height="30" as="geometry" />
        </mxCell>
      </root>
    </mxGraphModel>
  </diagram>
  <diagram name="implementation" id="8PArwKQRG5Qt43IpOmYM">
    <mxGraphModel dx="1840" dy="795" grid="1" gridSize="10" guides="1" tooltips="1" connect="1" arrows="1" fold="1" page="0" pageScale="1" pageWidth="850" pageHeight="1100" math="0" shadow="0">
      <root>
        <mxCell id="obkJ-EoX20HhRhTZhNiV-0" />
        <mxCell id="obkJ-EoX20HhRhTZhNiV-1" parent="obkJ-EoX20HhRhTZhNiV-0" />
        <mxCell id="64it0TD6pUiTb1dnGZ68-5" value="" style="rounded=0;whiteSpace=wrap;html=1;labelBackgroundColor=none;fillColor=#E6FFCC;strokeColor=#000000;strokeWidth=2;" vertex="1" parent="obkJ-EoX20HhRhTZhNiV-1">
          <mxGeometry x="1050" y="600" width="300" height="620" as="geometry" />
        </mxCell>
        <mxCell id="obkJ-EoX20HhRhTZhNiV-2" value="" style="rounded=0;whiteSpace=wrap;html=1;labelBackgroundColor=none;fillColor=#CCE5FF;strokeColor=#000000;strokeWidth=2;" vertex="1" parent="obkJ-EoX20HhRhTZhNiV-1">
          <mxGeometry x="1350" y="600" width="700" height="620" as="geometry" />
        </mxCell>
        <mxCell id="obkJ-EoX20HhRhTZhNiV-26" style="edgeStyle=orthogonalEdgeStyle;rounded=0;orthogonalLoop=1;jettySize=auto;html=1;entryX=0;entryY=0.5;entryDx=0;entryDy=0;entryPerimeter=0;endArrow=classicThin;endFill=1;strokeColor=#0000FF;strokeWidth=3;" edge="1" parent="obkJ-EoX20HhRhTZhNiV-1" source="obkJ-EoX20HhRhTZhNiV-27" target="obkJ-EoX20HhRhTZhNiV-45">
          <mxGeometry relative="1" as="geometry" />
        </mxCell>
        <mxCell id="obkJ-EoX20HhRhTZhNiV-27" value="threat prioritization" style="shape=process;whiteSpace=wrap;html=1;backgroundOutline=1;" vertex="1" parent="obkJ-EoX20HhRhTZhNiV-1">
          <mxGeometry x="1590" y="1290" width="120" height="60" as="geometry" />
        </mxCell>
        <mxCell id="obkJ-EoX20HhRhTZhNiV-30" style="edgeStyle=orthogonalEdgeStyle;rounded=0;orthogonalLoop=1;jettySize=auto;html=1;endArrow=classicThin;endFill=1;strokeColor=#0000FF;strokeWidth=3;" edge="1" parent="obkJ-EoX20HhRhTZhNiV-1" source="obkJ-EoX20HhRhTZhNiV-32" target="obkJ-EoX20HhRhTZhNiV-78">
          <mxGeometry relative="1" as="geometry">
            <Array as="points">
              <mxPoint x="1880" y="770" />
              <mxPoint x="1880" y="820" />
            </Array>
          </mxGeometry>
        </mxCell>
        <mxCell id="obkJ-EoX20HhRhTZhNiV-31" style="edgeStyle=orthogonalEdgeStyle;rounded=0;orthogonalLoop=1;jettySize=auto;html=1;exitX=0.25;exitY=1;exitDx=0;exitDy=0;entryX=0.5;entryY=0;entryDx=0;entryDy=0;dashed=1;endArrow=classicThin;endFill=1;strokeColor=#CC0000;strokeWidth=3;" edge="1" parent="obkJ-EoX20HhRhTZhNiV-1" source="obkJ-EoX20HhRhTZhNiV-32" target="obkJ-EoX20HhRhTZhNiV-107">
          <mxGeometry relative="1" as="geometry">
            <Array as="points">
              <mxPoint x="1760" y="820" />
              <mxPoint x="1700" y="820" />
            </Array>
          </mxGeometry>
        </mxCell>
        <mxCell id="obkJ-EoX20HhRhTZhNiV-32" value="static&lt;br&gt;analysis" style="shape=process;whiteSpace=wrap;html=1;backgroundOutline=1;" vertex="1" parent="obkJ-EoX20HhRhTZhNiV-1">
          <mxGeometry x="1730" y="740" width="120" height="60" as="geometry" />
        </mxCell>
        <mxCell id="obkJ-EoX20HhRhTZhNiV-33" style="edgeStyle=orthogonalEdgeStyle;rounded=0;orthogonalLoop=1;jettySize=auto;html=1;endArrow=classicThin;endFill=1;strokeColor=#0000FF;strokeWidth=3;" edge="1" parent="obkJ-EoX20HhRhTZhNiV-1" source="obkJ-EoX20HhRhTZhNiV-35" target="obkJ-EoX20HhRhTZhNiV-78">
          <mxGeometry relative="1" as="geometry">
            <Array as="points">
              <mxPoint x="1880" y="870" />
              <mxPoint x="1880" y="820" />
            </Array>
          </mxGeometry>
        </mxCell>
        <mxCell id="obkJ-EoX20HhRhTZhNiV-34" style="edgeStyle=orthogonalEdgeStyle;rounded=0;orthogonalLoop=1;jettySize=auto;html=1;exitX=0.25;exitY=1;exitDx=0;exitDy=0;entryX=0.5;entryY=0;entryDx=0;entryDy=0;dashed=1;endArrow=classicThin;endFill=1;strokeColor=#CC0000;strokeWidth=3;" edge="1" parent="obkJ-EoX20HhRhTZhNiV-1" source="obkJ-EoX20HhRhTZhNiV-35" target="obkJ-EoX20HhRhTZhNiV-107">
          <mxGeometry relative="1" as="geometry">
            <Array as="points">
              <mxPoint x="1760" y="920" />
              <mxPoint x="1700" y="920" />
            </Array>
          </mxGeometry>
        </mxCell>
        <mxCell id="obkJ-EoX20HhRhTZhNiV-35" value="dynamic&lt;br&gt;analysis" style="shape=process;whiteSpace=wrap;html=1;backgroundOutline=1;" vertex="1" parent="obkJ-EoX20HhRhTZhNiV-1">
          <mxGeometry x="1730" y="840" width="120" height="60" as="geometry" />
        </mxCell>
        <mxCell id="obkJ-EoX20HhRhTZhNiV-36" style="edgeStyle=orthogonalEdgeStyle;rounded=0;orthogonalLoop=1;jettySize=auto;html=1;entryX=0;entryY=0.5;entryDx=0;entryDy=0;endArrow=classicThin;endFill=1;strokeColor=#0000FF;strokeWidth=3;" edge="1" parent="obkJ-EoX20HhRhTZhNiV-1" source="obkJ-EoX20HhRhTZhNiV-38" target="obkJ-EoX20HhRhTZhNiV-78">
          <mxGeometry relative="1" as="geometry">
            <Array as="points">
              <mxPoint x="1880" y="670" />
              <mxPoint x="1880" y="820" />
            </Array>
          </mxGeometry>
        </mxCell>
        <mxCell id="obkJ-EoX20HhRhTZhNiV-37" style="edgeStyle=orthogonalEdgeStyle;rounded=0;orthogonalLoop=1;jettySize=auto;html=1;exitX=0.25;exitY=1;exitDx=0;exitDy=0;dashed=1;endArrow=classicThin;endFill=1;strokeColor=#CC0000;strokeWidth=3;entryX=0.5;entryY=0;entryDx=0;entryDy=0;" edge="1" parent="obkJ-EoX20HhRhTZhNiV-1" source="obkJ-EoX20HhRhTZhNiV-38" target="obkJ-EoX20HhRhTZhNiV-107">
          <mxGeometry relative="1" as="geometry">
            <mxPoint x="1575" y="1060.2298850574712" as="targetPoint" />
            <Array as="points">
              <mxPoint x="1760" y="720" />
              <mxPoint x="1700" y="720" />
            </Array>
          </mxGeometry>
        </mxCell>
        <mxCell id="obkJ-EoX20HhRhTZhNiV-38" value="fuzz&lt;br&gt;testing" style="shape=process;whiteSpace=wrap;html=1;backgroundOutline=1;" vertex="1" parent="obkJ-EoX20HhRhTZhNiV-1">
          <mxGeometry x="1730" y="640" width="120" height="60" as="geometry" />
        </mxCell>
        <mxCell id="obkJ-EoX20HhRhTZhNiV-39" style="edgeStyle=orthogonalEdgeStyle;rounded=0;orthogonalLoop=1;jettySize=auto;html=1;endArrow=classicThin;endFill=1;strokeColor=#0000FF;strokeWidth=3;" edge="1" parent="obkJ-EoX20HhRhTZhNiV-1" source="obkJ-EoX20HhRhTZhNiV-41" target="obkJ-EoX20HhRhTZhNiV-78">
          <mxGeometry relative="1" as="geometry">
            <Array as="points">
              <mxPoint x="1880" y="970" />
              <mxPoint x="1880" y="820" />
            </Array>
          </mxGeometry>
        </mxCell>
        <mxCell id="obkJ-EoX20HhRhTZhNiV-40" style="edgeStyle=orthogonalEdgeStyle;rounded=0;orthogonalLoop=1;jettySize=auto;html=1;exitX=0.25;exitY=1;exitDx=0;exitDy=0;entryX=0.5;entryY=0;entryDx=0;entryDy=0;dashed=1;endArrow=classicThin;endFill=1;strokeColor=#CC0000;strokeWidth=3;" edge="1" parent="obkJ-EoX20HhRhTZhNiV-1" source="obkJ-EoX20HhRhTZhNiV-41" target="obkJ-EoX20HhRhTZhNiV-107">
          <mxGeometry relative="1" as="geometry">
            <Array as="points">
              <mxPoint x="1760" y="1030" />
              <mxPoint x="1700" y="1030" />
            </Array>
          </mxGeometry>
        </mxCell>
        <mxCell id="obkJ-EoX20HhRhTZhNiV-41" value="security&lt;br&gt;code review" style="shape=process;whiteSpace=wrap;html=1;backgroundOutline=1;" vertex="1" parent="obkJ-EoX20HhRhTZhNiV-1">
          <mxGeometry x="1730" y="940" width="120" height="60" as="geometry" />
        </mxCell>
        <mxCell id="obkJ-EoX20HhRhTZhNiV-42" style="edgeStyle=orthogonalEdgeStyle;rounded=0;orthogonalLoop=1;jettySize=auto;html=1;entryX=0;entryY=0.5;entryDx=0;entryDy=0;endArrow=classicThin;endFill=1;strokeColor=#0000FF;strokeWidth=3;" edge="1" parent="obkJ-EoX20HhRhTZhNiV-1" source="obkJ-EoX20HhRhTZhNiV-43" target="obkJ-EoX20HhRhTZhNiV-27">
          <mxGeometry relative="1" as="geometry" />
        </mxCell>
        <mxCell id="obkJ-EoX20HhRhTZhNiV-43" value="threat&lt;br&gt;candidates" style="shape=note;whiteSpace=wrap;html=1;backgroundOutline=1;darkOpacity=0.05;fillColor=#fff2cc;strokeColor=#d6b656;" vertex="1" parent="obkJ-EoX20HhRhTZhNiV-1">
          <mxGeometry x="1455" y="1270" width="80" height="100" as="geometry" />
        </mxCell>
        <mxCell id="obkJ-EoX20HhRhTZhNiV-44" style="edgeStyle=orthogonalEdgeStyle;rounded=0;orthogonalLoop=1;jettySize=auto;html=1;endArrow=classicThin;endFill=1;strokeColor=#0000FF;strokeWidth=3;entryX=0;entryY=0.5;entryDx=0;entryDy=0;" edge="1" parent="obkJ-EoX20HhRhTZhNiV-1" source="obkJ-EoX20HhRhTZhNiV-45" target="obkJ-EoX20HhRhTZhNiV-56">
          <mxGeometry relative="1" as="geometry">
            <mxPoint x="1904.999999999999" y="1320" as="targetPoint" />
          </mxGeometry>
        </mxCell>
        <mxCell id="obkJ-EoX20HhRhTZhNiV-45" value="uncontrolled&lt;br&gt;threats" style="shape=note;whiteSpace=wrap;html=1;backgroundOutline=1;darkOpacity=0.05;fillColor=#fff2cc;strokeColor=#d6b656;" vertex="1" parent="obkJ-EoX20HhRhTZhNiV-1">
          <mxGeometry x="1770" y="1270" width="80" height="100" as="geometry" />
        </mxCell>
        <mxCell id="obkJ-EoX20HhRhTZhNiV-55" value="" style="group" vertex="1" connectable="0" parent="obkJ-EoX20HhRhTZhNiV-1">
          <mxGeometry x="1905" y="1275" width="140" height="90" as="geometry" />
        </mxCell>
        <mxCell id="obkJ-EoX20HhRhTZhNiV-56" value="" style="rounded=0;whiteSpace=wrap;html=1;fillColor=none;strokeColor=none;" vertex="1" parent="obkJ-EoX20HhRhTZhNiV-55">
          <mxGeometry x="5" y="5" width="130" height="80" as="geometry" />
        </mxCell>
        <mxCell id="obkJ-EoX20HhRhTZhNiV-57" value="&lt;span style=&quot;color: rgb(0, 0, 0); font-family: Helvetica; font-size: 12px; font-style: normal; font-variant-ligatures: normal; font-variant-caps: normal; font-weight: 400; letter-spacing: normal; orphans: 2; text-align: center; text-indent: 0px; text-transform: none; widows: 2; word-spacing: 0px; -webkit-text-stroke-width: 0px; text-decoration-thickness: initial; text-decoration-style: initial; text-decoration-color: initial; float: none; display: inline !important;&quot;&gt;task / issue&lt;/span&gt;&lt;br style=&quot;color: rgb(0, 0, 0); font-family: Helvetica; font-size: 12px; font-style: normal; font-variant-ligatures: normal; font-variant-caps: normal; font-weight: 400; letter-spacing: normal; orphans: 2; text-align: center; text-indent: 0px; text-transform: none; widows: 2; word-spacing: 0px; -webkit-text-stroke-width: 0px; text-decoration-thickness: initial; text-decoration-style: initial; text-decoration-color: initial;&quot;&gt;&lt;span style=&quot;color: rgb(0, 0, 0); font-family: Helvetica; font-size: 12px; font-style: normal; font-variant-ligatures: normal; font-variant-caps: normal; font-weight: 400; letter-spacing: normal; orphans: 2; text-align: center; text-indent: 0px; text-transform: none; widows: 2; word-spacing: 0px; -webkit-text-stroke-width: 0px; text-decoration-thickness: initial; text-decoration-style: initial; text-decoration-color: initial; float: none; display: inline !important;&quot;&gt;tracking&lt;/span&gt;&lt;br style=&quot;color: rgb(0, 0, 0); font-family: Helvetica; font-size: 12px; font-style: normal; font-variant-ligatures: normal; font-variant-caps: normal; font-weight: 400; letter-spacing: normal; orphans: 2; text-align: center; text-indent: 0px; text-transform: none; widows: 2; word-spacing: 0px; -webkit-text-stroke-width: 0px; text-decoration-thickness: initial; text-decoration-style: initial; text-decoration-color: initial;&quot;&gt;&lt;span style=&quot;color: rgb(0, 0, 0); font-family: Helvetica; font-size: 12px; font-style: normal; font-variant-ligatures: normal; font-variant-caps: normal; font-weight: 400; letter-spacing: normal; orphans: 2; text-align: center; text-indent: 0px; text-transform: none; widows: 2; word-spacing: 0px; -webkit-text-stroke-width: 0px; text-decoration-thickness: initial; text-decoration-style: initial; text-decoration-color: initial; float: none; display: inline !important;&quot;&gt;system&lt;/span&gt;" style="ellipse;shape=cloud;whiteSpace=wrap;html=1;fillColor=#D5E8D4;" vertex="1" parent="obkJ-EoX20HhRhTZhNiV-55">
          <mxGeometry width="140" height="90" as="geometry" />
        </mxCell>
        <mxCell id="obkJ-EoX20HhRhTZhNiV-68" style="edgeStyle=orthogonalEdgeStyle;rounded=0;orthogonalLoop=1;jettySize=auto;html=1;entryX=0;entryY=0.75;entryDx=0;entryDy=0;endArrow=classicThin;endFill=1;strokeColor=#0000FF;strokeWidth=3;" edge="1" parent="obkJ-EoX20HhRhTZhNiV-1" source="obkJ-EoX20HhRhTZhNiV-73" target="obkJ-EoX20HhRhTZhNiV-35">
          <mxGeometry relative="1" as="geometry">
            <Array as="points">
              <mxPoint x="1680" y="816" />
              <mxPoint x="1680" y="885" />
            </Array>
          </mxGeometry>
        </mxCell>
        <mxCell id="obkJ-EoX20HhRhTZhNiV-69" style="edgeStyle=orthogonalEdgeStyle;rounded=0;orthogonalLoop=1;jettySize=auto;html=1;entryX=0;entryY=0.75;entryDx=0;entryDy=0;endArrow=classicThin;endFill=1;strokeColor=#0000FF;strokeWidth=3;" edge="1" parent="obkJ-EoX20HhRhTZhNiV-1" source="obkJ-EoX20HhRhTZhNiV-73" target="obkJ-EoX20HhRhTZhNiV-41">
          <mxGeometry relative="1" as="geometry">
            <Array as="points">
              <mxPoint x="1680" y="816" />
              <mxPoint x="1680" y="985" />
            </Array>
          </mxGeometry>
        </mxCell>
        <mxCell id="obkJ-EoX20HhRhTZhNiV-70" style="edgeStyle=orthogonalEdgeStyle;rounded=0;orthogonalLoop=1;jettySize=auto;html=1;entryX=0;entryY=0.75;entryDx=0;entryDy=0;endArrow=classicThin;endFill=1;strokeColor=#0000FF;strokeWidth=3;" edge="1" parent="obkJ-EoX20HhRhTZhNiV-1" source="obkJ-EoX20HhRhTZhNiV-73" target="obkJ-EoX20HhRhTZhNiV-32">
          <mxGeometry relative="1" as="geometry">
            <Array as="points">
              <mxPoint x="1680" y="816" />
              <mxPoint x="1680" y="785" />
            </Array>
          </mxGeometry>
        </mxCell>
        <mxCell id="obkJ-EoX20HhRhTZhNiV-71" style="edgeStyle=orthogonalEdgeStyle;rounded=0;orthogonalLoop=1;jettySize=auto;html=1;entryX=0;entryY=0.75;entryDx=0;entryDy=0;endArrow=classicThin;endFill=1;strokeColor=#0000FF;strokeWidth=3;" edge="1" parent="obkJ-EoX20HhRhTZhNiV-1" source="obkJ-EoX20HhRhTZhNiV-73" target="obkJ-EoX20HhRhTZhNiV-38">
          <mxGeometry relative="1" as="geometry">
            <Array as="points">
              <mxPoint x="1680" y="816" />
              <mxPoint x="1680" y="685" />
            </Array>
          </mxGeometry>
        </mxCell>
        <mxCell id="obkJ-EoX20HhRhTZhNiV-72" style="edgeStyle=orthogonalEdgeStyle;rounded=0;orthogonalLoop=1;jettySize=auto;html=1;exitX=1;exitY=0.5;exitDx=0;exitDy=0;entryX=0;entryY=0.5;entryDx=0;entryDy=0;endArrow=classicThin;endFill=1;strokeColor=#FF8000;strokeWidth=3;" edge="1" parent="obkJ-EoX20HhRhTZhNiV-1" source="obkJ-EoX20HhRhTZhNiV-73" target="obkJ-EoX20HhRhTZhNiV-116">
          <mxGeometry relative="1" as="geometry" />
        </mxCell>
        <mxCell id="obkJ-EoX20HhRhTZhNiV-73" value="design&lt;br&gt;gate" style="rhombus;whiteSpace=wrap;html=1;fillColor=default;" vertex="1" parent="obkJ-EoX20HhRhTZhNiV-1">
          <mxGeometry x="1225" y="776" width="110" height="80" as="geometry" />
        </mxCell>
        <mxCell id="obkJ-EoX20HhRhTZhNiV-75" style="edgeStyle=orthogonalEdgeStyle;rounded=0;orthogonalLoop=1;jettySize=auto;html=1;endArrow=classicThin;endFill=1;strokeColor=#CC0000;strokeWidth=3;entryX=0.5;entryY=0;entryDx=0;entryDy=0;dashed=1;" edge="1" parent="obkJ-EoX20HhRhTZhNiV-1" source="obkJ-EoX20HhRhTZhNiV-78" target="obkJ-EoX20HhRhTZhNiV-56">
          <mxGeometry relative="1" as="geometry">
            <mxPoint x="1985" y="1180" as="targetPoint" />
            <Array as="points">
              <mxPoint x="1975" y="1240" />
              <mxPoint x="1975" y="1240" />
            </Array>
          </mxGeometry>
        </mxCell>
        <mxCell id="obkJ-EoX20HhRhTZhNiV-78" value="implementation&lt;br&gt;gate" style="rhombus;whiteSpace=wrap;html=1;fillColor=default;" vertex="1" parent="obkJ-EoX20HhRhTZhNiV-1">
          <mxGeometry x="1920" y="780" width="110" height="80" as="geometry" />
        </mxCell>
        <mxCell id="obkJ-EoX20HhRhTZhNiV-93" style="edgeStyle=orthogonalEdgeStyle;rounded=0;orthogonalLoop=1;jettySize=auto;html=1;entryX=0;entryY=0.25;entryDx=0;entryDy=0;endArrow=classicThin;endFill=1;strokeColor=#FF8000;strokeWidth=3;" edge="1" parent="obkJ-EoX20HhRhTZhNiV-1" source="obkJ-EoX20HhRhTZhNiV-97" target="obkJ-EoX20HhRhTZhNiV-38">
          <mxGeometry relative="1" as="geometry">
            <Array as="points">
              <mxPoint x="1660" y="686" />
              <mxPoint x="1660" y="655" />
            </Array>
          </mxGeometry>
        </mxCell>
        <mxCell id="obkJ-EoX20HhRhTZhNiV-94" style="edgeStyle=orthogonalEdgeStyle;rounded=0;orthogonalLoop=1;jettySize=auto;html=1;entryX=0;entryY=0.25;entryDx=0;entryDy=0;endArrow=classicThin;endFill=1;strokeColor=#FF8000;strokeWidth=3;" edge="1" parent="obkJ-EoX20HhRhTZhNiV-1" source="obkJ-EoX20HhRhTZhNiV-97" target="obkJ-EoX20HhRhTZhNiV-32">
          <mxGeometry relative="1" as="geometry">
            <Array as="points">
              <mxPoint x="1660" y="686" />
              <mxPoint x="1660" y="755" />
            </Array>
          </mxGeometry>
        </mxCell>
        <mxCell id="obkJ-EoX20HhRhTZhNiV-95" style="edgeStyle=orthogonalEdgeStyle;rounded=0;orthogonalLoop=1;jettySize=auto;html=1;entryX=0;entryY=0.25;entryDx=0;entryDy=0;endArrow=classicThin;endFill=1;strokeColor=#FF8000;strokeWidth=3;" edge="1" parent="obkJ-EoX20HhRhTZhNiV-1" source="obkJ-EoX20HhRhTZhNiV-97" target="obkJ-EoX20HhRhTZhNiV-35">
          <mxGeometry relative="1" as="geometry">
            <Array as="points">
              <mxPoint x="1660" y="686" />
              <mxPoint x="1660" y="855" />
            </Array>
          </mxGeometry>
        </mxCell>
        <mxCell id="obkJ-EoX20HhRhTZhNiV-96" style="edgeStyle=orthogonalEdgeStyle;rounded=0;orthogonalLoop=1;jettySize=auto;html=1;entryX=0;entryY=0.25;entryDx=0;entryDy=0;endArrow=classicThin;endFill=1;strokeColor=#FF8000;strokeWidth=3;" edge="1" parent="obkJ-EoX20HhRhTZhNiV-1" source="obkJ-EoX20HhRhTZhNiV-97" target="obkJ-EoX20HhRhTZhNiV-41">
          <mxGeometry relative="1" as="geometry">
            <Array as="points">
              <mxPoint x="1660" y="686" />
              <mxPoint x="1660" y="955" />
            </Array>
          </mxGeometry>
        </mxCell>
        <mxCell id="obkJ-EoX20HhRhTZhNiV-97" value="implemented&lt;br&gt;element" style="shape=note;whiteSpace=wrap;html=1;backgroundOutline=1;darkOpacity=0.05;fillColor=#d5e8d4;strokeColor=#000000;" vertex="1" parent="obkJ-EoX20HhRhTZhNiV-1">
          <mxGeometry x="1550" y="636" width="80" height="100" as="geometry" />
        </mxCell>
        <mxCell id="obkJ-EoX20HhRhTZhNiV-103" style="edgeStyle=orthogonalEdgeStyle;rounded=0;orthogonalLoop=1;jettySize=auto;html=1;entryX=0;entryY=0.5;entryDx=0;entryDy=0;entryPerimeter=0;endArrow=classicThin;endFill=1;strokeColor=#0000FF;strokeWidth=3;" edge="1" parent="obkJ-EoX20HhRhTZhNiV-1" source="obkJ-EoX20HhRhTZhNiV-104" target="obkJ-EoX20HhRhTZhNiV-43">
          <mxGeometry relative="1" as="geometry" />
        </mxCell>
        <mxCell id="obkJ-EoX20HhRhTZhNiV-104" value="&lt;b&gt;TPP&lt;br&gt;&lt;/b&gt;" style="ellipse;whiteSpace=wrap;html=1;aspect=fixed;fillColor=#bac8d3;strokeColor=#23445d;" vertex="1" parent="obkJ-EoX20HhRhTZhNiV-1">
          <mxGeometry x="1340" y="1290" width="60" height="60" as="geometry" />
        </mxCell>
        <mxCell id="obkJ-EoX20HhRhTZhNiV-107" value="&lt;b&gt;to&lt;br&gt;TPP&lt;br&gt;&lt;/b&gt;" style="ellipse;whiteSpace=wrap;html=1;aspect=fixed;fillColor=#bac8d3;strokeColor=#23445d;" vertex="1" parent="obkJ-EoX20HhRhTZhNiV-1">
          <mxGeometry x="1670" y="1070" width="60" height="60" as="geometry" />
        </mxCell>
        <mxCell id="obkJ-EoX20HhRhTZhNiV-115" style="edgeStyle=orthogonalEdgeStyle;rounded=0;orthogonalLoop=1;jettySize=auto;html=1;entryX=0;entryY=0.5;entryDx=0;entryDy=0;entryPerimeter=0;endArrow=classicThin;endFill=1;strokeColor=#FF8000;strokeWidth=3;" edge="1" parent="obkJ-EoX20HhRhTZhNiV-1" source="obkJ-EoX20HhRhTZhNiV-116" target="obkJ-EoX20HhRhTZhNiV-97">
          <mxGeometry relative="1" as="geometry" />
        </mxCell>
        <mxCell id="obkJ-EoX20HhRhTZhNiV-116" value="element&lt;br&gt;implementation" style="shape=process;whiteSpace=wrap;html=1;backgroundOutline=1;" vertex="1" parent="obkJ-EoX20HhRhTZhNiV-1">
          <mxGeometry x="1390" y="656" width="120" height="60" as="geometry" />
        </mxCell>
        <mxCell id="obkJ-EoX20HhRhTZhNiV-117" style="edgeStyle=orthogonalEdgeStyle;rounded=0;orthogonalLoop=1;jettySize=auto;html=1;entryX=0.5;entryY=1;entryDx=0;entryDy=0;dashed=1;endArrow=classicThin;endFill=1;strokeColor=#CC0000;strokeWidth=3;" edge="1" parent="obkJ-EoX20HhRhTZhNiV-1" source="obkJ-EoX20HhRhTZhNiV-118" target="obkJ-EoX20HhRhTZhNiV-116">
          <mxGeometry relative="1" as="geometry" />
        </mxCell>
        <mxCell id="obkJ-EoX20HhRhTZhNiV-118" value="&lt;b&gt;from&lt;br&gt;issue&lt;br&gt;tracking&lt;/b&gt;" style="ellipse;whiteSpace=wrap;html=1;aspect=fixed;fillColor=#bac8d3;strokeColor=#23445d;" vertex="1" parent="obkJ-EoX20HhRhTZhNiV-1">
          <mxGeometry x="1420" y="881" width="60" height="60" as="geometry" />
        </mxCell>
        <mxCell id="obkJ-EoX20HhRhTZhNiV-128" value="&lt;b&gt;Implementation&lt;/b&gt;" style="text;html=1;strokeColor=none;fillColor=none;align=left;verticalAlign=middle;whiteSpace=wrap;rounded=0;labelBackgroundColor=none;spacingLeft=5;" vertex="1" parent="obkJ-EoX20HhRhTZhNiV-1">
          <mxGeometry x="1350" y="600" width="170" height="30" as="geometry" />
        </mxCell>
        <mxCell id="64it0TD6pUiTb1dnGZ68-0" value="" style="rounded=0;whiteSpace=wrap;html=1;labelBackgroundColor=none;fillColor=#CCE5FF;strokeColor=#000000;strokeWidth=2;" vertex="1" parent="obkJ-EoX20HhRhTZhNiV-1">
          <mxGeometry x="870" y="600" width="180" height="620" as="geometry" />
        </mxCell>
        <mxCell id="64it0TD6pUiTb1dnGZ68-1" value="element&lt;br&gt;requirements&lt;br&gt;review" style="shape=process;whiteSpace=wrap;html=1;backgroundOutline=1;" vertex="1" parent="obkJ-EoX20HhRhTZhNiV-1">
          <mxGeometry x="900" y="789" width="120" height="60" as="geometry" />
        </mxCell>
        <mxCell id="64it0TD6pUiTb1dnGZ68-2" style="edgeStyle=orthogonalEdgeStyle;rounded=0;orthogonalLoop=1;jettySize=auto;html=1;entryX=0.5;entryY=1;entryDx=0;entryDy=0;endArrow=classicThin;endFill=1;strokeColor=#CC0000;strokeWidth=3;dashed=1;" edge="1" parent="obkJ-EoX20HhRhTZhNiV-1" source="64it0TD6pUiTb1dnGZ68-3" target="64it0TD6pUiTb1dnGZ68-1">
          <mxGeometry relative="1" as="geometry" />
        </mxCell>
        <mxCell id="64it0TD6pUiTb1dnGZ68-3" value="&lt;b&gt;from&lt;br&gt;issue&lt;br&gt;tracking&lt;/b&gt;" style="ellipse;whiteSpace=wrap;html=1;aspect=fixed;fillColor=#bac8d3;strokeColor=#23445d;" vertex="1" parent="obkJ-EoX20HhRhTZhNiV-1">
          <mxGeometry x="930" y="961" width="60" height="60" as="geometry" />
        </mxCell>
        <mxCell id="64it0TD6pUiTb1dnGZ68-4" value="&lt;b&gt;Foundation / Requirements&lt;/b&gt;" style="text;html=1;strokeColor=none;fillColor=none;align=left;verticalAlign=middle;whiteSpace=wrap;rounded=0;labelBackgroundColor=none;spacingLeft=5;" vertex="1" parent="obkJ-EoX20HhRhTZhNiV-1">
          <mxGeometry x="870" y="600" width="170" height="30" as="geometry" />
        </mxCell>
        <mxCell id="64it0TD6pUiTb1dnGZ68-14" value="element&lt;br&gt;design&lt;br&gt;review" style="shape=process;whiteSpace=wrap;html=1;backgroundOutline=1;" vertex="1" parent="obkJ-EoX20HhRhTZhNiV-1">
          <mxGeometry x="1075" y="786" width="120" height="60" as="geometry" />
        </mxCell>
        <mxCell id="64it0TD6pUiTb1dnGZ68-21" style="edgeStyle=orthogonalEdgeStyle;rounded=0;orthogonalLoop=1;jettySize=auto;html=1;entryX=0.5;entryY=1;entryDx=0;entryDy=0;dashed=1;endArrow=classicThin;endFill=1;strokeColor=#CC0000;strokeWidth=3;" edge="1" parent="obkJ-EoX20HhRhTZhNiV-1" source="64it0TD6pUiTb1dnGZ68-22" target="64it0TD6pUiTb1dnGZ68-14">
          <mxGeometry relative="1" as="geometry" />
        </mxCell>
        <mxCell id="64it0TD6pUiTb1dnGZ68-22" value="&lt;b&gt;from&lt;br&gt;issue&lt;br&gt;tracking&lt;/b&gt;" style="ellipse;whiteSpace=wrap;html=1;aspect=fixed;fillColor=#bac8d3;strokeColor=#23445d;" vertex="1" parent="obkJ-EoX20HhRhTZhNiV-1">
          <mxGeometry x="1105" y="961" width="60" height="60" as="geometry" />
        </mxCell>
        <mxCell id="64it0TD6pUiTb1dnGZ68-25" value="&lt;b&gt;Design&lt;/b&gt;" style="text;html=1;strokeColor=none;fillColor=none;align=left;verticalAlign=middle;whiteSpace=wrap;rounded=0;labelBackgroundColor=none;spacingLeft=5;" vertex="1" parent="obkJ-EoX20HhRhTZhNiV-1">
          <mxGeometry x="1050" y="600" width="170" height="30" as="geometry" />
        </mxCell>
      </root>
    </mxGraphModel>
  </diagram>
  <diagram name="verification" id="h51fJPRrCWL-fUX1UL0K">
    <mxGraphModel dx="1440" dy="795" grid="1" gridSize="10" guides="1" tooltips="1" connect="1" arrows="1" fold="1" page="0" pageScale="1" pageWidth="850" pageHeight="1100" math="0" shadow="0">
      <root>
        <mxCell id="LwbonqlfiIYp6EQKqU-A-0" />
        <mxCell id="LwbonqlfiIYp6EQKqU-A-1" parent="LwbonqlfiIYp6EQKqU-A-0" />
        <mxCell id="dWZ6aa4SPFK1_BUpSnmk-0" value="" style="rounded=0;whiteSpace=wrap;html=1;labelBackgroundColor=none;fillColor=#E6FFCC;strokeColor=#000000;strokeWidth=2;" vertex="1" parent="LwbonqlfiIYp6EQKqU-A-1">
          <mxGeometry x="1540" y="600" width="170" height="620" as="geometry" />
        </mxCell>
        <mxCell id="dWZ6aa4SPFK1_BUpSnmk-1" value="" style="rounded=0;whiteSpace=wrap;html=1;labelBackgroundColor=none;fillColor=#CCE5FF;strokeColor=#000000;strokeWidth=2;" vertex="1" parent="LwbonqlfiIYp6EQKqU-A-1">
          <mxGeometry x="1710" y="600" width="340" height="620" as="geometry" />
        </mxCell>
        <mxCell id="dWZ6aa4SPFK1_BUpSnmk-28" value="element&lt;br&gt;implementation" style="shape=process;whiteSpace=wrap;html=1;backgroundOutline=1;" vertex="1" parent="LwbonqlfiIYp6EQKqU-A-1">
          <mxGeometry x="1750" y="786" width="120" height="60" as="geometry" />
        </mxCell>
        <mxCell id="dWZ6aa4SPFK1_BUpSnmk-29" style="edgeStyle=orthogonalEdgeStyle;rounded=0;orthogonalLoop=1;jettySize=auto;html=1;entryX=0.5;entryY=1;entryDx=0;entryDy=0;dashed=1;endArrow=classicThin;endFill=1;strokeColor=#CC0000;strokeWidth=3;" edge="1" parent="LwbonqlfiIYp6EQKqU-A-1" source="dWZ6aa4SPFK1_BUpSnmk-30" target="dWZ6aa4SPFK1_BUpSnmk-28">
          <mxGeometry relative="1" as="geometry" />
        </mxCell>
        <mxCell id="dWZ6aa4SPFK1_BUpSnmk-30" value="&lt;b&gt;from&lt;br&gt;issue&lt;br&gt;tracking&lt;/b&gt;" style="ellipse;whiteSpace=wrap;html=1;aspect=fixed;fillColor=#bac8d3;strokeColor=#23445d;" vertex="1" parent="LwbonqlfiIYp6EQKqU-A-1">
          <mxGeometry x="1780" y="961" width="60" height="60" as="geometry" />
        </mxCell>
        <mxCell id="dWZ6aa4SPFK1_BUpSnmk-31" value="&lt;b&gt;Implementation&lt;/b&gt;" style="text;html=1;strokeColor=none;fillColor=none;align=left;verticalAlign=middle;whiteSpace=wrap;rounded=0;labelBackgroundColor=none;spacingLeft=5;" vertex="1" parent="LwbonqlfiIYp6EQKqU-A-1">
          <mxGeometry x="1710" y="600" width="170" height="30" as="geometry" />
        </mxCell>
        <mxCell id="dWZ6aa4SPFK1_BUpSnmk-32" value="" style="rounded=0;whiteSpace=wrap;html=1;labelBackgroundColor=none;fillColor=#CCE5FF;strokeColor=#000000;strokeWidth=2;" vertex="1" parent="LwbonqlfiIYp6EQKqU-A-1">
          <mxGeometry x="1360" y="600" width="180" height="620" as="geometry" />
        </mxCell>
        <mxCell id="dWZ6aa4SPFK1_BUpSnmk-33" value="element&lt;br&gt;requirements&lt;br&gt;review" style="shape=process;whiteSpace=wrap;html=1;backgroundOutline=1;" vertex="1" parent="LwbonqlfiIYp6EQKqU-A-1">
          <mxGeometry x="1390" y="786" width="120" height="60" as="geometry" />
        </mxCell>
        <mxCell id="dWZ6aa4SPFK1_BUpSnmk-34" style="edgeStyle=orthogonalEdgeStyle;rounded=0;orthogonalLoop=1;jettySize=auto;html=1;entryX=0.5;entryY=1;entryDx=0;entryDy=0;endArrow=classicThin;endFill=1;strokeColor=#CC0000;strokeWidth=3;dashed=1;" edge="1" parent="LwbonqlfiIYp6EQKqU-A-1" source="dWZ6aa4SPFK1_BUpSnmk-35" target="dWZ6aa4SPFK1_BUpSnmk-33">
          <mxGeometry relative="1" as="geometry" />
        </mxCell>
        <mxCell id="dWZ6aa4SPFK1_BUpSnmk-35" value="&lt;b&gt;from&lt;br&gt;issue&lt;br&gt;tracking&lt;/b&gt;" style="ellipse;whiteSpace=wrap;html=1;aspect=fixed;fillColor=#bac8d3;strokeColor=#23445d;" vertex="1" parent="LwbonqlfiIYp6EQKqU-A-1">
          <mxGeometry x="1420" y="961" width="60" height="60" as="geometry" />
        </mxCell>
        <mxCell id="dWZ6aa4SPFK1_BUpSnmk-36" value="&lt;b&gt;Foundation / Requirements&lt;/b&gt;" style="text;html=1;strokeColor=none;fillColor=none;align=left;verticalAlign=middle;whiteSpace=wrap;rounded=0;labelBackgroundColor=none;spacingLeft=5;" vertex="1" parent="LwbonqlfiIYp6EQKqU-A-1">
          <mxGeometry x="1360" y="600" width="170" height="30" as="geometry" />
        </mxCell>
        <mxCell id="dWZ6aa4SPFK1_BUpSnmk-37" value="element&lt;br&gt;design&lt;br&gt;review" style="shape=process;whiteSpace=wrap;html=1;backgroundOutline=1;" vertex="1" parent="LwbonqlfiIYp6EQKqU-A-1">
          <mxGeometry x="1565" y="786" width="120" height="60" as="geometry" />
        </mxCell>
        <mxCell id="dWZ6aa4SPFK1_BUpSnmk-38" style="edgeStyle=orthogonalEdgeStyle;rounded=0;orthogonalLoop=1;jettySize=auto;html=1;entryX=0.5;entryY=1;entryDx=0;entryDy=0;dashed=1;endArrow=classicThin;endFill=1;strokeColor=#CC0000;strokeWidth=3;" edge="1" parent="LwbonqlfiIYp6EQKqU-A-1" source="dWZ6aa4SPFK1_BUpSnmk-39" target="dWZ6aa4SPFK1_BUpSnmk-37">
          <mxGeometry relative="1" as="geometry" />
        </mxCell>
        <mxCell id="dWZ6aa4SPFK1_BUpSnmk-39" value="&lt;b&gt;from&lt;br&gt;issue&lt;br&gt;tracking&lt;/b&gt;" style="ellipse;whiteSpace=wrap;html=1;aspect=fixed;fillColor=#bac8d3;strokeColor=#23445d;" vertex="1" parent="LwbonqlfiIYp6EQKqU-A-1">
          <mxGeometry x="1595" y="961" width="60" height="60" as="geometry" />
        </mxCell>
        <mxCell id="dWZ6aa4SPFK1_BUpSnmk-40" value="&lt;b&gt;Design&lt;/b&gt;" style="text;html=1;strokeColor=none;fillColor=none;align=left;verticalAlign=middle;whiteSpace=wrap;rounded=0;labelBackgroundColor=none;spacingLeft=5;" vertex="1" parent="LwbonqlfiIYp6EQKqU-A-1">
          <mxGeometry x="1540" y="600" width="170" height="30" as="geometry" />
        </mxCell>
        <mxCell id="LwbonqlfiIYp6EQKqU-A-4" value="" style="rounded=0;whiteSpace=wrap;html=1;labelBackgroundColor=none;fillColor=#E6FFCC;strokeColor=#000000;strokeWidth=2;" vertex="1" parent="LwbonqlfiIYp6EQKqU-A-1">
          <mxGeometry x="2050" y="600" width="500" height="620" as="geometry" />
        </mxCell>
        <mxCell id="LwbonqlfiIYp6EQKqU-A-26" style="edgeStyle=orthogonalEdgeStyle;rounded=0;orthogonalLoop=1;jettySize=auto;html=1;entryX=0;entryY=0.5;entryDx=0;entryDy=0;entryPerimeter=0;endArrow=classicThin;endFill=1;strokeColor=#0000FF;strokeWidth=3;" edge="1" parent="LwbonqlfiIYp6EQKqU-A-1" source="LwbonqlfiIYp6EQKqU-A-27" target="LwbonqlfiIYp6EQKqU-A-45">
          <mxGeometry relative="1" as="geometry" />
        </mxCell>
        <mxCell id="LwbonqlfiIYp6EQKqU-A-27" value="threat prioritization" style="shape=process;whiteSpace=wrap;html=1;backgroundOutline=1;" vertex="1" parent="LwbonqlfiIYp6EQKqU-A-1">
          <mxGeometry x="2100" y="1290" width="120" height="60" as="geometry" />
        </mxCell>
        <mxCell id="LwbonqlfiIYp6EQKqU-A-42" style="edgeStyle=orthogonalEdgeStyle;rounded=0;orthogonalLoop=1;jettySize=auto;html=1;entryX=0;entryY=0.5;entryDx=0;entryDy=0;endArrow=classicThin;endFill=1;strokeColor=#0000FF;strokeWidth=3;" edge="1" parent="LwbonqlfiIYp6EQKqU-A-1" source="LwbonqlfiIYp6EQKqU-A-43" target="LwbonqlfiIYp6EQKqU-A-27">
          <mxGeometry relative="1" as="geometry" />
        </mxCell>
        <mxCell id="LwbonqlfiIYp6EQKqU-A-43" value="threat&lt;br&gt;candidates" style="shape=note;whiteSpace=wrap;html=1;backgroundOutline=1;darkOpacity=0.05;fillColor=#fff2cc;strokeColor=#d6b656;" vertex="1" parent="LwbonqlfiIYp6EQKqU-A-1">
          <mxGeometry x="1965" y="1270" width="80" height="100" as="geometry" />
        </mxCell>
        <mxCell id="LwbonqlfiIYp6EQKqU-A-44" style="edgeStyle=orthogonalEdgeStyle;rounded=0;orthogonalLoop=1;jettySize=auto;html=1;endArrow=classicThin;endFill=1;strokeColor=#0000FF;strokeWidth=3;entryX=0;entryY=0.5;entryDx=0;entryDy=0;" edge="1" parent="LwbonqlfiIYp6EQKqU-A-1" source="LwbonqlfiIYp6EQKqU-A-45" target="LwbonqlfiIYp6EQKqU-A-56">
          <mxGeometry relative="1" as="geometry">
            <mxPoint x="2414.999999999999" y="1320" as="targetPoint" />
          </mxGeometry>
        </mxCell>
        <mxCell id="LwbonqlfiIYp6EQKqU-A-45" value="uncontrolled&lt;br&gt;threats" style="shape=note;whiteSpace=wrap;html=1;backgroundOutline=1;darkOpacity=0.05;fillColor=#fff2cc;strokeColor=#d6b656;" vertex="1" parent="LwbonqlfiIYp6EQKqU-A-1">
          <mxGeometry x="2280" y="1270" width="80" height="100" as="geometry" />
        </mxCell>
        <mxCell id="LwbonqlfiIYp6EQKqU-A-46" style="edgeStyle=orthogonalEdgeStyle;rounded=0;orthogonalLoop=1;jettySize=auto;html=1;exitX=0.25;exitY=1;exitDx=0;exitDy=0;entryX=0.5;entryY=0;entryDx=0;entryDy=0;endArrow=classicThin;endFill=1;strokeColor=#CC0000;strokeWidth=3;dashed=1;" edge="1" parent="LwbonqlfiIYp6EQKqU-A-1" source="LwbonqlfiIYp6EQKqU-A-48" target="LwbonqlfiIYp6EQKqU-A-105">
          <mxGeometry relative="1" as="geometry">
            <Array as="points">
              <mxPoint x="2280" y="755" />
              <mxPoint x="2220" y="755" />
            </Array>
          </mxGeometry>
        </mxCell>
        <mxCell id="LwbonqlfiIYp6EQKqU-A-47" style="edgeStyle=orthogonalEdgeStyle;rounded=0;orthogonalLoop=1;jettySize=auto;html=1;entryX=0;entryY=0.5;entryDx=0;entryDy=0;endArrow=classicThin;endFill=1;strokeColor=#0000FF;strokeWidth=3;" edge="1" parent="LwbonqlfiIYp6EQKqU-A-1" source="LwbonqlfiIYp6EQKqU-A-48" target="LwbonqlfiIYp6EQKqU-A-81">
          <mxGeometry relative="1" as="geometry">
            <mxPoint x="2405" y="811" as="targetPoint" />
          </mxGeometry>
        </mxCell>
        <mxCell id="LwbonqlfiIYp6EQKqU-A-48" value="penetration&lt;br&gt;testing" style="shape=process;whiteSpace=wrap;html=1;backgroundOutline=1;" vertex="1" parent="LwbonqlfiIYp6EQKqU-A-1">
          <mxGeometry x="2250" y="669.5" width="120" height="60" as="geometry" />
        </mxCell>
        <mxCell id="LwbonqlfiIYp6EQKqU-A-55" value="" style="group" vertex="1" connectable="0" parent="LwbonqlfiIYp6EQKqU-A-1">
          <mxGeometry x="2415" y="1275" width="140" height="90" as="geometry" />
        </mxCell>
        <mxCell id="LwbonqlfiIYp6EQKqU-A-56" value="" style="rounded=0;whiteSpace=wrap;html=1;fillColor=none;strokeColor=none;" vertex="1" parent="LwbonqlfiIYp6EQKqU-A-55">
          <mxGeometry x="5" y="5" width="130" height="80" as="geometry" />
        </mxCell>
        <mxCell id="LwbonqlfiIYp6EQKqU-A-57" value="&lt;span style=&quot;color: rgb(0, 0, 0); font-family: Helvetica; font-size: 12px; font-style: normal; font-variant-ligatures: normal; font-variant-caps: normal; font-weight: 400; letter-spacing: normal; orphans: 2; text-align: center; text-indent: 0px; text-transform: none; widows: 2; word-spacing: 0px; -webkit-text-stroke-width: 0px; text-decoration-thickness: initial; text-decoration-style: initial; text-decoration-color: initial; float: none; display: inline !important;&quot;&gt;task / issue&lt;/span&gt;&lt;br style=&quot;color: rgb(0, 0, 0); font-family: Helvetica; font-size: 12px; font-style: normal; font-variant-ligatures: normal; font-variant-caps: normal; font-weight: 400; letter-spacing: normal; orphans: 2; text-align: center; text-indent: 0px; text-transform: none; widows: 2; word-spacing: 0px; -webkit-text-stroke-width: 0px; text-decoration-thickness: initial; text-decoration-style: initial; text-decoration-color: initial;&quot;&gt;&lt;span style=&quot;color: rgb(0, 0, 0); font-family: Helvetica; font-size: 12px; font-style: normal; font-variant-ligatures: normal; font-variant-caps: normal; font-weight: 400; letter-spacing: normal; orphans: 2; text-align: center; text-indent: 0px; text-transform: none; widows: 2; word-spacing: 0px; -webkit-text-stroke-width: 0px; text-decoration-thickness: initial; text-decoration-style: initial; text-decoration-color: initial; float: none; display: inline !important;&quot;&gt;tracking&lt;/span&gt;&lt;br style=&quot;color: rgb(0, 0, 0); font-family: Helvetica; font-size: 12px; font-style: normal; font-variant-ligatures: normal; font-variant-caps: normal; font-weight: 400; letter-spacing: normal; orphans: 2; text-align: center; text-indent: 0px; text-transform: none; widows: 2; word-spacing: 0px; -webkit-text-stroke-width: 0px; text-decoration-thickness: initial; text-decoration-style: initial; text-decoration-color: initial;&quot;&gt;&lt;span style=&quot;color: rgb(0, 0, 0); font-family: Helvetica; font-size: 12px; font-style: normal; font-variant-ligatures: normal; font-variant-caps: normal; font-weight: 400; letter-spacing: normal; orphans: 2; text-align: center; text-indent: 0px; text-transform: none; widows: 2; word-spacing: 0px; -webkit-text-stroke-width: 0px; text-decoration-thickness: initial; text-decoration-style: initial; text-decoration-color: initial; float: none; display: inline !important;&quot;&gt;system&lt;/span&gt;" style="ellipse;shape=cloud;whiteSpace=wrap;html=1;fillColor=#D5E8D4;" vertex="1" parent="LwbonqlfiIYp6EQKqU-A-55">
          <mxGeometry width="140" height="90" as="geometry" />
        </mxCell>
        <mxCell id="LwbonqlfiIYp6EQKqU-A-74" style="edgeStyle=orthogonalEdgeStyle;rounded=0;orthogonalLoop=1;jettySize=auto;html=1;endArrow=classicThin;endFill=1;strokeColor=#0000FF;strokeWidth=3;entryX=0;entryY=0.75;entryDx=0;entryDy=0;" edge="1" parent="LwbonqlfiIYp6EQKqU-A-1" source="LwbonqlfiIYp6EQKqU-A-78" target="LwbonqlfiIYp6EQKqU-A-48">
          <mxGeometry relative="1" as="geometry">
            <Array as="points">
              <mxPoint x="2200" y="820" />
              <mxPoint x="2200" y="714" />
            </Array>
          </mxGeometry>
        </mxCell>
        <mxCell id="LwbonqlfiIYp6EQKqU-A-76" style="edgeStyle=orthogonalEdgeStyle;rounded=0;orthogonalLoop=1;jettySize=auto;html=1;entryX=0;entryY=0.75;entryDx=0;entryDy=0;endArrow=classicThin;endFill=1;strokeColor=#0000FF;strokeWidth=3;" edge="1" parent="LwbonqlfiIYp6EQKqU-A-1" source="LwbonqlfiIYp6EQKqU-A-78" target="LwbonqlfiIYp6EQKqU-A-121">
          <mxGeometry relative="1" as="geometry" />
        </mxCell>
        <mxCell id="LwbonqlfiIYp6EQKqU-A-77" style="edgeStyle=orthogonalEdgeStyle;rounded=0;orthogonalLoop=1;jettySize=auto;html=1;entryX=0;entryY=0.75;entryDx=0;entryDy=0;endArrow=classicThin;endFill=1;strokeColor=#0000FF;strokeWidth=3;" edge="1" parent="LwbonqlfiIYp6EQKqU-A-1" source="LwbonqlfiIYp6EQKqU-A-78" target="LwbonqlfiIYp6EQKqU-A-124">
          <mxGeometry relative="1" as="geometry">
            <Array as="points">
              <mxPoint x="2200" y="820" />
              <mxPoint x="2200" y="920" />
            </Array>
          </mxGeometry>
        </mxCell>
        <mxCell id="LwbonqlfiIYp6EQKqU-A-78" value="implementation&lt;br&gt;gate" style="rhombus;whiteSpace=wrap;html=1;fillColor=default;" vertex="1" parent="LwbonqlfiIYp6EQKqU-A-1">
          <mxGeometry x="1920" y="780" width="110" height="80" as="geometry" />
        </mxCell>
        <mxCell id="LwbonqlfiIYp6EQKqU-A-80" style="edgeStyle=orthogonalEdgeStyle;rounded=0;orthogonalLoop=1;jettySize=auto;html=1;entryX=0.5;entryY=0;entryDx=0;entryDy=0;endArrow=classicThin;endFill=1;strokeColor=#CC0000;strokeWidth=3;dashed=1;" edge="1" parent="LwbonqlfiIYp6EQKqU-A-1" source="LwbonqlfiIYp6EQKqU-A-81" target="LwbonqlfiIYp6EQKqU-A-56">
          <mxGeometry relative="1" as="geometry">
            <Array as="points">
              <mxPoint x="2485" y="1230" />
              <mxPoint x="2485" y="1230" />
            </Array>
          </mxGeometry>
        </mxCell>
        <mxCell id="LwbonqlfiIYp6EQKqU-A-81" value="verification&lt;br&gt;gate" style="rhombus;whiteSpace=wrap;html=1;fillColor=default;" vertex="1" parent="LwbonqlfiIYp6EQKqU-A-1">
          <mxGeometry x="2430" y="764.5" width="110" height="80" as="geometry" />
        </mxCell>
        <mxCell id="LwbonqlfiIYp6EQKqU-A-103" style="edgeStyle=orthogonalEdgeStyle;rounded=0;orthogonalLoop=1;jettySize=auto;html=1;entryX=0;entryY=0.5;entryDx=0;entryDy=0;entryPerimeter=0;endArrow=classicThin;endFill=1;strokeColor=#0000FF;strokeWidth=3;" edge="1" parent="LwbonqlfiIYp6EQKqU-A-1" source="LwbonqlfiIYp6EQKqU-A-104" target="LwbonqlfiIYp6EQKqU-A-43">
          <mxGeometry relative="1" as="geometry" />
        </mxCell>
        <mxCell id="LwbonqlfiIYp6EQKqU-A-104" value="&lt;b&gt;TPP&lt;br&gt;&lt;/b&gt;" style="ellipse;whiteSpace=wrap;html=1;aspect=fixed;fillColor=#bac8d3;strokeColor=#23445d;" vertex="1" parent="LwbonqlfiIYp6EQKqU-A-1">
          <mxGeometry x="1850" y="1290" width="60" height="60" as="geometry" />
        </mxCell>
        <mxCell id="LwbonqlfiIYp6EQKqU-A-105" value="&lt;b&gt;to&lt;br&gt;TPP&lt;br&gt;&lt;/b&gt;" style="ellipse;whiteSpace=wrap;html=1;aspect=fixed;fillColor=#bac8d3;strokeColor=#23445d;" vertex="1" parent="LwbonqlfiIYp6EQKqU-A-1">
          <mxGeometry x="2190" y="1004.5" width="60" height="60" as="geometry" />
        </mxCell>
        <mxCell id="LwbonqlfiIYp6EQKqU-A-108" style="edgeStyle=orthogonalEdgeStyle;rounded=0;orthogonalLoop=1;jettySize=auto;html=1;entryX=0;entryY=0.25;entryDx=0;entryDy=0;endArrow=classicThin;endFill=1;strokeColor=#FF8000;strokeWidth=3;" edge="1" parent="LwbonqlfiIYp6EQKqU-A-1" source="LwbonqlfiIYp6EQKqU-A-111" target="LwbonqlfiIYp6EQKqU-A-48">
          <mxGeometry relative="1" as="geometry">
            <Array as="points">
              <mxPoint x="2180" y="706" />
              <mxPoint x="2180" y="685" />
            </Array>
          </mxGeometry>
        </mxCell>
        <mxCell id="LwbonqlfiIYp6EQKqU-A-109" style="edgeStyle=orthogonalEdgeStyle;rounded=0;orthogonalLoop=1;jettySize=auto;html=1;entryX=0;entryY=0.25;entryDx=0;entryDy=0;endArrow=classicThin;endFill=1;strokeColor=#FF8000;strokeWidth=3;" edge="1" parent="LwbonqlfiIYp6EQKqU-A-1" source="LwbonqlfiIYp6EQKqU-A-111" target="LwbonqlfiIYp6EQKqU-A-121">
          <mxGeometry relative="1" as="geometry">
            <Array as="points">
              <mxPoint x="2180" y="706" />
              <mxPoint x="2180" y="790" />
            </Array>
          </mxGeometry>
        </mxCell>
        <mxCell id="LwbonqlfiIYp6EQKqU-A-110" style="edgeStyle=orthogonalEdgeStyle;rounded=0;orthogonalLoop=1;jettySize=auto;html=1;entryX=0;entryY=0.25;entryDx=0;entryDy=0;endArrow=classicThin;endFill=1;strokeColor=#FF8000;strokeWidth=3;" edge="1" parent="LwbonqlfiIYp6EQKqU-A-1" source="LwbonqlfiIYp6EQKqU-A-111" target="LwbonqlfiIYp6EQKqU-A-124">
          <mxGeometry relative="1" as="geometry">
            <Array as="points">
              <mxPoint x="2180" y="706" />
              <mxPoint x="2180" y="891" />
            </Array>
          </mxGeometry>
        </mxCell>
        <mxCell id="LwbonqlfiIYp6EQKqU-A-111" value="implemented&lt;br&gt;system" style="shape=note;whiteSpace=wrap;html=1;backgroundOutline=1;darkOpacity=0.05;fillColor=#d5e8d4;strokeColor=#000000;" vertex="1" parent="LwbonqlfiIYp6EQKqU-A-1">
          <mxGeometry x="2070" y="656" width="80" height="100" as="geometry" />
        </mxCell>
        <mxCell id="LwbonqlfiIYp6EQKqU-A-119" style="edgeStyle=orthogonalEdgeStyle;rounded=0;orthogonalLoop=1;jettySize=auto;html=1;exitX=0.25;exitY=1;exitDx=0;exitDy=0;dashed=1;endArrow=classicThin;endFill=1;strokeColor=#CC0000;strokeWidth=3;" edge="1" parent="LwbonqlfiIYp6EQKqU-A-1" source="LwbonqlfiIYp6EQKqU-A-121" target="LwbonqlfiIYp6EQKqU-A-105">
          <mxGeometry relative="1" as="geometry">
            <Array as="points">
              <mxPoint x="2280" y="855" />
              <mxPoint x="2220" y="855" />
            </Array>
          </mxGeometry>
        </mxCell>
        <mxCell id="LwbonqlfiIYp6EQKqU-A-120" style="edgeStyle=orthogonalEdgeStyle;rounded=0;orthogonalLoop=1;jettySize=auto;html=1;entryX=0;entryY=0.5;entryDx=0;entryDy=0;endArrow=classicThin;endFill=1;strokeColor=#0000FF;strokeWidth=3;" edge="1" parent="LwbonqlfiIYp6EQKqU-A-1" source="LwbonqlfiIYp6EQKqU-A-121" target="LwbonqlfiIYp6EQKqU-A-81">
          <mxGeometry relative="1" as="geometry" />
        </mxCell>
        <mxCell id="LwbonqlfiIYp6EQKqU-A-121" value="attack&lt;br&gt;surface&lt;br&gt;analysis&lt;br&gt;review" style="shape=process;whiteSpace=wrap;html=1;backgroundOutline=1;" vertex="1" parent="LwbonqlfiIYp6EQKqU-A-1">
          <mxGeometry x="2250" y="774.5" width="120" height="60" as="geometry" />
        </mxCell>
        <mxCell id="LwbonqlfiIYp6EQKqU-A-122" style="edgeStyle=orthogonalEdgeStyle;rounded=0;orthogonalLoop=1;jettySize=auto;html=1;exitX=0.25;exitY=1;exitDx=0;exitDy=0;dashed=1;endArrow=classicThin;endFill=1;strokeColor=#CC0000;strokeWidth=3;entryX=0.5;entryY=0;entryDx=0;entryDy=0;" edge="1" parent="LwbonqlfiIYp6EQKqU-A-1" source="LwbonqlfiIYp6EQKqU-A-124" target="LwbonqlfiIYp6EQKqU-A-105">
          <mxGeometry relative="1" as="geometry">
            <mxPoint x="2280" y="1004.5" as="targetPoint" />
            <Array as="points">
              <mxPoint x="2280" y="960" />
              <mxPoint x="2220" y="960" />
            </Array>
          </mxGeometry>
        </mxCell>
        <mxCell id="LwbonqlfiIYp6EQKqU-A-123" style="edgeStyle=orthogonalEdgeStyle;rounded=0;orthogonalLoop=1;jettySize=auto;html=1;entryX=0;entryY=0.5;entryDx=0;entryDy=0;endArrow=classicThin;endFill=1;strokeColor=#0000FF;strokeWidth=3;" edge="1" parent="LwbonqlfiIYp6EQKqU-A-1" source="LwbonqlfiIYp6EQKqU-A-124" target="LwbonqlfiIYp6EQKqU-A-81">
          <mxGeometry relative="1" as="geometry" />
        </mxCell>
        <mxCell id="LwbonqlfiIYp6EQKqU-A-124" value="threat&lt;br&gt;modeling&lt;br&gt;review" style="shape=process;whiteSpace=wrap;html=1;backgroundOutline=1;" vertex="1" parent="LwbonqlfiIYp6EQKqU-A-1">
          <mxGeometry x="2250" y="875.5" width="120" height="60" as="geometry" />
        </mxCell>
        <mxCell id="LwbonqlfiIYp6EQKqU-A-129" value="&lt;b&gt;Verification&lt;/b&gt;" style="text;html=1;strokeColor=none;fillColor=none;align=left;verticalAlign=middle;whiteSpace=wrap;rounded=0;labelBackgroundColor=none;spacingLeft=5;" vertex="1" parent="LwbonqlfiIYp6EQKqU-A-1">
          <mxGeometry x="2050" y="600" width="170" height="30" as="geometry" />
        </mxCell>
      </root>
    </mxGraphModel>
  </diagram>
  <diagram name="release" id="O-k3J68mpxwC41iUpOux">
    <mxGraphModel dx="1040" dy="795" grid="1" gridSize="10" guides="1" tooltips="1" connect="1" arrows="1" fold="1" page="0" pageScale="1" pageWidth="850" pageHeight="1100" math="0" shadow="0">
      <root>
        <mxCell id="JnX5mIuZjeh5lXIxqc3P-0" />
        <mxCell id="JnX5mIuZjeh5lXIxqc3P-1" parent="JnX5mIuZjeh5lXIxqc3P-0" />
        <mxCell id="IiDZGmhXkOBDhOa9aWXP-0" value="" style="rounded=0;whiteSpace=wrap;html=1;labelBackgroundColor=none;fillColor=#E6FFCC;strokeColor=#000000;strokeWidth=2;" vertex="1" parent="JnX5mIuZjeh5lXIxqc3P-1">
          <mxGeometry x="2040" y="600" width="170" height="620" as="geometry" />
        </mxCell>
        <mxCell id="IiDZGmhXkOBDhOa9aWXP-1" value="" style="rounded=0;whiteSpace=wrap;html=1;labelBackgroundColor=none;fillColor=#CCE5FF;strokeColor=#000000;strokeWidth=2;" vertex="1" parent="JnX5mIuZjeh5lXIxqc3P-1">
          <mxGeometry x="2210" y="600" width="190" height="620" as="geometry" />
        </mxCell>
        <mxCell id="IiDZGmhXkOBDhOa9aWXP-2" value="element&lt;br&gt;implementation" style="shape=process;whiteSpace=wrap;html=1;backgroundOutline=1;" vertex="1" parent="JnX5mIuZjeh5lXIxqc3P-1">
          <mxGeometry x="2250" y="786" width="120" height="60" as="geometry" />
        </mxCell>
        <mxCell id="IiDZGmhXkOBDhOa9aWXP-3" style="edgeStyle=orthogonalEdgeStyle;rounded=0;orthogonalLoop=1;jettySize=auto;html=1;entryX=0.5;entryY=1;entryDx=0;entryDy=0;dashed=1;endArrow=classicThin;endFill=1;strokeColor=#CC0000;strokeWidth=3;" edge="1" parent="JnX5mIuZjeh5lXIxqc3P-1" source="IiDZGmhXkOBDhOa9aWXP-4" target="IiDZGmhXkOBDhOa9aWXP-2">
          <mxGeometry relative="1" as="geometry" />
        </mxCell>
        <mxCell id="IiDZGmhXkOBDhOa9aWXP-4" value="&lt;b&gt;from&lt;br&gt;issue&lt;br&gt;tracking&lt;/b&gt;" style="ellipse;whiteSpace=wrap;html=1;aspect=fixed;fillColor=#bac8d3;strokeColor=#23445d;" vertex="1" parent="JnX5mIuZjeh5lXIxqc3P-1">
          <mxGeometry x="2280" y="961" width="60" height="60" as="geometry" />
        </mxCell>
        <mxCell id="IiDZGmhXkOBDhOa9aWXP-5" value="&lt;b&gt;Implementation&lt;/b&gt;" style="text;html=1;strokeColor=none;fillColor=none;align=left;verticalAlign=middle;whiteSpace=wrap;rounded=0;labelBackgroundColor=none;spacingLeft=5;" vertex="1" parent="JnX5mIuZjeh5lXIxqc3P-1">
          <mxGeometry x="2210" y="600" width="170" height="30" as="geometry" />
        </mxCell>
        <mxCell id="IiDZGmhXkOBDhOa9aWXP-6" value="" style="rounded=0;whiteSpace=wrap;html=1;labelBackgroundColor=none;fillColor=#CCE5FF;strokeColor=#000000;strokeWidth=2;" vertex="1" parent="JnX5mIuZjeh5lXIxqc3P-1">
          <mxGeometry x="1860" y="600" width="180" height="620" as="geometry" />
        </mxCell>
        <mxCell id="IiDZGmhXkOBDhOa9aWXP-7" value="element&lt;br&gt;requirements&lt;br&gt;review" style="shape=process;whiteSpace=wrap;html=1;backgroundOutline=1;" vertex="1" parent="JnX5mIuZjeh5lXIxqc3P-1">
          <mxGeometry x="1890" y="786" width="120" height="60" as="geometry" />
        </mxCell>
        <mxCell id="IiDZGmhXkOBDhOa9aWXP-8" style="edgeStyle=orthogonalEdgeStyle;rounded=0;orthogonalLoop=1;jettySize=auto;html=1;entryX=0.5;entryY=1;entryDx=0;entryDy=0;endArrow=classicThin;endFill=1;strokeColor=#CC0000;strokeWidth=3;dashed=1;" edge="1" parent="JnX5mIuZjeh5lXIxqc3P-1" source="IiDZGmhXkOBDhOa9aWXP-9" target="IiDZGmhXkOBDhOa9aWXP-7">
          <mxGeometry relative="1" as="geometry" />
        </mxCell>
        <mxCell id="IiDZGmhXkOBDhOa9aWXP-9" value="&lt;b&gt;from&lt;br&gt;issue&lt;br&gt;tracking&lt;/b&gt;" style="ellipse;whiteSpace=wrap;html=1;aspect=fixed;fillColor=#bac8d3;strokeColor=#23445d;" vertex="1" parent="JnX5mIuZjeh5lXIxqc3P-1">
          <mxGeometry x="1920" y="961" width="60" height="60" as="geometry" />
        </mxCell>
        <mxCell id="IiDZGmhXkOBDhOa9aWXP-10" value="&lt;b&gt;Foundation / Requirements&lt;/b&gt;" style="text;html=1;strokeColor=none;fillColor=none;align=left;verticalAlign=middle;whiteSpace=wrap;rounded=0;labelBackgroundColor=none;spacingLeft=5;" vertex="1" parent="JnX5mIuZjeh5lXIxqc3P-1">
          <mxGeometry x="1860" y="600" width="170" height="30" as="geometry" />
        </mxCell>
        <mxCell id="IiDZGmhXkOBDhOa9aWXP-11" value="element&lt;br&gt;design&lt;br&gt;review" style="shape=process;whiteSpace=wrap;html=1;backgroundOutline=1;" vertex="1" parent="JnX5mIuZjeh5lXIxqc3P-1">
          <mxGeometry x="2065" y="786" width="120" height="60" as="geometry" />
        </mxCell>
        <mxCell id="IiDZGmhXkOBDhOa9aWXP-12" style="edgeStyle=orthogonalEdgeStyle;rounded=0;orthogonalLoop=1;jettySize=auto;html=1;entryX=0.5;entryY=1;entryDx=0;entryDy=0;dashed=1;endArrow=classicThin;endFill=1;strokeColor=#CC0000;strokeWidth=3;" edge="1" parent="JnX5mIuZjeh5lXIxqc3P-1" source="IiDZGmhXkOBDhOa9aWXP-13" target="IiDZGmhXkOBDhOa9aWXP-11">
          <mxGeometry relative="1" as="geometry" />
        </mxCell>
        <mxCell id="IiDZGmhXkOBDhOa9aWXP-13" value="&lt;b&gt;from&lt;br&gt;issue&lt;br&gt;tracking&lt;/b&gt;" style="ellipse;whiteSpace=wrap;html=1;aspect=fixed;fillColor=#bac8d3;strokeColor=#23445d;" vertex="1" parent="JnX5mIuZjeh5lXIxqc3P-1">
          <mxGeometry x="2095" y="961" width="60" height="60" as="geometry" />
        </mxCell>
        <mxCell id="IiDZGmhXkOBDhOa9aWXP-14" value="&lt;b&gt;Design&lt;/b&gt;" style="text;html=1;strokeColor=none;fillColor=none;align=left;verticalAlign=middle;whiteSpace=wrap;rounded=0;labelBackgroundColor=none;spacingLeft=5;" vertex="1" parent="JnX5mIuZjeh5lXIxqc3P-1">
          <mxGeometry x="2040" y="600" width="170" height="30" as="geometry" />
        </mxCell>
        <mxCell id="IiDZGmhXkOBDhOa9aWXP-15" value="" style="rounded=0;whiteSpace=wrap;html=1;labelBackgroundColor=none;fillColor=#E6FFCC;strokeColor=#000000;strokeWidth=2;" vertex="1" parent="JnX5mIuZjeh5lXIxqc3P-1">
          <mxGeometry x="2400" y="600" width="150" height="620" as="geometry" />
        </mxCell>
        <mxCell id="IiDZGmhXkOBDhOa9aWXP-35" value="&lt;b&gt;Verification&lt;/b&gt;" style="text;html=1;strokeColor=none;fillColor=none;align=left;verticalAlign=middle;whiteSpace=wrap;rounded=0;labelBackgroundColor=none;spacingLeft=5;" vertex="1" parent="JnX5mIuZjeh5lXIxqc3P-1">
          <mxGeometry x="2400" y="600" width="120" height="30" as="geometry" />
        </mxCell>
        <mxCell id="JnX5mIuZjeh5lXIxqc3P-3" value="" style="rounded=0;whiteSpace=wrap;html=1;labelBackgroundColor=none;fillColor=#CCE5FF;strokeColor=#000000;strokeWidth=2;" vertex="1" parent="JnX5mIuZjeh5lXIxqc3P-1">
          <mxGeometry x="2550" y="600" width="310" height="620" as="geometry" />
        </mxCell>
        <mxCell id="JnX5mIuZjeh5lXIxqc3P-55" value="" style="group" vertex="1" connectable="0" parent="JnX5mIuZjeh5lXIxqc3P-1">
          <mxGeometry x="2725" y="1275" width="140" height="90" as="geometry" />
        </mxCell>
        <mxCell id="JnX5mIuZjeh5lXIxqc3P-56" value="" style="rounded=0;whiteSpace=wrap;html=1;fillColor=none;strokeColor=none;" vertex="1" parent="JnX5mIuZjeh5lXIxqc3P-55">
          <mxGeometry x="5" y="5" width="130" height="80" as="geometry" />
        </mxCell>
        <mxCell id="JnX5mIuZjeh5lXIxqc3P-57" value="&lt;span style=&quot;color: rgb(0, 0, 0); font-family: Helvetica; font-size: 12px; font-style: normal; font-variant-ligatures: normal; font-variant-caps: normal; font-weight: 400; letter-spacing: normal; orphans: 2; text-align: center; text-indent: 0px; text-transform: none; widows: 2; word-spacing: 0px; -webkit-text-stroke-width: 0px; text-decoration-thickness: initial; text-decoration-style: initial; text-decoration-color: initial; float: none; display: inline !important;&quot;&gt;task / issue&lt;/span&gt;&lt;br style=&quot;color: rgb(0, 0, 0); font-family: Helvetica; font-size: 12px; font-style: normal; font-variant-ligatures: normal; font-variant-caps: normal; font-weight: 400; letter-spacing: normal; orphans: 2; text-align: center; text-indent: 0px; text-transform: none; widows: 2; word-spacing: 0px; -webkit-text-stroke-width: 0px; text-decoration-thickness: initial; text-decoration-style: initial; text-decoration-color: initial;&quot;&gt;&lt;span style=&quot;color: rgb(0, 0, 0); font-family: Helvetica; font-size: 12px; font-style: normal; font-variant-ligatures: normal; font-variant-caps: normal; font-weight: 400; letter-spacing: normal; orphans: 2; text-align: center; text-indent: 0px; text-transform: none; widows: 2; word-spacing: 0px; -webkit-text-stroke-width: 0px; text-decoration-thickness: initial; text-decoration-style: initial; text-decoration-color: initial; float: none; display: inline !important;&quot;&gt;tracking&lt;/span&gt;&lt;br style=&quot;color: rgb(0, 0, 0); font-family: Helvetica; font-size: 12px; font-style: normal; font-variant-ligatures: normal; font-variant-caps: normal; font-weight: 400; letter-spacing: normal; orphans: 2; text-align: center; text-indent: 0px; text-transform: none; widows: 2; word-spacing: 0px; -webkit-text-stroke-width: 0px; text-decoration-thickness: initial; text-decoration-style: initial; text-decoration-color: initial;&quot;&gt;&lt;span style=&quot;color: rgb(0, 0, 0); font-family: Helvetica; font-size: 12px; font-style: normal; font-variant-ligatures: normal; font-variant-caps: normal; font-weight: 400; letter-spacing: normal; orphans: 2; text-align: center; text-indent: 0px; text-transform: none; widows: 2; word-spacing: 0px; -webkit-text-stroke-width: 0px; text-decoration-thickness: initial; text-decoration-style: initial; text-decoration-color: initial; float: none; display: inline !important;&quot;&gt;system&lt;/span&gt;" style="ellipse;shape=cloud;whiteSpace=wrap;html=1;fillColor=#D5E8D4;" vertex="1" parent="JnX5mIuZjeh5lXIxqc3P-55">
          <mxGeometry width="140" height="90" as="geometry" />
        </mxCell>
        <mxCell id="JnX5mIuZjeh5lXIxqc3P-79" style="edgeStyle=orthogonalEdgeStyle;rounded=0;orthogonalLoop=1;jettySize=auto;html=1;exitX=1;exitY=0.5;exitDx=0;exitDy=0;entryX=0;entryY=0.5;entryDx=0;entryDy=0;endArrow=classicThin;endFill=1;strokeColor=#0000FF;strokeWidth=3;" edge="1" parent="JnX5mIuZjeh5lXIxqc3P-1" source="JnX5mIuZjeh5lXIxqc3P-81" target="JnX5mIuZjeh5lXIxqc3P-114">
          <mxGeometry relative="1" as="geometry" />
        </mxCell>
        <mxCell id="JnX5mIuZjeh5lXIxqc3P-81" value="verification&lt;br&gt;gate" style="rhombus;whiteSpace=wrap;html=1;fillColor=default;" vertex="1" parent="JnX5mIuZjeh5lXIxqc3P-1">
          <mxGeometry x="2430" y="764.5" width="110" height="80" as="geometry" />
        </mxCell>
        <mxCell id="JnX5mIuZjeh5lXIxqc3P-82" style="edgeStyle=orthogonalEdgeStyle;rounded=0;orthogonalLoop=1;jettySize=auto;html=1;entryX=0.5;entryY=0;entryDx=0;entryDy=0;dashed=1;endArrow=classicThin;endFill=1;strokeColor=#CC0000;strokeWidth=3;" edge="1" parent="JnX5mIuZjeh5lXIxqc3P-1" source="JnX5mIuZjeh5lXIxqc3P-84" target="JnX5mIuZjeh5lXIxqc3P-56">
          <mxGeometry relative="1" as="geometry">
            <Array as="points">
              <mxPoint x="2795" y="1250" />
              <mxPoint x="2795" y="1250" />
            </Array>
          </mxGeometry>
        </mxCell>
        <mxCell id="JnX5mIuZjeh5lXIxqc3P-84" value="release&lt;br&gt;gate" style="rhombus;whiteSpace=wrap;html=1;fillColor=default;" vertex="1" parent="JnX5mIuZjeh5lXIxqc3P-1">
          <mxGeometry x="2740" y="764.5" width="110" height="80" as="geometry" />
        </mxCell>
        <mxCell id="JnX5mIuZjeh5lXIxqc3P-112" style="edgeStyle=orthogonalEdgeStyle;rounded=0;orthogonalLoop=1;jettySize=auto;html=1;exitX=1;exitY=0.5;exitDx=0;exitDy=0;entryX=0;entryY=0.5;entryDx=0;entryDy=0;endArrow=classicThin;endFill=1;strokeColor=#0000FF;strokeWidth=3;" edge="1" parent="JnX5mIuZjeh5lXIxqc3P-1" source="JnX5mIuZjeh5lXIxqc3P-114" target="JnX5mIuZjeh5lXIxqc3P-84">
          <mxGeometry relative="1" as="geometry" />
        </mxCell>
        <mxCell id="JnX5mIuZjeh5lXIxqc3P-113" style="edgeStyle=orthogonalEdgeStyle;rounded=0;orthogonalLoop=1;jettySize=auto;html=1;exitX=0.25;exitY=1;exitDx=0;exitDy=0;entryX=0.5;entryY=0;entryDx=0;entryDy=0;dashed=1;endArrow=classicThin;endFill=1;strokeColor=#CC0000;strokeWidth=3;" edge="1" parent="JnX5mIuZjeh5lXIxqc3P-1" source="JnX5mIuZjeh5lXIxqc3P-114" target="JnX5mIuZjeh5lXIxqc3P-56">
          <mxGeometry relative="1" as="geometry">
            <Array as="points">
              <mxPoint x="2610" y="1200" />
              <mxPoint x="2795" y="1200" />
            </Array>
          </mxGeometry>
        </mxCell>
        <mxCell id="JnX5mIuZjeh5lXIxqc3P-114" value="final&lt;br&gt;security&lt;br&gt;review" style="shape=process;whiteSpace=wrap;html=1;backgroundOutline=1;" vertex="1" parent="JnX5mIuZjeh5lXIxqc3P-1">
          <mxGeometry x="2580" y="774.5" width="120" height="60" as="geometry" />
        </mxCell>
        <mxCell id="JnX5mIuZjeh5lXIxqc3P-130" value="&lt;b&gt;Release&lt;/b&gt;" style="text;html=1;strokeColor=none;fillColor=none;align=left;verticalAlign=middle;whiteSpace=wrap;rounded=0;labelBackgroundColor=none;spacingLeft=5;" vertex="1" parent="JnX5mIuZjeh5lXIxqc3P-1">
          <mxGeometry x="2550" y="600" width="170" height="30" as="geometry" />
        </mxCell>
      </root>
    </mxGraphModel>
  </diagram>
  <diagram name="operation" id="uiR9v7UIBXR_nqj7aqhI">
    <mxGraphModel dx="2640" dy="795" grid="1" gridSize="10" guides="1" tooltips="1" connect="1" arrows="1" fold="1" page="0" pageScale="1" pageWidth="850" pageHeight="1100" math="0" shadow="0">
      <root>
        <mxCell id="QTq7CCVeV_ryIGpLrIjx-0" />
        <mxCell id="QTq7CCVeV_ryIGpLrIjx-1" parent="QTq7CCVeV_ryIGpLrIjx-0" />
        <mxCell id="iNtYh2WJiIfAh7VEHV_0-24" value="" style="rounded=0;whiteSpace=wrap;html=1;labelBackgroundColor=none;fillColor=#E6FFCC;strokeColor=#000000;strokeWidth=2;" vertex="1" parent="QTq7CCVeV_ryIGpLrIjx-1">
          <mxGeometry x="420" y="600" width="170" height="620" as="geometry" />
        </mxCell>
        <mxCell id="iNtYh2WJiIfAh7VEHV_0-25" value="" style="rounded=0;whiteSpace=wrap;html=1;labelBackgroundColor=none;fillColor=#CCE5FF;strokeColor=#000000;strokeWidth=2;" vertex="1" parent="QTq7CCVeV_ryIGpLrIjx-1">
          <mxGeometry x="590" y="600" width="190" height="620" as="geometry" />
        </mxCell>
        <mxCell id="iNtYh2WJiIfAh7VEHV_0-26" value="element&lt;br&gt;implementation" style="shape=process;whiteSpace=wrap;html=1;backgroundOutline=1;" vertex="1" parent="QTq7CCVeV_ryIGpLrIjx-1">
          <mxGeometry x="630" y="786" width="120" height="60" as="geometry" />
        </mxCell>
        <mxCell id="iNtYh2WJiIfAh7VEHV_0-27" style="edgeStyle=orthogonalEdgeStyle;rounded=0;orthogonalLoop=1;jettySize=auto;html=1;entryX=0.5;entryY=1;entryDx=0;entryDy=0;dashed=1;endArrow=classicThin;endFill=1;strokeColor=#CC0000;strokeWidth=3;" edge="1" parent="QTq7CCVeV_ryIGpLrIjx-1" source="iNtYh2WJiIfAh7VEHV_0-28" target="iNtYh2WJiIfAh7VEHV_0-26">
          <mxGeometry relative="1" as="geometry" />
        </mxCell>
        <mxCell id="iNtYh2WJiIfAh7VEHV_0-28" value="&lt;b&gt;from&lt;br&gt;issue&lt;br&gt;tracking&lt;/b&gt;" style="ellipse;whiteSpace=wrap;html=1;aspect=fixed;fillColor=#bac8d3;strokeColor=#23445d;" vertex="1" parent="QTq7CCVeV_ryIGpLrIjx-1">
          <mxGeometry x="660" y="961" width="60" height="60" as="geometry" />
        </mxCell>
        <mxCell id="iNtYh2WJiIfAh7VEHV_0-29" value="&lt;b&gt;Implementation&lt;/b&gt;" style="text;html=1;strokeColor=none;fillColor=none;align=left;verticalAlign=middle;whiteSpace=wrap;rounded=0;labelBackgroundColor=none;spacingLeft=5;" vertex="1" parent="QTq7CCVeV_ryIGpLrIjx-1">
          <mxGeometry x="590" y="600" width="170" height="30" as="geometry" />
        </mxCell>
        <mxCell id="iNtYh2WJiIfAh7VEHV_0-30" value="" style="rounded=0;whiteSpace=wrap;html=1;labelBackgroundColor=none;fillColor=#CCE5FF;strokeColor=#000000;strokeWidth=2;" vertex="1" parent="QTq7CCVeV_ryIGpLrIjx-1">
          <mxGeometry x="240" y="600" width="180" height="620" as="geometry" />
        </mxCell>
        <mxCell id="iNtYh2WJiIfAh7VEHV_0-31" value="element&lt;br&gt;requirements&lt;br&gt;review" style="shape=process;whiteSpace=wrap;html=1;backgroundOutline=1;" vertex="1" parent="QTq7CCVeV_ryIGpLrIjx-1">
          <mxGeometry x="270" y="786" width="120" height="60" as="geometry" />
        </mxCell>
        <mxCell id="iNtYh2WJiIfAh7VEHV_0-32" style="edgeStyle=orthogonalEdgeStyle;rounded=0;orthogonalLoop=1;jettySize=auto;html=1;entryX=0.5;entryY=1;entryDx=0;entryDy=0;endArrow=classicThin;endFill=1;strokeColor=#CC0000;strokeWidth=3;dashed=1;" edge="1" parent="QTq7CCVeV_ryIGpLrIjx-1" source="iNtYh2WJiIfAh7VEHV_0-33" target="iNtYh2WJiIfAh7VEHV_0-31">
          <mxGeometry relative="1" as="geometry" />
        </mxCell>
        <mxCell id="iNtYh2WJiIfAh7VEHV_0-33" value="&lt;b&gt;from&lt;br&gt;issue&lt;br&gt;tracking&lt;/b&gt;" style="ellipse;whiteSpace=wrap;html=1;aspect=fixed;fillColor=#bac8d3;strokeColor=#23445d;" vertex="1" parent="QTq7CCVeV_ryIGpLrIjx-1">
          <mxGeometry x="300" y="961" width="60" height="60" as="geometry" />
        </mxCell>
        <mxCell id="iNtYh2WJiIfAh7VEHV_0-34" value="&lt;b&gt;Foundation / Requirements&lt;/b&gt;" style="text;html=1;strokeColor=none;fillColor=none;align=left;verticalAlign=middle;whiteSpace=wrap;rounded=0;labelBackgroundColor=none;spacingLeft=5;" vertex="1" parent="QTq7CCVeV_ryIGpLrIjx-1">
          <mxGeometry x="240" y="600" width="170" height="30" as="geometry" />
        </mxCell>
        <mxCell id="iNtYh2WJiIfAh7VEHV_0-35" value="element&lt;br&gt;design&lt;br&gt;review" style="shape=process;whiteSpace=wrap;html=1;backgroundOutline=1;" vertex="1" parent="QTq7CCVeV_ryIGpLrIjx-1">
          <mxGeometry x="445" y="786" width="120" height="60" as="geometry" />
        </mxCell>
        <mxCell id="iNtYh2WJiIfAh7VEHV_0-36" style="edgeStyle=orthogonalEdgeStyle;rounded=0;orthogonalLoop=1;jettySize=auto;html=1;entryX=0.5;entryY=1;entryDx=0;entryDy=0;dashed=1;endArrow=classicThin;endFill=1;strokeColor=#CC0000;strokeWidth=3;" edge="1" parent="QTq7CCVeV_ryIGpLrIjx-1" source="iNtYh2WJiIfAh7VEHV_0-37" target="iNtYh2WJiIfAh7VEHV_0-35">
          <mxGeometry relative="1" as="geometry" />
        </mxCell>
        <mxCell id="iNtYh2WJiIfAh7VEHV_0-37" value="&lt;b&gt;from&lt;br&gt;issue&lt;br&gt;tracking&lt;/b&gt;" style="ellipse;whiteSpace=wrap;html=1;aspect=fixed;fillColor=#bac8d3;strokeColor=#23445d;" vertex="1" parent="QTq7CCVeV_ryIGpLrIjx-1">
          <mxGeometry x="475" y="961" width="60" height="60" as="geometry" />
        </mxCell>
        <mxCell id="iNtYh2WJiIfAh7VEHV_0-38" value="&lt;b&gt;Design&lt;/b&gt;" style="text;html=1;strokeColor=none;fillColor=none;align=left;verticalAlign=middle;whiteSpace=wrap;rounded=0;labelBackgroundColor=none;spacingLeft=5;" vertex="1" parent="QTq7CCVeV_ryIGpLrIjx-1">
          <mxGeometry x="420" y="600" width="170" height="30" as="geometry" />
        </mxCell>
        <mxCell id="iNtYh2WJiIfAh7VEHV_0-39" value="" style="rounded=0;whiteSpace=wrap;html=1;labelBackgroundColor=none;fillColor=#E6FFCC;strokeColor=#000000;strokeWidth=2;" vertex="1" parent="QTq7CCVeV_ryIGpLrIjx-1">
          <mxGeometry x="780" y="600" width="150" height="620" as="geometry" />
        </mxCell>
        <mxCell id="iNtYh2WJiIfAh7VEHV_0-40" value="&lt;b&gt;Verification&lt;/b&gt;" style="text;html=1;strokeColor=none;fillColor=none;align=left;verticalAlign=middle;whiteSpace=wrap;rounded=0;labelBackgroundColor=none;spacingLeft=5;" vertex="1" parent="QTq7CCVeV_ryIGpLrIjx-1">
          <mxGeometry x="780" y="600" width="120" height="30" as="geometry" />
        </mxCell>
        <mxCell id="iNtYh2WJiIfAh7VEHV_0-41" value="" style="rounded=0;whiteSpace=wrap;html=1;labelBackgroundColor=none;fillColor=#CCE5FF;strokeColor=#000000;strokeWidth=2;" vertex="1" parent="QTq7CCVeV_ryIGpLrIjx-1">
          <mxGeometry x="930" y="600" width="150" height="620" as="geometry" />
        </mxCell>
        <mxCell id="iNtYh2WJiIfAh7VEHV_0-47" value="&lt;b&gt;Release&lt;/b&gt;" style="text;html=1;strokeColor=none;fillColor=none;align=left;verticalAlign=middle;whiteSpace=wrap;rounded=0;labelBackgroundColor=none;spacingLeft=5;" vertex="1" parent="QTq7CCVeV_ryIGpLrIjx-1">
          <mxGeometry x="930" y="600" width="110" height="30" as="geometry" />
        </mxCell>
        <mxCell id="QTq7CCVeV_ryIGpLrIjx-3" value="" style="rounded=0;whiteSpace=wrap;html=1;labelBackgroundColor=none;fillColor=#E6FFCC;strokeColor=#000000;strokeWidth=2;" vertex="1" parent="QTq7CCVeV_ryIGpLrIjx-1">
          <mxGeometry x="1080" y="600" width="180" height="620" as="geometry" />
        </mxCell>
        <mxCell id="QTq7CCVeV_ryIGpLrIjx-4" style="edgeStyle=orthogonalEdgeStyle;rounded=0;orthogonalLoop=1;jettySize=auto;html=1;entryX=0;entryY=0.5;entryDx=0;entryDy=0;entryPerimeter=0;endArrow=classicThin;endFill=1;strokeColor=#0000FF;strokeWidth=3;" edge="1" parent="QTq7CCVeV_ryIGpLrIjx-1" source="QTq7CCVeV_ryIGpLrIjx-5" target="QTq7CCVeV_ryIGpLrIjx-9">
          <mxGeometry relative="1" as="geometry" />
        </mxCell>
        <mxCell id="QTq7CCVeV_ryIGpLrIjx-5" value="threat prioritization" style="shape=process;whiteSpace=wrap;html=1;backgroundOutline=1;" vertex="1" parent="QTq7CCVeV_ryIGpLrIjx-1">
          <mxGeometry x="800" y="1290" width="120" height="60" as="geometry" />
        </mxCell>
        <mxCell id="QTq7CCVeV_ryIGpLrIjx-6" style="edgeStyle=orthogonalEdgeStyle;rounded=0;orthogonalLoop=1;jettySize=auto;html=1;entryX=0;entryY=0.5;entryDx=0;entryDy=0;endArrow=classicThin;endFill=1;strokeColor=#0000FF;strokeWidth=3;" edge="1" parent="QTq7CCVeV_ryIGpLrIjx-1" source="QTq7CCVeV_ryIGpLrIjx-7" target="QTq7CCVeV_ryIGpLrIjx-5">
          <mxGeometry relative="1" as="geometry" />
        </mxCell>
        <mxCell id="QTq7CCVeV_ryIGpLrIjx-7" value="threat&lt;br&gt;candidates" style="shape=note;whiteSpace=wrap;html=1;backgroundOutline=1;darkOpacity=0.05;fillColor=#fff2cc;strokeColor=#d6b656;" vertex="1" parent="QTq7CCVeV_ryIGpLrIjx-1">
          <mxGeometry x="665" y="1270" width="80" height="100" as="geometry" />
        </mxCell>
        <mxCell id="QTq7CCVeV_ryIGpLrIjx-8" style="edgeStyle=orthogonalEdgeStyle;rounded=0;orthogonalLoop=1;jettySize=auto;html=1;endArrow=classicThin;endFill=1;strokeColor=#0000FF;strokeWidth=3;entryX=0;entryY=0.5;entryDx=0;entryDy=0;" edge="1" parent="QTq7CCVeV_ryIGpLrIjx-1" source="QTq7CCVeV_ryIGpLrIjx-9" target="QTq7CCVeV_ryIGpLrIjx-13">
          <mxGeometry relative="1" as="geometry">
            <mxPoint x="1114.999999999999" y="1320" as="targetPoint" />
          </mxGeometry>
        </mxCell>
        <mxCell id="QTq7CCVeV_ryIGpLrIjx-9" value="uncontrolled&lt;br&gt;threats" style="shape=note;whiteSpace=wrap;html=1;backgroundOutline=1;darkOpacity=0.05;fillColor=#fff2cc;strokeColor=#d6b656;" vertex="1" parent="QTq7CCVeV_ryIGpLrIjx-1">
          <mxGeometry x="980" y="1270" width="80" height="100" as="geometry" />
        </mxCell>
        <mxCell id="QTq7CCVeV_ryIGpLrIjx-10" style="edgeStyle=orthogonalEdgeStyle;rounded=0;orthogonalLoop=1;jettySize=auto;html=1;exitX=0.25;exitY=1;exitDx=0;exitDy=0;entryX=0.5;entryY=0;entryDx=0;entryDy=0;endArrow=classicThin;endFill=1;strokeColor=#CC0000;strokeWidth=3;dashed=1;" edge="1" parent="QTq7CCVeV_ryIGpLrIjx-1" source="QTq7CCVeV_ryIGpLrIjx-11" target="QTq7CCVeV_ryIGpLrIjx-25">
          <mxGeometry relative="1" as="geometry" />
        </mxCell>
        <mxCell id="QTq7CCVeV_ryIGpLrIjx-11" value="cybersecurity&lt;br&gt;monitoring" style="shape=process;whiteSpace=wrap;html=1;backgroundOutline=1;" vertex="1" parent="QTq7CCVeV_ryIGpLrIjx-1">
          <mxGeometry x="1110" y="774.5" width="120" height="60" as="geometry" />
        </mxCell>
        <mxCell id="QTq7CCVeV_ryIGpLrIjx-12" value="" style="group" vertex="1" connectable="0" parent="QTq7CCVeV_ryIGpLrIjx-1">
          <mxGeometry x="1115" y="1275" width="140" height="90" as="geometry" />
        </mxCell>
        <mxCell id="QTq7CCVeV_ryIGpLrIjx-13" value="" style="rounded=0;whiteSpace=wrap;html=1;fillColor=none;strokeColor=none;" vertex="1" parent="QTq7CCVeV_ryIGpLrIjx-12">
          <mxGeometry x="5" y="5" width="130" height="80" as="geometry" />
        </mxCell>
        <mxCell id="QTq7CCVeV_ryIGpLrIjx-14" value="&lt;span style=&quot;color: rgb(0, 0, 0); font-family: Helvetica; font-size: 12px; font-style: normal; font-variant-ligatures: normal; font-variant-caps: normal; font-weight: 400; letter-spacing: normal; orphans: 2; text-align: center; text-indent: 0px; text-transform: none; widows: 2; word-spacing: 0px; -webkit-text-stroke-width: 0px; text-decoration-thickness: initial; text-decoration-style: initial; text-decoration-color: initial; float: none; display: inline !important;&quot;&gt;task / issue&lt;/span&gt;&lt;br style=&quot;color: rgb(0, 0, 0); font-family: Helvetica; font-size: 12px; font-style: normal; font-variant-ligatures: normal; font-variant-caps: normal; font-weight: 400; letter-spacing: normal; orphans: 2; text-align: center; text-indent: 0px; text-transform: none; widows: 2; word-spacing: 0px; -webkit-text-stroke-width: 0px; text-decoration-thickness: initial; text-decoration-style: initial; text-decoration-color: initial;&quot;&gt;&lt;span style=&quot;color: rgb(0, 0, 0); font-family: Helvetica; font-size: 12px; font-style: normal; font-variant-ligatures: normal; font-variant-caps: normal; font-weight: 400; letter-spacing: normal; orphans: 2; text-align: center; text-indent: 0px; text-transform: none; widows: 2; word-spacing: 0px; -webkit-text-stroke-width: 0px; text-decoration-thickness: initial; text-decoration-style: initial; text-decoration-color: initial; float: none; display: inline !important;&quot;&gt;tracking&lt;/span&gt;&lt;br style=&quot;color: rgb(0, 0, 0); font-family: Helvetica; font-size: 12px; font-style: normal; font-variant-ligatures: normal; font-variant-caps: normal; font-weight: 400; letter-spacing: normal; orphans: 2; text-align: center; text-indent: 0px; text-transform: none; widows: 2; word-spacing: 0px; -webkit-text-stroke-width: 0px; text-decoration-thickness: initial; text-decoration-style: initial; text-decoration-color: initial;&quot;&gt;&lt;span style=&quot;color: rgb(0, 0, 0); font-family: Helvetica; font-size: 12px; font-style: normal; font-variant-ligatures: normal; font-variant-caps: normal; font-weight: 400; letter-spacing: normal; orphans: 2; text-align: center; text-indent: 0px; text-transform: none; widows: 2; word-spacing: 0px; -webkit-text-stroke-width: 0px; text-decoration-thickness: initial; text-decoration-style: initial; text-decoration-color: initial; float: none; display: inline !important;&quot;&gt;system&lt;/span&gt;" style="ellipse;shape=cloud;whiteSpace=wrap;html=1;fillColor=#D5E8D4;" vertex="1" parent="QTq7CCVeV_ryIGpLrIjx-12">
          <mxGeometry width="140" height="90" as="geometry" />
        </mxCell>
        <mxCell id="QTq7CCVeV_ryIGpLrIjx-18" style="edgeStyle=orthogonalEdgeStyle;rounded=0;orthogonalLoop=1;jettySize=auto;html=1;exitX=1;exitY=0.5;exitDx=0;exitDy=0;entryX=0;entryY=0.5;entryDx=0;entryDy=0;endArrow=classicThin;endFill=1;strokeColor=#0000FF;strokeWidth=3;" edge="1" parent="QTq7CCVeV_ryIGpLrIjx-1" source="QTq7CCVeV_ryIGpLrIjx-19" target="QTq7CCVeV_ryIGpLrIjx-11">
          <mxGeometry relative="1" as="geometry" />
        </mxCell>
        <mxCell id="QTq7CCVeV_ryIGpLrIjx-19" value="release&lt;br&gt;gate" style="rhombus;whiteSpace=wrap;html=1;fillColor=default;" vertex="1" parent="QTq7CCVeV_ryIGpLrIjx-1">
          <mxGeometry x="960" y="764.5" width="110" height="80" as="geometry" />
        </mxCell>
        <mxCell id="QTq7CCVeV_ryIGpLrIjx-20" style="edgeStyle=orthogonalEdgeStyle;rounded=0;orthogonalLoop=1;jettySize=auto;html=1;entryX=0;entryY=0.5;entryDx=0;entryDy=0;entryPerimeter=0;endArrow=classicThin;endFill=1;strokeColor=#0000FF;strokeWidth=3;" edge="1" parent="QTq7CCVeV_ryIGpLrIjx-1" source="QTq7CCVeV_ryIGpLrIjx-21" target="QTq7CCVeV_ryIGpLrIjx-7">
          <mxGeometry relative="1" as="geometry" />
        </mxCell>
        <mxCell id="QTq7CCVeV_ryIGpLrIjx-21" value="&lt;b&gt;TPP&lt;br&gt;&lt;/b&gt;" style="ellipse;whiteSpace=wrap;html=1;aspect=fixed;fillColor=#bac8d3;strokeColor=#23445d;" vertex="1" parent="QTq7CCVeV_ryIGpLrIjx-1">
          <mxGeometry x="550" y="1290" width="60" height="60" as="geometry" />
        </mxCell>
        <mxCell id="QTq7CCVeV_ryIGpLrIjx-25" value="&lt;b&gt;to&lt;br&gt;TPP&lt;br&gt;&lt;/b&gt;" style="ellipse;whiteSpace=wrap;html=1;aspect=fixed;fillColor=#bac8d3;strokeColor=#23445d;" vertex="1" parent="QTq7CCVeV_ryIGpLrIjx-1">
          <mxGeometry x="1110" y="901" width="60" height="60" as="geometry" />
        </mxCell>
        <mxCell id="QTq7CCVeV_ryIGpLrIjx-27" value="&lt;b&gt;Operation&lt;/b&gt;" style="text;html=1;strokeColor=none;fillColor=none;align=left;verticalAlign=middle;whiteSpace=wrap;rounded=0;labelBackgroundColor=none;spacingLeft=5;" vertex="1" parent="QTq7CCVeV_ryIGpLrIjx-1">
          <mxGeometry x="1080" y="600" width="170" height="30" as="geometry" />
        </mxCell>
      </root>
    </mxGraphModel>
  </diagram>
</mxfile>
